<?xml version="1.0" standalone="no"?><!DOCTYPE svg PUBLIC "-//W3C//DTD SVG 1.1//EN" "http://www.w3.org/Graphics/SVG/1.1/DTD/svg11.dtd"><svg t="1669416083028" class="icon" viewBox="0 0 1024 1024" version="1.1" xmlns="http://www.w3.org/2000/svg" p-id="20188" xmlns:xlink="http://www.w3.org/1999/xlink" width="64" height="64"><path d="M922.2144 106.335086L719.433143 863.188114 501.4528 645.193143 228.9664 917.664914 101.7856 790.528l272.4864-272.4864-208.896-208.910629L922.2144 106.335086m0-58.514286c-5.061486 0-10.1376 0.658286-15.140571 2.004114L150.250057 252.6208a58.514286 58.514286 0 0 0-26.243657 97.879771l167.5264 167.541029L60.416 749.1584a58.528914 58.528914 0 0 0 0 82.753829l127.166171 127.136914a58.382629 58.382629 0 0 0 41.3696 17.130057 58.324114 58.324114 0 0 0 41.3696-17.144686l231.1168-231.087543 176.610743 176.596115a58.514286 58.514286 0 0 0 97.879772-26.229029L978.724571 121.475657a58.514286 58.514286 0 0 0-56.510171-73.654857z" fill="#b1102b" p-id="20189"></path><path d="M620.763429 270.496914a14.628571 14.628571 0 0 1-3.964343-28.701257l40.784457-11.454171a14.628571 14.628571 0 0 1 7.914057 28.16l-40.784457 11.454171a14.921143 14.921143 0 0 1-3.949714 0.541257zM301.611886 360.096914a14.628571 14.628571 0 0 1-3.935086-28.701257l236.149029-66.282057a14.628571 14.628571 0 1 1 7.899428 28.16l-236.149028 66.282057a14.9504 14.9504 0 0 1-3.964343 0.541257z" fill="#b1102b" p-id="20190"></path></svg>