<svg version="1.1" xmlns="http://www.w3.org/2000/svg" viewBox="0 0 155.199951171875 88" width="155.199951171875" height="88">
  <!-- svg-source:excalidraw -->
  
  <defs>
    <style>
      @font-face {
        font-family: "Virgil";
        src: url("https://excalidraw.com/Virgil.woff2");
      }
      @font-face {
        font-family: "Cascadia";
        src: url("https://excalidraw.com/Cascadia.woff2");
      }
    </style>
  </defs>
  <g stroke-linecap="round" transform="translate(10 10) rotate(0 67.5999755859375 34)"><path d="M17 0 M17 0 C45.25 1.12, 72.88 0.54, 118.2 0 M17 0 C54.81 -1.41, 91.72 -1.27, 118.2 0 M118.2 0 C128.4 1.43, 134.58 4.17, 135.2 17 M118.2 0 C128.69 -0.94, 133.09 6.35, 135.2 17 M135.2 17 C135.24 23.57, 135.02 33.05, 135.2 51 M135.2 17 C135.73 27.58, 135.45 36.56, 135.2 51 M135.2 51 C134.24 61.27, 128.71 69.07, 118.2 68 M135.2 51 C133.07 63.84, 131.54 70.02, 118.2 68 M118.2 68 C79.2 69.45, 41.85 68.3, 17 68 M118.2 68 C90 67.23, 62.84 68.17, 17 68 M17 68 C6.36 67.13, -0.86 62.76, 0 51 M17 68 C5.31 67.51, 0.79 62.52, 0 51 M0 51 C0.71 42.43, -1.74 30.26, 0 17 M0 51 C1.02 41.21, -0.66 29.93, 0 17 M0 17 C0.47 7.36, 7.42 -1.25, 17 0 M0 17 C1.16 4.29, 7.52 1.77, 17 0" stroke="#000000" stroke-width="1" fill="none"></path></g></svg>