<?xml version="1.0" standalone="no"?><!DOCTYPE svg PUBLIC "-//W3C//DTD SVG 1.1//EN" "http://www.w3.org/Graphics/SVG/1.1/DTD/svg11.dtd"><svg t="1670145132639" class="icon" viewBox="0 0 1024 1024" version="1.1" xmlns="http://www.w3.org/2000/svg" p-id="14260" xmlns:xlink="http://www.w3.org/1999/xlink" width="64" height="64"><path d="M724.088471 255.036235v511.87953h-60.235295V255.036235c0-65.716706-48.128-136.493176-153.840941-136.493176-116.916706 0-148.118588 85.775059-148.118588 136.493176v489.170824h0.421647v87.762823c0 37.345882 41.743059 72.643765 85.89553 72.643765 50.838588 0 94.388706-41.140706 94.388705-74.752v-16.263529h-0.180705l0.481882-458.812236c0-52.645647-14.878118-52.645647-28.069647-52.645647-22.226824 0-32.948706 2.108235-32.948706 49.573647v309.970824H421.647059V351.713882c0-27.166118 0-109.808941 93.184-109.808941 40.297412 0 88.304941 19.576471 88.304941 112.941177l-0.421647 387.312941h0.120471v87.762823c0 70.656-73.728 134.987294-154.624 134.987294-77.824 0-146.130824-62.102588-146.130824-132.879058v-4.457412h-0.421647V255.036235C301.658353 160.286118 366.832941 58.307765 510.012235 58.307765c140.528941 0.060235 214.076235 98.966588 214.076236 196.72847z" p-id="14261" fill="#b1102b"></path></svg>