<svg viewBox="0 0 148.55697755772053 156.54135824275727">
<g stroke-linecap="round"><g transform="translate(18.890868617429987 20.817835341040336) rotate(357.9577157331063 54.724836698771014 59.78910316507245)"><path d="M2.1 0.54 C19.71 20.31, 87.3 98.23, 104.74 117.69 M-0.21 -1.64 C18.31 18.69, 92.2 100.93, 109.66 121.22" stroke="#fff" stroke-width="4" fill="none"></path></g></g><g stroke-linecap="round"><g transform="translate(21.248035554644957 144.8651989003265) rotate(357.9577157331063 51.05207540923038 -63.56716532943028)"><path d="M-0.18 -0.71 C17.37 -21.32, 87.73 -105.94, 105.83 -126.43 M-3.72 -3.56 C13.35 -23.47, 84.71 -102.25, 103.28 -122.96" stroke="#fff" stroke-width="4" fill="none"></path></g></g><g stroke-linecap="round"><g transform="translate(18.494698676589906 17.950593513218337) rotate(357.9577157331063 54.43860847394899 62.77695282239438)"><path d="M1.15 2.44 C19.17 22.72, 91.91 104.57, 110.55 124.26 M-1.67 1.29 C15.77 22.06, 89.36 100.38, 108.39 120.69" stroke="#fff" stroke-width="4" fill="none"></path></g></g><g stroke-linecap="round"><g transform="translate(19.207778602441067 138.65925171016715) rotate(357.9577157331063 56.244460567646 -60.415298343708855)"><path d="M2.48 0.86 C20.88 -19.19, 93.91 -97.52, 112.11 -117.85 M0.38 -1.15 C18.41 -20.73, 92.43 -102.11, 110.8 -121.69" stroke="#fff" stroke-width="4" fill="none"></path></g></g><g stroke-linecap="round"><g transform="translate(16.007222987184832 17.899266487453133) rotate(357.9577157331063 58.322157803773734 60.34859615206733)"><path d="M-0.19 0.66 C18.99 20.38, 95.27 99.46, 115.26 119.89 M-3.74 -1.46 C16.28 18.38, 99.91 102.22, 120.39 122.15" stroke="#fff" stroke-width="4" fill="none"></path></g></g><g stroke-linecap="round"><g transform="translate(136.90968930445342 21.149916484457208) rotate(357.9577157331063 -63.9499775322156 59.99797790188313)"><path d="M1.1 0.69 C-19.91 20.76, -104.65 101.23, -126.07 121.41 M-1.74 -1.41 C-23.25 17.81, -108.95 97.76, -129 117.59" stroke="#fff" stroke-width="4" fill="none"></path></g></g><g stroke-linecap="round"><g transform="translate(19.205356074078736 9.147363095718902) rotate(357.9577157331063 53.77381923887879 69.07269277781234)"><path d="M1.62 0.86 C19.93 23.42, 90.91 113.43, 108.49 136.9 M-0.94 -1.14 C17.01 21.56, 86.73 116.18, 105.65 139.29" stroke="#fff" stroke-width="4" fill="none"></path></g></g></svg>


