<?xml version="1.0" standalone="no"?><!DOCTYPE svg PUBLIC "-//W3C//DTD SVG 1.1//EN" "http://www.w3.org/Graphics/SVG/1.1/DTD/svg11.dtd"><svg t="1669349669882" class="icon" viewBox="0 0 1024 1024" version="1.1" xmlns="http://www.w3.org/2000/svg" p-id="14479" xmlns:xlink="http://www.w3.org/1999/xlink" width="64" height="64"><path d="M989.866667 989.866667H34.133333c-10.24 0-17.066667-6.826667-17.066666-17.066667V955.733333c0-10.24 6.826667-17.066667 17.066666-17.066666s17.066667 6.826667 17.066667 17.066666h921.6c0-10.24 6.826667-17.066667 17.066667-17.066666s17.066667 6.826667 17.066666 17.066666v17.066667c0 10.24-6.826667 17.066667-17.066666 17.066667zM989.866667 614.4c-10.24 0-17.066667-6.826667-17.066667-17.066667V580.266667h-921.6v3.413333c0 10.24-6.826667 17.066667-17.066667 17.066667s-17.066667-6.826667-17.066666-17.066667v-20.48c0-10.24 6.826667-17.066667 17.066666-17.066667h955.733334c10.24 0 17.066667 6.826667 17.066666 17.066667v34.133333c0 10.24-6.826667 17.066667-17.066666 17.066667z" fill="#b1102b" p-id="14480"></path><path d="M136.533333 580.266667c-3.413333 0-6.826667 0-10.24-3.413334-6.826667-6.826667-10.24-17.066667-3.413333-23.893333l273.066667-409.6c3.413333-6.826667 13.653333-10.24 23.893333-3.413333s10.24 17.066667 3.413333 23.893333l-273.066666 409.6c-3.413333 3.413333-6.826667 6.826667-13.653334 6.826667zM853.333333 580.266667c-6.826667 0-10.24-3.413333-13.653333-6.826667l-273.066667-426.666667c-3.413333-6.826667-3.413333-17.066667 6.826667-23.893333 6.826667-6.826667 17.066667-3.413333 23.893333 6.826667l273.066667 426.666666c3.413333 6.826667 3.413333 17.066667-6.826667 23.893334H853.333333z" fill="#b1102b" p-id="14481"></path><path d="M494.933333 238.933333c-58.026667 0-102.4-44.373333-102.4-102.4s44.373333-102.4 102.4-102.4 102.4 44.373333 102.4 102.4-44.373333 102.4-102.4 102.4z m0-170.666666c-37.546667 0-68.266667 30.72-68.266666 68.266666s30.72 68.266667 68.266666 68.266667 68.266667-30.72 68.266667-68.266667-30.72-68.266667-68.266667-68.266666zM102.4 921.6C58.026667 921.6 17.066667 877.226667 17.066667 832.853333v-129.706666C17.066667 658.773333 58.026667 614.4 102.4 614.4s85.333333 40.96 85.333333 85.333333c0 10.24-6.826667 17.066667-17.066666 17.066667s-17.066667-6.826667-17.066667-17.066667c0-27.306667-23.893333-51.2-51.2-51.2-23.893333 0-51.2 27.306667-51.2 54.613334v129.706666c0 27.306667 27.306667 54.613333 51.2 54.613334 27.306667 0 51.2-23.893333 51.2-51.2 0-10.24 6.826667-17.066667 17.066667-17.066667s17.066667 6.826667 17.066666 17.066667C187.733333 880.64 146.773333 921.6 102.4 921.6zM989.866667 921.6h-136.533334c-10.24 0-17.066667-6.826667-17.066666-17.066667v-273.066666c0-10.24 6.826667-17.066667 17.066666-17.066667h136.533334c10.24 0 17.066667 6.826667 17.066666 17.066667s-6.826667 17.066667-17.066666 17.066666h-119.466667v238.933334H989.866667c10.24 0 17.066667 6.826667 17.066666 17.066666s-6.826667 17.066667-17.066666 17.066667z" fill="#b1102b" p-id="14482"></path><path d="M955.733333 785.066667h-102.4c-10.24 0-17.066667-6.826667-17.066666-17.066667s6.826667-17.066667 17.066666-17.066667h102.4c10.24 0 17.066667 6.826667 17.066667 17.066667s-6.826667 17.066667-17.066667 17.066667zM375.466667 921.6H238.933333c-10.24 0-17.066667-6.826667-17.066666-17.066667v-273.066666c0-10.24 6.826667-17.066667 17.066666-17.066667s17.066667 6.826667 17.066667 17.066667V887.466667H375.466667c10.24 0 17.066667 6.826667 17.066666 17.066666s-6.826667 17.066667-17.066666 17.066667zM477.866667 921.6c-47.786667 0-85.333333-37.546667-85.333334-85.333333v-136.533334c0-47.786667 37.546667-85.333333 85.333334-85.333333s85.333333 37.546667 85.333333 85.333333v136.533334c0 47.786667-37.546667 85.333333-85.333333 85.333333z m0-273.066667c-30.72 0-51.2 20.48-51.2 51.2v136.533334c0 30.72 20.48 51.2 51.2 51.2s51.2-20.48 51.2-51.2v-136.533334c0-30.72-20.48-51.2-51.2-51.2zM679.253333 921.6c-44.373333 0-78.506667-37.546667-81.92-85.333333 0-10.24 6.826667-17.066667 17.066667-17.066667s17.066667 6.826667 17.066667 17.066667c0 23.893333 17.066667 51.2 47.786666 51.2 30.72 0 54.613333-23.893333 54.613334-51.2 0-34.133333-30.72-44.373333-54.613334-51.2h-3.413333c-51.2-13.653333-75.093333-40.96-75.093333-85.333334 0-47.786667 34.133333-85.333333 81.92-85.333333 44.373333 0 85.333333 40.96 88.746666 85.333333 0 10.24-6.826667 17.066667-17.066666 17.066667s-17.066667-6.826667-17.066667-17.066667c-3.413333-27.306667-27.306667-51.2-54.613333-51.2s-47.786667 20.48-47.786667 51.2c0 34.133333 23.893333 44.373333 47.786667 51.2h6.826666c54.613333 13.653333 81.92 40.96 81.92 85.333334-3.413333 47.786667-44.373333 85.333333-92.16 85.333333z" fill="#b1102b" p-id="14483"></path></svg>