<?xml version="1.0" standalone="no"?><!DOCTYPE svg PUBLIC "-//W3C//DTD SVG 1.1//EN" "http://www.w3.org/Graphics/SVG/1.1/DTD/svg11.dtd"><svg t="1670322669063" class="icon" viewBox="0 0 1024 1024" version="1.1" xmlns="http://www.w3.org/2000/svg" p-id="17672" xmlns:xlink="http://www.w3.org/1999/xlink" width="16" height="16"><path d="M512 64C213.3 64 64 213.3 64 512s149.3 448 448 448 448-149.4 448-448c0-298.7-149.3-448-448-448z m0 803.2c-236.8 0-355.3-118.4-355.3-355.3 0-236.8 118.4-355.2 355.3-355.2s355.3 118.4 355.3 355.2c-0.1 236.9-118.5 355.3-355.3 355.3z m185.3-555.8c-22.5-22.5-59-22.5-81.5 0L503.7 423.5 391.6 311.4c-22.5-22.5-59-22.5-81.5 0-22.5 22.6-22.5 59 0 81.5L422.2 505 310 617.2c-22.5 22.5-22.5 59 0 81.5 22.5 22.6 59 22.6 81.5 0l112.1-112.1 112.1 112.1c22.5 22.6 59 22.6 81.5 0 22.5-22.5 22.5-59 0-81.5l-112-112.1L697.3 393c22.5-22.6 22.5-59 0-81.6z" fill="#b1102b" p-id="17673"></path></svg>