<?xml version="1.0" standalone="no"?><!DOCTYPE svg PUBLIC "-//W3C//DTD SVG 1.1//EN" "http://www.w3.org/Graphics/SVG/1.1/DTD/svg11.dtd"><svg t="1670030577470" class="icon" viewBox="0 0 1024 1024" version="1.1" xmlns="http://www.w3.org/2000/svg" p-id="14428" xmlns:xlink="http://www.w3.org/1999/xlink" width="64" height="64"><path d="M647.971299 839.844793c15.030321 0 27.241434-12.196787 27.241434-27.240411L675.212734 485.705124c0-15.043624-12.211113-27.241434-27.241434-27.241434s-27.241434 12.19781-27.241434 27.241434l0 326.899258C620.729865 827.648007 632.939955 839.844793 647.971299 839.844793zM511.763105 839.844793c15.030321 0 27.240411-12.196787 27.240411-27.240411L539.003516 485.705124c0-15.043624-12.21009-27.241434-27.240411-27.241434-15.031345 0-27.242458 12.19781-27.242458 27.241434l0 326.899258C484.52167 827.648007 496.73176 839.844793 511.763105 839.844793zM375.555933 839.844793c15.030321 0 27.241434-12.196787 27.241434-27.240411L402.797367 485.705124c0-15.043624-12.211113-27.241434-27.241434-27.241434-15.031345 0-27.242458 12.19781-27.242458 27.241434l0 326.899258C348.313475 827.648007 360.524588 839.844793 375.555933 839.844793zM811.418882 186.048323 647.971299 186.048323l0-54.482869c0-30.088272-24.39562-54.482869-54.482869-54.482869L430.038802 77.082586c-30.088272 0-54.482869 24.394596-54.482869 54.482869l0 54.482869L212.106304 186.048323c-30.088272 0-54.482869 24.39562-54.482869 54.483892l0 54.482869c0 30.087249 24.394596 54.482869 54.482869 54.482869l0 490.346841c0 60.177568 48.790216 108.965737 108.966761 108.965737l381.381104 0c60.175521 0 108.964714-48.789193 108.964714-108.965737L811.418882 349.497952c30.089295 0 54.482869-24.39562 54.482869-54.482869L865.901751 240.531192C865.902774 210.443943 841.509201 186.048323 811.418882 186.048323zM430.038802 158.806889c0-15.043624 12.211113-27.241434 27.241434-27.241434l108.966761 0c15.030321 0 27.241434 12.19781 27.241434 27.241434l0 27.241434c-26.41665 0-163.449629 0-163.449629 0L430.038802 158.806889zM756.936013 839.844793c0 30.087249-24.393573 54.482869-54.481845 54.482869L321.073064 894.327662c-30.088272 0-54.483892-24.39562-54.483892-54.482869L266.589173 349.497952l490.346841 0L756.936013 839.844793zM784.177448 295.015084 239.347738 295.015084c-15.030321 0-27.241434-12.19781-27.241434-27.242458 0-15.043624 12.211113-27.241434 27.241434-27.241434l544.829709 0c15.030321 0 27.241434 12.19781 27.241434 27.241434C811.418882 282.817274 799.208792 295.015084 784.177448 295.015084z" p-id="14429" fill="#b1102b"></path></svg>