<?xml version="1.0" standalone="no"?><!DOCTYPE svg PUBLIC "-//W3C//DTD SVG 1.1//EN" "http://www.w3.org/Graphics/SVG/1.1/DTD/svg11.dtd"><svg t="1670393118175" class="icon" viewBox="0 0 1024 1024" version="1.1" xmlns="http://www.w3.org/2000/svg" p-id="1792" xmlns:xlink="http://www.w3.org/1999/xlink" width="16" height="16"><path d="M166.532384 1024a47.357783 47.357783 0 0 1-23.2146-6.19056 46.429199 46.429199 0 0 1-21.666959-28.786103L81.102658 827.449726a46.119671 46.119671 0 0 1 4.64292-34.357607l411.053172-711.91438a162.192667 162.192667 0 0 1 281.051416 162.192668l-411.053172 711.914379a44.572031 44.572031 0 0 1-27.547991 21.357431L179.223031 1021.523776a43.333919 43.333919 0 0 1-12.690647 2.476224z m160.025971-92.858397H327.177411zM175.508695 823.116334l24.452712 96.572733L296.224612 892.450604 698.611 196.941208a69.33427 69.33427 0 1 0-120.09686-69.33427z" fill="#b1102b" p-id="1793" data-spm-anchor-id="a313x.7781069.0.i0" class=""></path><path d="M691.491856 346.443228A49.214951 49.214951 0 0 1 667.658201 340.562196l-199.955082-116.072997A46.429199 46.429199 0 0 1 512.894205 144.011922l200.574139 115.763468a46.429199 46.429199 0 0 1-23.2146 86.667838z" fill="#b1102b" p-id="1794" data-spm-anchor-id="a313x.7781069.0.i1" class=""></path><path d="M897.947026 1024H574.799804a46.429199 46.429199 0 1 1 0-92.858397h323.147222a46.429199 46.429199 0 0 1 0 92.858397z" fill="#b1102b" p-id="1795" data-spm-anchor-id="a313x.7781069.0.i2" class="selected"></path></svg>