<?xml version="1.0" standalone="no"?><!DOCTYPE svg PUBLIC "-//W3C//DTD SVG 1.1//EN" "http://www.w3.org/Graphics/SVG/1.1/DTD/svg11.dtd"><svg t="1668985837672" class="icon" viewBox="0 0 1024 1024" version="1.1" xmlns="http://www.w3.org/2000/svg" p-id="4702" xmlns:xlink="http://www.w3.org/1999/xlink" width="64" height="64"><path d="M704 288c-1.984 85.6-66.24 157.888-66.24 157.888 0-159.232-125.76-285.888-125.76-285.888s-1.696 94.784-65.376 190.336c-63.68-222.944-254.784-350.336-254.784-350.336 95.552 350.336-31.84 477.76-31.84 732.544 0 149.472 126.528 291.456 320 291.456 286.624 0 342.048-105.216 371.68-223.776 40.832-163.232-20.32-352.992-147.68-512.224zM789.632 784.672c-20.576 82.208-43.808 175.328-309.632 175.328-160.256 0-256-115.648-256-227.456 0-85.632 15.616-155.936 32.128-230.368 20.992-94.368 42.496-190.976 33.184-318.752 98.688 136.608 133.824 317.6 133.824 317.6s91.872-128.992 116.576-188.896c18.912 38.496 36.288 167.872 36.288 295.872 0 0 84.992-70.016 148.736-175.296 67.136 120.384 91.328 246.24 64.896 351.968zM717.824 537.44l5.952 33.12c13.312 74.176 5.856 161.856-18.944 223.424-2.496 6.24-8.512 10.016-14.816 10.016-2.016 0-4.064-0.384-6.016-1.152-8.192-3.296-12.192-12.608-8.864-20.8 18.688-46.368 26.56-111.648 21.568-171.296-32.128 35.904-72.608 73.312-159.104 114.4l-16.192 7.648-5.824-16.896c-11.584-33.6-23.264-67.552-28.32-114.88-17.312 27.296-33.12 51.616-59.68 87.776l-16.256 22.144-11.264-25.088c-27.552-61.6-48.544-109.696-65.184-152-15.392 49.44-26.88 106.624-26.88 222.112 0 8.832-7.2 16-16 16-8.864 0-16-7.168-16-16 0-150.688 20-208.736 41.12-270.208l16.64-48.32 15.328 43.2c16.48 46.432 38.176 97.6 68.864 166.784 20.224-28.576 33.792-50.08 50.176-76.032l48.576-76.096 0 54.688c0 61.568 11.072 101.792 23.264 138.336 85.088-42.816 116.96-80.064 150.656-119.36l27.2-31.52z" p-id="4703" data-spm-anchor-id="a313x.7781069.0.i1" class="selected" fill="#b1102b"></path></svg>