<?xml version="1.0" standalone="no"?><!DOCTYPE svg PUBLIC "-//W3C//DTD SVG 1.1//EN" "http://www.w3.org/Graphics/SVG/1.1/DTD/svg11.dtd"><svg t="1669415733489" class="icon" viewBox="0 0 1024 1024" version="1.1" xmlns="http://www.w3.org/2000/svg" p-id="5441" xmlns:xlink="http://www.w3.org/1999/xlink" width="64" height="64"><path d="M468.142942 942.243756H120.790405c-12.905723 0-24.66547-5.981871-32.269307-16.413647-7.605837-10.435776-9.699792-23.471496-5.747876-35.765231 39.463152-122.689364 159.812567-208.377523 292.665712-208.377524 61.816672 0 121.179397 18.6156 171.672312 53.830844 18.085611 12.613729 42.969077 8.179824 55.588805-9.905787 12.611729-18.085611 8.177824-42.971077-9.907787-55.586806a379.403849 379.403849 0 0 0-79.632289-42.513087c37.165202-33.791274 61.820672-81.108257 66.10458-134.093119 56.352789-54.894821 130.219202-84.974174 209.403501-84.974174 61.816672 0 121.179397 18.6156 171.672312 53.830843 18.085611 12.613729 42.971077 8.179824 55.588805-9.905787 12.611729-18.085611 8.177824-42.971077-9.907787-55.586806a379.403849 379.403849 0 0 0-79.632289-42.513086c40.997119-37.275199 66.770565-91.010045 66.770566-150.652764C993.161663 91.344038 901.817625 0 789.542037 0c-112.277588 0-203.619625 91.344038-203.619625 203.621625 0 59.400724 25.567451 112.943573 66.276576 150.200773a380.73182 380.73182 0 0 0-16.589644 6.839853 379.059856 379.059856 0 0 0-70.322489 40.365133c-30.135353-74.828392-103.489777-127.783255-188.97594-127.783254-112.277588 0-203.619625 91.344038-203.619625 203.621625 0 59.226728 25.419454 112.62958 65.918584 149.87278-108.293673 40.583128-196.101787 127.737256-231.849019 238.882868-11.855745 36.861208-5.57588 75.950368 17.23163 107.243696 22.80351 31.289328 58.082752 49.234942 96.79992 49.234942h347.352537c22.051526 0 39.925142-17.875616 39.925142-39.925142s-17.877616-39.931142-39.927142-39.931143zM789.544037 79.850284c68.246534 0 123.769341 55.522807 123.769341 123.769341s-55.522807 123.769341-123.769341 123.769341-123.769341-55.522807-123.769341-123.769341 55.522807-123.769341 123.769341-123.769341zM376.312915 353.092414c68.246534 0 123.769341 55.522807 123.769341 123.769341s-55.522807 123.769341-123.769341 123.769341-123.769341-55.522807-123.769341-123.769341 55.522807-123.769341 123.769341-123.769341z" p-id="5442" fill="#b1102b"></path><path d="M1006.423378 652.149989c-17.929615-12.835724-42.871079-8.707813-55.704804 9.223802l-196.795772 274.888094c-5.373885 6.231866-12.10974 7.577837-15.717662 7.817832-3.71392 0.253995-10.925765-0.227995-17.109632-6.113869l-127.403263-122.333371c-15.907658-15.275672-41.185115-14.757683-56.450787 1.145975-15.273672 15.903658-14.759683 41.179115 1.143975 56.450787l127.53126 122.453369c19.09959 18.181609 44.595042 28.297392 70.826479 28.297392a100.957831 100.957831 0 0 0 6.773854-0.225995c28.575386-1.903959 55.254813-15.799661 73.196427-38.123181 0.46599-0.577988 0.90998-1.167975 1.343972-1.769962l197.593754-276.00607c12.831724-17.929615 8.703813-42.869079-9.227801-55.704803z" p-id="5443" fill="#b1102b"></path></svg>