<?xml version="1.0" standalone="no"?><!DOCTYPE svg PUBLIC "-//W3C//DTD SVG 1.1//EN" "http://www.w3.org/Graphics/SVG/1.1/DTD/svg11.dtd"><svg t="1670434909488" class="icon" viewBox="0 0 1024 1024" version="1.1" xmlns="http://www.w3.org/2000/svg" p-id="2532" xmlns:xlink="http://www.w3.org/1999/xlink" width="16" height="16"><path d="M512 945.792a63.776 63.776 0 0 1-45.248-18.72L137.408 597.728C33.856 494.208 16.416 334.592 95.968 218.336c43.168-63.136 105.28-100.16 179.616-107.072 81.216-7.52 167.68 22.144 236.416 80.288 68.736-58.112 155.264-87.808 236.416-80.288 74.336 6.912 136.448 43.936 179.616 107.072 79.552 116.288 62.112 275.872-41.44 379.392L557.248 927.072c-12.48 12.448-28.864 18.72-45.248 18.72zM300.192 174.112a212.48 212.48 0 0 0-18.688 0.832c-54.752 5.12-100.64 32.576-132.736 79.488-62.144 90.912-47.904 216.256 33.888 298.016L512 881.824l329.344-329.344c81.792-81.792 96.032-207.136 33.888-298.016-32.064-46.912-77.984-74.368-132.704-79.456-70.752-6.432-150.336 25.056-207.872 82.624a31.968 31.968 0 0 1-45.248 0c-52.544-52.576-123.488-83.52-189.216-83.52z" p-id="2533" fill="#b1102b"></path><path d="M250.56 516.608a31.904 31.904 0 0 1-22.624-9.376C168.864 448.16 157.568 355.008 201.6 290.56c23.808-34.816 57.024-52.48 98.752-52.48a32 32 0 1 1 0 64c-20.672 0-33.984 7.136-45.92 24.608-26.976 39.456-18.944 97.632 18.72 135.296a31.968 31.968 0 0 1-22.592 54.624z" p-id="2534" fill="#b1102b"></path></svg>