<?xml version="1.0" standalone="no"?><!DOCTYPE svg PUBLIC "-//W3C//DTD SVG 1.1//EN" "http://www.w3.org/Graphics/SVG/1.1/DTD/svg11.dtd"><svg t="1668653228775" class="icon" viewBox="0 0 1024 1024" version="1.1" xmlns="http://www.w3.org/2000/svg" p-id="13397" xmlns:xlink="http://www.w3.org/1999/xlink" width="64" height="64"><path d="M662.56 1020a32 32 0 0 1-28.48-46.624c76.832-149.6 38.688-351.712-80.416-473.568-5.856 66.112-29.952 151.712-87.008 215.232a32 32 0 0 1-55.2-27.552 181.12 181.12 0 0 0 3.2-26.528 474.368 474.368 0 0 1-37.728 66.176c-43.52 63.584-74.784 126.08-16.672 247.008a32 32 0 0 1-44.576 41.728c-106.048-59.776-173.248-118.112-211.456-183.616-37.408-64.16-46.592-133.888-28.928-219.456 10.976-53.12 34.624-100.448 57.472-146.208 26.144-52.352 50.848-101.824 54.304-154.912a31.968 31.968 0 0 1 59.968-13.312c18.304 33.344 28.128 61.6 33.888 90.848 98.08-135.232 140.448-252.224 126.048-348.448A32 32 0 0 1 448.224 5.504c7.552 2.368 168.384 55.488 259.2 286.112-0.064-22.56-4.896-45.888-13.44-64.576a32 32 0 0 1 47.968-39.168c24.288 17.696 80.96 75.552 129.696 155.328 42.528 69.664 91.808 177.6 84.96 296.064-8.672 150.304-102.304 277.024-278.336 376.608a32 32 0 0 1-15.744 4.16zM222.112 427.36c-9.76 23.168-20.992 45.632-32.064 67.808-22.016 44.032-42.784 85.632-52.064 130.56-20.704 100.192-4.064 189.28 132.864 286.496-21.216-99.136 15.136-165.536 53.248-221.248 48.96-71.552 61.952-142.144 62.08-142.88a31.968 31.968 0 0 1 56.864-13.888c1.088 1.44 15.424 20.448 25.6 52.768 22.08-59.456 26.464-121.6 19.968-150.848a32 32 0 0 1 49.568-33.184c86.912 60.768 153.664 159.488 183.04 270.912 21.12 80.032 22.336 160.896 4.384 235.36 105.056-78.176 161.184-169.92 167.168-273.664 7.328-126.912-63.04-250.336-122.144-325.92-2.88 37.472-15.904 74.368-44.8 100.096a32 32 0 0 1-52.224-15.744c-48.576-184.256-143.872-269.248-200.064-304.832-3.904 116.864-67.968 252.032-191.072 402.848-8.352 10.208-22.08 14.272-34.656 10.208s-21.312-15.392-22.08-28.576a859.648 859.648 0 0 0-3.584-46.272z" fill="#b1102b" p-id="13398"></path></svg>