    <svg className="ml-1" viewBox="0 0 1024 1024" width="20" height="20">
      <path
        d="M271 957c-4.2 0-8.6-0.4-12.4-0.8l-89.8-12.4c-43-5.8-82-44.4-88.6-88.2l-12.4-90.8c-4.2-29 8.2-66.6 29-87.8l181.8-181.8c-29.4-117.6 4.6-242 91.2-327.6 134.2-133.8 352.4-134.2 487.2 0 65 65 100.6 151.6 100.6 243.6s-35.6 178.6-100.6 243.6c-87 86.2-210.8 120.2-327.6 90.2l-182.2 181.8c-17.8 18.2-49 30.2-76.2 30.2z m341.6-828c-72.4 0-144.6 27.4-199.6 82.4-74.6 74.2-101.4 182.6-70.4 283.8 3.4 11.2 0.4 22.8-7.8 31L140 720.8c-7 7-12.8 25.2-11.6 34.8l12.4 90.8c2.4 15.8 19.4 33.6 35.2 35.6l90.2 12.4c10 1.6 28.2-4.2 35.2-11.2l195.6-195c8.2-8.2 20.2-10.8 31-7.4 99.8 31.4 208.8 4.6 283.4-70 53-53 82.4-124.2 82.4-199.6 0-75.8-29.4-146.6-82.4-199.6-53.8-54.8-126.2-82.6-198.8-82.6z"
        p-id="3773"
        fill="currentColor"
      ></path>
      <path
        d="M395.6 865.4c-7.8 0-15.8-2.8-22-9.2l-95.2-95.2c-12-12-12-31.8 0-44 12-12 31.8-12 44 0l95.2 95.2c12 12 12 31.8 0 44-6.2 6.4-14.2 9.2-22 9.2zM615.6 501.4c-51.4 0-93.2-41.8-93.2-93.2s41.8-93.2 93.2-93.2 93.2 41.8 93.2 93.2-41.8 93.2-93.2 93.2z m0-124.4c-17 0-31 14-31 31s14 31 31 31 31-14 31-31-14-31-31-31z"
        p-id="3774"
        fill="currentColor"
      ></path>
    </svg>