<?xml version="1.0" standalone="no"?><!DOCTYPE svg PUBLIC "-//W3C//DTD SVG 1.1//EN" "http://www.w3.org/Graphics/SVG/1.1/DTD/svg11.dtd"><svg t="1668985916828" class="icon" viewBox="0 0 1024 1024" version="1.1" xmlns="http://www.w3.org/2000/svg" p-id="8821" xmlns:xlink="http://www.w3.org/1999/xlink" width="64" height="64"><path d="M329.865084 412.020687c-11.335793 0-20.240424 8.906437-20.240424 19.83222v100.374873c-28.328646-37.36513-56.659098-74.737485-84.996775-112.10984-5.259693-7.282651-14.164323-10.122018-22.662556-7.282651-8.097253 2.830336-13.76515 10.519385-13.76515 19.015811v161.088921c0 10.925783 8.906437 20.238618 20.240424 20.238618 11.335793 0 20.24223-9.312835 20.24223-20.238618v-100.775853c28.328646 37.504209 56.657292 75.004805 84.996776 112.509013 4.044111 5.266917 10.109375 8.505457 16.185475 8.505458 2.022959 0 4.452315-0.41001 6.473468-1.215582 8.097253-2.837561 13.76515-10.519385 13.76515-19.023036v-161.088921c0.001806-10.923977-8.902824-19.830414-20.238618-19.830413zM491.759576 451.287759c11.335793 0 20.240424-8.904631 20.240424-20.240424s-8.904631-20.24223-20.240424-20.24223H410.806912c-11.326762 0-20.231393 8.906437-20.231393 20.24223v161.894492c0 11.333987 8.904631 20.238618 20.231393 20.238618h80.952664c11.335793 0 20.240424-8.904631 20.240424-20.238618s-8.904631-20.240424-20.240424-20.240424h-60.712241v-40.471816h60.712241c11.335793 0 20.240424-8.906437 20.240424-20.231393 0-11.333987-8.904631-20.238618-20.240424-20.238618h-60.712241v-40.471817h60.712241z" fill="#b1102b" p-id="8822" data-spm-anchor-id="a313x.7781069.0.i8" class="selected"></path><path d="M935.096385 505.271856a200.982749 200.982749 0 0 1 7.237496 6.726338c-1.986834 1.954323-4.425222 4.219314-7.237496 6.719112a594.421116 594.421116 0 0 1-8.826963 7.670987c-1.388978 1.069278-2.759894 2.1512-4.114553 3.256603-1.638235 1.318536-3.25299 2.655133-4.858714 4.018824a259.619651 259.619651 0 0 0-10.804766 9.739101c-1.788151 1.701453-3.55824 3.437224-5.304848 5.198281-1.768283 1.788151-3.514891 3.61062-5.232599 5.467407a189.298357 189.298357 0 0 0-8.460303 9.748132 169.386664 169.386664 0 0 0-5.172994 6.735369 138.137371 138.137371 0 0 0-5.234405 7.759491 114.109318 114.109318 0 0 0-2.664165 4.48844 98.113495 98.113495 0 0 0-2.689451 5.059203 85.542252 85.542252 0 0 0-1.35466 2.812273 117.739807 117.739807 0 0 0-1.343822 3.047082 97.412684 97.412684 0 0 0-2.629847 6.95392c-0.314281 0.937425-0.62495 1.882074-0.93923 2.821305l-0.727904 2.891747a103.622445 103.622445 0 0 0-1.448583 6.776912 97.233869 97.233869 0 0 0-0.964518 6.433731 111.9527 111.9527 0 0 0-0.570763 6.213373 122.768304 122.768304 0 0 0 0.061411 16.331779c0.10476 1.614755 0.242033 3.227703 0.408204 4.844263a150.511737 150.511737 0 0 0 1.197519 9.009391c0.442522 2.749056 0.953681 5.501725 1.528057 8.236332 0.540058 2.559404 1.128883 5.102552 1.753833 7.6457 0.599663 2.386007 1.224612 4.773821 1.882074 7.141766a366.227766 366.227766 0 0 0 3.906839 13.037246c0.633981 2.004897 1.284218 4.009793 1.943485 6.005659 0.798346 2.447419 1.614755 4.885806 2.423938 7.335031l1.742995 5.225375c0.52922 1.605723 1.058441 3.202416 1.580437 4.808139 0.814602 2.517861 1.621979 5.033916 2.384201 7.560808 0.565345 1.8315 1.103596 3.672031 1.616561 5.519787-2.275828 0.62495-4.81717 1.267962-7.577064 1.936261-3.644938 0.866982-7.672793 1.777314-12.029379 2.750862-2.960383 0.493096-5.909929 0.987999-8.859475 1.508188-3.532953 0.635787-7.056875 1.295055-10.564541 2.013928-3.896002 0.798346-7.784778 1.676166-11.637431 2.656939a192.182879 192.182879 0 0 0-12.854818 3.733443c-2.331821 0.773059-4.66003 1.596692-6.961146 2.481736a139.015191 139.015191 0 0 0-7.335031 3.047082 123.526913 123.526913 0 0 0-7.741429 3.784016 122.327588 122.327588 0 0 0-8.142409 4.739503 112.951536 112.951536 0 0 0-10.015451 7.179697 105.585799 105.585799 0 0 0-16.125871 16.125871 112.509013 112.509013 0 0 0-7.177891 10.015452 116.964941 116.964941 0 0 0-4.739503 8.149633 127.630629 127.630629 0 0 0-3.793047 7.734204 146.606704 146.606704 0 0 0-3.039857 7.335032 171.528832 171.528832 0 0 0-2.490768 6.959339 200.710011 200.710011 0 0 0-2.039214 6.607127 235.103921 235.103921 0 0 0-3.115718 12.193745c-0.433491 1.901942-0.83447 3.793047-1.224613 5.693184a410.250598 410.250598 0 0 0-2.013927 10.562734 964.631582 964.631582 0 0 0-1.509994 8.861281 769.813438 769.813438 0 0 1-2.759894 12.029379 275.633536 275.633536 0 0 1-1.752027 6.952115 152.751441 152.751441 0 0 1-4.02063-0.946456c-1.468451-0.361243-2.924259-0.74416-4.372842-1.15417a233.749261 233.749261 0 0 1-6.970176-2.039215 378.528077 378.528077 0 0 1-7.549971-2.429356 604.210791 604.210791 0 0 0-11.586857-3.740668 432.136482 432.136482 0 0 0-12.473707-3.679256 338.000268 338.000268 0 0 0-6.54391-1.755639 259.780404 259.780404 0 0 0-13.86088-3.166292 188.243528 188.243528 0 0 0-7.488559-1.327566 169.341508 169.341508 0 0 0-8.097253-1.060247 137.152985 137.152985 0 0 0-9.034678-0.652043 115.435079 115.435079 0 0 0-10.510354 0.072248 98.668003 98.668003 0 0 0-12.827726 1.491932c-1.231837 0.216746-2.463675 0.467809-3.688287 0.745966-1.311311 0.294413-2.620815 0.617725-3.923095 0.962712-1.398009 0.382917-2.785181 0.791121-4.165127 1.242675-0.581601 0.182428-1.155976 0.37208-1.737577 0.570763-0.467809 0.166172-0.946456 0.332343-1.414265 0.503933-1.788151 0.641206-3.549209 1.334791-5.295817 2.082564-1.614755 0.686361-3.209641 1.414265-4.790077 2.176487a124.43002 124.43002 0 0 0-4.363811 2.248735c-1.345629 0.738741-2.691258 1.500963-4.011599 2.283053a130.054567 130.054567 0 0 0-7.170666 4.611263 141.697417 141.697417 0 0 0-6.307296 4.632936 151.82666 151.82666 0 0 0-5.702215 4.641968 189.881764 189.881764 0 0 0-10.199685 9.356184c-1.587661 1.562374-3.150036 3.142811-4.694348 4.748534-1.528056 1.57863-3.029019 3.18616-4.513726 4.808139a299.732031 299.732031 0 0 0-6.587259 7.428954 401.138253 401.138253 0 0 0-7.74143 9.312835 656.728243 656.728243 0 0 1-8.315805 9.57293 210.432856 210.432856 0 0 1-6.717306 7.239302 201.188658 201.188658 0 0 1-6.726338-7.239302 618.749 618.749 0 0 1-7.672793-8.826964 240.461149 240.461149 0 0 0-7.271814-8.966042 253.455046 253.455046 0 0 0-14.928351-16.107808 241.06623 241.06623 0 0 0-5.467407-5.24163 213.055478 213.055478 0 0 0-5.816006-5.182026 194.339498 194.339498 0 0 0-3.941157-3.280083 157.061066 157.061066 0 0 0-10.448943-7.775747 128.687264 128.687264 0 0 0-8.52352-5.294011 108.463096 108.463096 0 0 0-7.880507-4.045917 124.493237 124.493237 0 0 0-3.047082-1.343822 95.268709 95.268709 0 0 0-6.943083-2.620816c-0.946456-0.321506-1.88388-0.633981-2.830336-0.946455-0.962712-0.242033-1.927229-0.485871-2.889941-0.718873a100.512146 100.512146 0 0 0-6.769687-1.457614 101.140708 101.140708 0 0 0-6.44818-0.964518 108.269831 108.269831 0 0 0-6.276591-0.570763 119.39791 119.39791 0 0 0-11.144335-0.184234c-1.701453 0.043349-3.401099 0.131854-5.111583 0.245645-1.614755 0.102954-3.236734 0.242033-4.853294 0.406398a162.147362 162.147362 0 0 0-9.025647 1.197519c-2.759894 0.451553-5.519787 0.964518-8.254394 1.546119-2.56121 0.536445-5.111583 1.11624-7.6457 1.752026-2.396845 0.590632-4.773821 1.224612-7.143573 1.885687-2.248735 0.623144-4.48844 1.27338-6.726337 1.941679a525.223286 525.223286 0 0 0-12.325598 3.905033c-2.447419 0.798346-4.894837 1.616561-7.342256 2.431162-1.640041 0.549089-3.289114 1.092759-4.929156 1.632817-1.57863 0.520189-3.159067 1.022317-4.739503 1.537087-2.543148 0.805571-5.093521 1.594886-7.654731 2.349884-1.918198 0.57257-3.843621 1.112627-5.770851 1.632816-0.615919-2.239704-1.242675-4.730472-1.892911-7.428954a802.139234 802.139234 0 0 1-2.750863-12.029379 762.180381 762.180381 0 0 0-1.519025-8.861282c-0.62495-3.522116-1.284218-7.046037-2.004897-10.562734a255.615277 255.615277 0 0 0-2.656939-11.639237 192.079925 192.079925 0 0 0-3.731636-12.854819 154.899028 154.899028 0 0 0-2.481737-6.959339 137.754454 137.754454 0 0 0-3.047082-7.335031 131.92761 131.92761 0 0 0-3.784016-7.734205 118.512866 118.512866 0 0 0-4.746728-8.149633 110.961089 110.961089 0 0 0-7.177891-10.015452 105.4991 105.4991 0 0 0-16.116839-16.12587 112.686022 112.686022 0 0 0-10.015452-7.179697 122.53169 122.53169 0 0 0-8.15144-4.739503 121.624971 121.624971 0 0 0-7.741429-3.784017 140.268702 140.268702 0 0 0-7.326-3.047081 152.736991 152.736991 0 0 0-6.96837-2.481737 166.471436 166.471436 0 0 0-6.59629-2.041021 198.221049 198.221049 0 0 0-6.249498-1.692421 233.77816 233.77816 0 0 0-5.953278-1.432327 317.683983 317.683983 0 0 0-5.693184-1.224613 435.70014 435.70014 0 0 0-10.562734-2.013927 952.311402 952.311402 0 0 0-8.85225-1.508188 892.334291 892.334291 0 0 1-12.029379-2.750863c-2.830336-0.686361-5.416833-1.345629-7.743236-1.981416 0.364855-1.230031 0.738741-2.472706 1.110821-3.695512 0.435297-1.390784 0.868788-2.768925 1.311311-4.148871a826.703732 826.703732 0 0 1 2.10785-6.395801c0.939231-2.823111 1.882074-5.633579 2.82853-8.454883a1330.702208 1330.702208 0 0 0 3.688287-11.212971 438.602725 438.602725 0 0 0 3.195191-10.277353 287.005454 287.005454 0 0 0 3.115718-11.290638 220.222531 220.222531 0 0 0 2.805049-12.629042c0.435297-2.30834 0.816408-4.627518 1.15417-6.95392a145.075035 145.075035 0 0 0 1.224612-11.500159c0.095729-1.388978 0.166172-2.768925 0.209521-4.157902a120.727283 120.727283 0 0 0-0.433491-15.388936 113.948565 113.948565 0 0 0-0.606888-5.102552 106.198105 106.198105 0 0 0-2.10785-10.875209c-0.243839-0.964518-0.487678-1.927229-0.720679-2.891747-0.312475-0.939231-0.633981-1.88388-0.94465-2.821305a101.352035 101.352035 0 0 0-1.806213-4.974311 107.834534 107.834534 0 0 0-5.946053-12.558599 115.841477 115.841477 0 0 0-4.13081-6.892509 136.038551 136.038551 0 0 0-6.005658-8.565063 162.747024 162.747024 0 0 0-8.368185-10.109375 209.851256 209.851256 0 0 0-4.208477-4.566106 218.257371 218.257371 0 0 0-4.251826-4.329493 233.395243 233.395243 0 0 0-4.289756-4.166934 321.69197 321.69197 0 0 0-11.716904-10.521191 430.772791 430.772791 0 0 0-8.400697-6.95392 635.028398 635.028398 0 0 1-9.563898-8.313999 192.663332 192.663332 0 0 1-7.239302-6.719113c1.986834-1.961547 4.417997-4.217508 7.239302-6.726337a796.169699 796.169699 0 0 1 8.817932-7.672794c1.388978-1.067472 2.759894-2.143975 4.121778-3.245764 1.63101-1.318536 3.245765-2.664164 4.853295-4.026049a247.30489 247.30489 0 0 0 10.804766-9.73007 232.381958 232.381958 0 0 0 10.535641-10.667495 207.412868 207.412868 0 0 0 5.182026-5.8142 176.560942 176.560942 0 0 0 3.289114-3.939351 155.442699 155.442699 0 0 0 5.163963-6.728143c0.885044-1.222806 1.753833-2.463675 2.604559-3.724412 0.903107-1.327567 1.77912-2.671389 2.638878-4.03508 0.919362-1.475676 1.806213-2.967608 2.655133-4.486633a99.708381 99.708381 0 0 0 2.700288-5.059203c0.460584-0.937425 0.910331-1.874849 1.35466-2.819499 0.460584-1.007867 0.912138-2.022959 1.345629-3.047081a91.939859 91.939859 0 0 0 2.622621-6.943083c0.310669-0.946456 0.632175-1.882074 0.94465-2.82853 0.234808-0.962712 0.478646-1.927229 0.720679-2.889941 0.892269-3.576302 1.596692-7.214015 2.107851-10.866178a111.443348 111.443348 0 0 0 0.606887-5.104358 120.73812 120.73812 0 0 0 0.433491-15.387129 128.07857 128.07857 0 0 0-0.52922-8.160471 145.075035 145.075035 0 0 0-0.903107-7.497591 169.993551 169.993551 0 0 0-2.499799-13.452675c-0.451553-2.046439-0.946456-4.08746-1.45942-6.128481a280.559079 280.559079 0 0 0-3.115717-11.290638 427.620949 427.620949 0 0 0-3.195191-10.277352 1269.924943 1269.924943 0 0 0-3.688287-11.212971c-0.894075-2.682226-1.797182-5.355422-2.689452-8.037648a612.147291 612.147291 0 0 1-2.178293-6.596291 347.94889 347.94889 0 0 1-1.856787-5.946053c1.249899-0.242033 2.577466-0.487678 3.973669-0.720679a244.398693 244.398693 0 0 1 12.533313-1.692422c2.691258-0.296219 5.380709-0.590632 8.071966-0.894075 2.559404-0.859757 5.127839-1.710484 7.69808-2.56121 2.03199-0.67733 4.078429-1.309504 6.135706-1.92723 2.351689-0.693586 4.721441-1.361885 7.080355-2.022958 3.603395-0.99703 7.214015-1.970578 10.806573-2.97664 3.063337-0.857951 6.11945-1.72674 9.155694-2.655133 1.676166-0.511158 3.341494-1.031348 5.006823-1.57863a168.772551 168.772551 0 0 0 5.328329-1.833306 149.059542 149.059542 0 0 0 5.756401-2.185518 141.305469 141.305469 0 0 0 6.301877-2.707514 121.160774 121.160774 0 0 0 4.390904-2.127719 110.65042 110.65042 0 0 0 11.308701-6.578228l12.811469-8.541581a10503.707111 10503.707111 0 0 0 8.530744-12.809664 104.428016 104.428016 0 0 0 4.68893-7.723367 118.530928 118.530928 0 0 0 4.026049-7.976237 140.0935 140.0935 0 0 0 2.709319-6.292846c0.771253-1.909167 1.493738-3.829172 2.185518-5.763626a217.856392 217.856392 0 0 0 3.411937-10.335152c0.47684-1.562374 0.937425-3.13378 1.398009-4.71241 0.42446-1.475676 0.841695-2.960383 1.25893-4.443284 0.99703-3.592558 1.968772-7.203178 2.976639-10.797542 0.650237-2.369752 1.318536-4.728666 2.022959-7.091192a186.690185 186.690185 0 0 1 1.920004-6.135706c0.859757-2.568435 1.708678-5.138676 2.568435-7.699886 0.296219-2.689451 0.599663-5.380709 0.894076-8.070161 0.512965-4.584169 1.076503-8.792645 1.694228-12.51525a133.443023 133.443023 0 0 1 0.590631-3.334269c2.073533 0.485871 4.13984 1.024123 6.188086 1.587661 2.335434 0.643012 4.650999 1.327567 6.968371 2.048246 2.517861 0.773059 5.024885 1.580436 7.531908 2.422131 3.845428 1.276993 7.708917 2.535923 11.579632 3.742474 4.148871 1.284218 8.306774 2.525086 12.480933 3.688287 2.178293 0.606888 4.365617 1.188488 6.551135 1.753833a264.984104 264.984104 0 0 0 13.86991 3.168098c2.490768 0.485871 4.990567 0.9302 7.497591 1.318535 2.691258 0.426266 5.38974 0.78209 8.097253 1.067472 3.010957 0.312475 6.021914 0.538252 9.043709 0.652043a126.109798 126.109798 0 0 0 5.033916 0.086698 105.239006 105.239006 0 0 0 5.485469-0.166171c2.022959-0.10476 4.045917-0.26732 6.058038-0.493096a104.857895 104.857895 0 0 0 6.769687-0.998836 87.478512 87.478512 0 0 0 7.595126-1.717709 82.244107 82.244107 0 0 0 4.139841-1.224612c0.581601-0.182428 1.155976-0.381111 1.719514-0.570764 0.467809-0.157141 0.937425-0.330537 1.405234-0.496708a102.878285 102.878285 0 0 0 10.078669-4.260857 108.963417 108.963417 0 0 0 4.381873-2.248735 104.200433 104.200433 0 0 0 4.018824-2.283054 126.998455 126.998455 0 0 0 7.177891-4.607649 151.497929 151.497929 0 0 0 6.31994-4.634743 165.098714 165.098714 0 0 0 5.702215-4.641968 193.129335 193.129335 0 0 0 10.197879-9.365215c1.587661-1.562374 3.160873-3.142811 4.696154-4.748534 1.528056-1.57863 3.029019-3.184354 4.513726-4.808139 2.239704-2.438388 4.436059-4.9129 6.587259-7.42173a363.572633 363.572633 0 0 0 7.74143-9.320059 783.450347 783.450347 0 0 1 8.32303-9.583767 192.619983 192.619983 0 0 1 6.717306-7.228465 212.482908 212.482908 0 0 1 6.717307 7.228465 678.435311 678.435311 0 0 1 7.681824 8.845026 239.400902 239.400902 0 0 0 7.275426 8.966041 247.263347 247.263347 0 0 0 9.728264 10.804767c1.703259 1.788151 3.437224 3.55824 5.200087 5.294011 1.788151 1.77912 3.61062 3.523922 5.467407 5.234405a178.750072 178.750072 0 0 0 5.806975 5.180219c1.300473 1.119852 2.611784 2.212611 3.941157 3.289114a172.695646 172.695646 0 0 0 6.742594 5.172995 134.380448 134.380448 0 0 0 7.768522 5.239824 116.343604 116.343604 0 0 0 9.563899 5.364453c0.9302 0.460584 1.874849 0.910331 2.823111 1.345629a94.873149 94.873149 0 0 0 10.015451 3.977281c0.9302 0.312475 1.856787 0.615919 2.785181 0.928393 0.944649 0.233001 1.892911 0.47684 2.837561 0.711648 2.239704 0.556314 4.504695 1.042185 6.778717 1.457614 2.13675 0.381111 4.28795 0.702617 6.448181 0.962712 2.082564 0.25287 4.175965 0.444328 6.276591 0.572569 3.71538 0.243839 7.447017 0.294413 11.169621 0.191459a129.171329 129.171329 0 0 0 5.147708-0.25287 126.859376 126.859376 0 0 0 4.844263-0.408204 158.907015 158.907015 0 0 0 9.034678-1.197519 176.954697 176.954697 0 0 0 8.252588-1.546119c2.563016-0.527414 5.095327-1.119852 7.63125-1.753833a291.663677 291.663677 0 0 0 13.851848-3.827365 505.33688 505.33688 0 0 0 12.359916-3.914064c2.440194-0.798346 4.887613-1.614755 7.326001-2.431163a912.697537 912.697537 0 0 1 9.652402-3.159067c2.543148-0.807377 5.093521-1.596692 7.654732-2.351689 1.916392-0.565345 3.83459-1.110821 5.77085-1.632817 0.606888 2.248735 1.242675 4.730472 1.882074 7.439792 0.876013 3.644938 1.788151 7.672793 2.759894 12.029379 0.493096 2.949546 0.989805 5.908123 1.509994 8.859476 0.626756 3.523922 1.295055 7.047843 2.013928 10.56454 0.79654 3.896002 1.676166 7.775747 2.656939 11.639237 0.52922 2.091595 1.092759 4.174158 1.683391 6.247691 0.641206 2.214417 1.318536 4.408966 2.039214 6.605321 0.78209 2.333627 1.60753 4.66003 2.483543 6.959339a157.523456 157.523456 0 0 0 3.047082 7.335032 134.781427 134.781427 0 0 0 3.784016 7.734204 122.150579 122.150579 0 0 0 4.748535 8.149634 113.036428 113.036428 0 0 0 7.17789 10.015451 104.913887 104.913887 0 0 0 16.125871 16.125871 112.938892 112.938892 0 0 0 10.015451 7.16886 118.624851 118.624851 0 0 0 8.142409 4.748534 129.830597 129.830597 0 0 0 7.741429 3.784016c2.413101 1.083728 4.860519 2.100626 7.335032 3.047082 2.299309 0.885044 4.629324 1.708678 6.961145 2.481736 2.18913 0.720679 4.39271 1.40704 6.605321 2.041021 2.073533 0.597857 4.157903 1.163201 6.249498 1.692422a236.85956 236.85956 0 0 0 11.63743 2.655133c3.50586 0.720679 7.031588 1.381753 10.564541 2.004897 2.949546 0.52922 5.900898 1.024123 8.859475 1.519025 4.356586 0.973549 8.386247 1.874849 12.029379 2.750862 2.823111 0.67733 5.416833 1.336598 7.734205 1.970579-0.35763 1.240868-0.72971 2.474512-1.110821 3.706349-0.426266 1.388978-0.866982 2.767118-1.311311 4.148872-0.684555 2.134944-1.396203 4.260857-2.100626 6.386769-0.944649 2.821305-1.892911 5.64261-2.82853 8.463915-1.242675 3.731636-2.492574 7.47411-3.697318 11.212971a435.768777 435.768777 0 0 0-3.187966 10.277352 303.320977 303.320977 0 0 0-3.122942 11.290638 257.901942 257.901942 0 0 0-1.457614 6.128481 180.888629 180.888629 0 0 0-1.336598 6.500561 170.060381 170.060381 0 0 0-1.163201 6.952114 145.075035 145.075035 0 0 0-1.226419 11.500159 132.072107 132.072107 0 0 0-0.205908 4.157902 118.160654 118.160654 0 0 0 0.440716 15.38713c0.157141 1.710484 0.35763 3.411937 0.599663 5.104358a105.175788 105.175788 0 0 0 2.109656 10.866178l0.727904 2.889941 0.939231 2.82853a101.37371 101.37371 0 0 0 3.731636 9.511518 122.56962 122.56962 0 0 0 1.990447 4.174158c0.64843 1.293249 1.336598 2.579272 2.028377 3.843622a123.259594 123.259594 0 0 0 6.213374 10.015451 135.841674 135.841674 0 0 0 3.932125 5.44212c1.35466 1.77912 2.745444 3.534759 4.177771 5.252468a177.113643 177.113643 0 0 0 8.400697 9.415789c1.396203 1.468451 2.812274 2.917034 4.244601 4.34033a273.876091 273.876091 0 0 0 4.28795 4.165127c1.432327 1.35466 2.88091 2.700289 4.338524 4.018824a317.85738 317.85738 0 0 0 7.387411 6.49153c2.758087 2.360721 5.563136 4.678092 8.391666 6.961145 3.502247 3.018182 6.722725 5.788913 9.553061 8.304968z m39.46395-67.429547c-17.652121-14.120974-31.774901-28.250979-35.315078-38.839-3.522116-14.120974 3.540178-35.307853 10.597052-56.492927 10.588021-31.783932 21.185073-60.033104 7.0641-88.276858-14.120974-24.718026-45.904906-31.773094-77.679807-38.839-21.185073-3.532953-42.371953-7.064099-52.969005-17.661152-10.588021-10.588021-14.130005-31.774901-17.652121-52.959974-7.064099-31.783932-14.120974-63.558832-38.849837-77.678-21.185073-14.130005-56.491121-3.534759-88.267827 7.055068-21.185073 7.064099-42.371953 14.130005-56.491121 10.598858-10.598858-3.534759-28.252785-21.18688-38.849837-35.307853C564.959974 24.718026 543.774901 0 512 0c-31.783932 0-52.969005 24.718026-74.155885 49.437859-14.120974 17.653927-28.250979 31.774901-38.839 35.307853-10.597052 3.532953-35.307853-3.534759-56.492927-10.598858-31.783932-10.589827-63.558832-17.653927-88.278664-7.055069-24.718026 17.653927-31.774901 49.436052-35.315079 81.210953-7.056875 21.185073-10.598858 42.371953-17.644895 52.970812-10.598858 7.055068-31.782126 10.588021-52.969006 17.644895-31.776707 3.541984-63.558832 10.597052-81.212759 35.315079-14.119168 28.243754-3.532953 56.492927 7.0641 88.276858 7.056875 21.185073 14.12278 42.371953 10.589827 56.492927-3.532953 10.588021-21.18688 28.252785-35.315078 38.839C24.721639 459.029189 0.001806 480.214262 0.001806 511.998194c0 31.776707 24.719832 52.96178 49.428828 74.146853 17.661152 14.120974 31.782126 28.250979 35.315078 38.849838 3.532953 14.120974-3.532953 35.307853-10.589827 56.492927-10.597052 31.783932-21.185073 60.033104-7.0641 88.266021 14.120974 24.727057 45.895875 31.785738 77.670776 38.851643 21.185073 3.523922 42.371953 7.062293 52.969005 17.659346 10.588021 10.588021 14.130005 31.774901 17.662958 52.96178 7.064099 31.783932 14.120974 63.557026 38.839 77.678 21.185073 14.120974 56.492927 3.534759 88.278664-7.064099 21.185073-7.055068 42.370147-14.119168 56.492927-10.597052 10.589827 3.541984 28.250979 21.195911 38.839 35.325915 21.18688 24.710801 42.370147 49.428827 74.155885 49.428828 31.774901 0 52.959974-24.719832 74.146854-49.428828 14.120974-17.662958 28.250979-31.783932 38.849837-35.325915 10.586215-3.522116 35.307853 3.541984 56.491121 10.597052 31.776707 10.598858 63.557026 17.661152 88.267827 7.064099 24.727057-14.119168 31.785738-45.894068 38.849837-77.678 3.522116-21.18688 7.064099-42.373759 17.652121-52.96178 10.597052-10.597052 31.783932-14.135424 52.969005-17.659346 31.774901-7.065906 63.557026-14.12278 77.679807-38.851643 14.120974-24.708995 3.523922-56.48209-7.0641-88.266021-7.056875-21.185073-14.119168-42.371953-10.597052-56.492927 3.540178-10.598858 21.185073-28.252785 35.315078-38.849838 24.719832-21.185073 49.430634-42.370147 49.430634-74.146853 0-31.783932-24.712608-52.969005-49.430634-74.155885z" fill="#b1102b" p-id="8823" data-spm-anchor-id="a313x.7781069.0.i5" class="selected"></path><path d="M817.571518 410.805105c-10.112987-3.635907-21.855178 1.215581-25.491085 11.743998-13.76515 36.425899-27.519463 72.853605-41.286419 109.272279-13.756119-36.418675-27.521269-72.84638-41.286419-109.272279-5.658866-15.379904-31.567186-15.379904-37.233276 0-13.757925 36.425899-27.523075 72.853605-41.279194 109.272279-13.763344-36.418675-27.521269-72.84638-41.284613-109.272279-3.637713-10.528416-14.9717-15.788109-25.500116-11.743998-10.519385 4.054948-15.379904 15.381711-11.734967 25.501923 19.971298 52.891338 39.933565 105.773645 59.904864 158.655952 5.658866 15.379904 31.567186 15.379904 37.235082 0 13.756119-36.427706 27.519463-72.844574 41.279194-109.281311 13.763344 36.436737 27.5303 72.853605 41.286419 109.281311 2.826723 7.690855 10.52661 12.957773 18.616639 12.957772 8.496426 0 15.786302-5.266917 18.618444-12.957772 19.971298-52.882307 39.931759-105.76642 59.903057-158.655952 4.038692-10.519385-1.221-21.855178-11.74761-25.501923z" fill="#b1102b" p-id="8824" data-spm-anchor-id="a313x.7781069.0.i7" class="selected"></path></svg>