<?xml version="1.0" standalone="no"?><!DOCTYPE svg PUBLIC "-//W3C//DTD SVG 1.1//EN" "http://www.w3.org/Graphics/SVG/1.1/DTD/svg11.dtd"><svg t="1669093879891" class="icon" viewBox="0 0 1024 1024" version="1.1" xmlns="http://www.w3.org/2000/svg" p-id="2777" xmlns:xlink="http://www.w3.org/1999/xlink" width="64" height="64"><path d="M768 972.8l-238.933333-17.066667c-10.24 0-17.066667-10.24-17.066667-17.066666 0-10.24 10.24-17.066667 17.066667-17.066667l221.866666 17.066667V921.6c0-10.24 6.826667-17.066667 17.066667-17.066667s17.066667 6.826667 17.066667 17.066667v34.133333c0 3.413333-3.413333 10.24-6.826667 13.653334-3.413333 3.413333-6.826667 3.413333-10.24 3.413333zM245.76 921.6l-232.106667-17.066667c-3.413333 0-10.24-3.413333-13.653333-6.826666v-13.653334l102.4-682.666666c0-10.24 10.24-13.653333 17.066667-13.653334l375.466666 34.133334c10.24 0 17.066667 10.24 17.066667 17.066666s-10.24 17.066667-17.066667 17.066667L136.533333 221.866667l-98.986666 648.533333 208.213333 17.066667c10.24 0 17.066667 10.24 17.066667 17.066666 0 10.24-6.826667 17.066667-17.066667 17.066667zM597.333333 358.4c-3.413333 0-10.24 0-13.653333-3.413333-6.826667-6.826667-6.826667-17.066667 0-23.893334L709.973333 204.8c6.826667-6.826667 17.066667-6.826667 23.893334 0s6.826667 17.066667 0 23.893333l-122.88 122.88c-3.413333 6.826667-10.24 6.826667-13.653334 6.826667z" fill="#b1102b" p-id="2778"></path><path d="M256 972.8c-10.24 0-17.066667-6.826667-17.066667-13.653333l-68.266666-682.666667c0-10.24 6.826667-17.066667 13.653333-17.066667l535.893333-61.44c6.826667 0 10.24 0 13.653334 6.826667 13.653333 13.653333 30.72 20.48 47.786666 20.48 23.893333 0 44.373333-13.653333 58.026667-34.133333 3.413333-3.413333 6.826667-6.826667 13.653333-6.826667l81.92-13.653333c3.413333 0 10.24 0 13.653334 3.413333 3.413333 3.413333 6.826667 6.826667 6.826666 13.653333L1024 887.466667c0 3.413333 0 10.24-3.413333 13.653333s-6.826667 6.826667-10.24 6.826667L256 972.8zM204.8 286.72l64.853333 648.533333 716.8-64.853333-61.44-662.186667-54.613333 6.826667C849.92 238.933333 819.2 256 785.066667 256c-23.893333 0-47.786667-10.24-68.266667-27.306667L204.8 286.72z" fill="#b1102b" p-id="2779"></path><path d="M785.066667 256c-58.026667 0-102.4-44.373333-102.4-102.4s44.373333-102.4 102.4-102.4 102.4 44.373333 102.4 102.4-44.373333 102.4-102.4 102.4z m0-170.666667c-37.546667 0-68.266667 30.72-68.266667 68.266667s30.72 68.266667 68.266667 68.266667 68.266667-30.72 68.266666-68.266667-30.72-68.266667-68.266666-68.266667z" fill="#b1102b" p-id="2780"></path></svg>