<?xml version="1.0" standalone="no"?><!DOCTYPE svg PUBLIC "-//W3C//DTD SVG 1.1//EN" "http://www.w3.org/Graphics/SVG/1.1/DTD/svg11.dtd"><svg t="1670216228747" class="icon" viewBox="0 0 1024 1024" version="1.1" xmlns="http://www.w3.org/2000/svg" p-id="4682" xmlns:xlink="http://www.w3.org/1999/xlink" width="64" height="64"><path d="M639.976004 0.15997c-212.024245 0-383.928013 171.903768-383.928013 383.928013 0 64.819846 16.220959 125.832406 44.631632 179.422358l-266.957945 266.893957 0.223958 0.191964c-20.860089 20.508155-33.849653 48.918828-33.849653 80.496907 0 62.356308 50.550522 112.90683 112.90683 112.90683 31.514091 0 59.956758-12.989564 80.464913-33.881647l-0.063988-0.063988 266.861963-266.829969c53.621946 28.506655 114.730488 44.791602 179.710304 44.791602 212.024245 0 383.928013-171.903768 383.928013-383.928013s-171.903768-383.928013-383.928013-383.928013zM153.507217 950.125851c-10.302068 10.685996-24.571393 17.372743-40.504405 17.372743-31.194151 0-56.469412-25.243267-56.469412-56.437418 0-15.933013 6.71874-30.170343 17.372743-40.504405l-0.287946-0.255952 258.063613-258.063613c22.555771 30.426295 49.430732 57.301256 79.793039 79.921015l-257.967631 257.967631zM639.976004 704.059989c-176.670874 0-319.940011-143.301131-319.940011-319.940011s143.269137-319.940011 319.940011-319.940011c176.63888 0 319.940011 143.269137 319.940011 319.940011s-143.301131 319.940011-319.940011 319.940011zM639.976004 160.129976c8.79835 0 15.997001 7.166656 15.997001 15.997001s-7.19865 15.997001-15.997001 15.997001c-106.02812 0-191.964007 85.967881-191.964007 191.964007 0 8.830344-7.166656 15.997001-15.997001 15.997001s-15.997001-7.166656-15.997001-15.997001c0-123.688808 100.237206-223.958008 223.958008-223.958008z" p-id="4683" fill="#b1102b" data-spm-anchor-id="a313x.7781069.0.i1" class=""></path></svg>