<?xml version="1.0" standalone="no"?><!DOCTYPE svg PUBLIC "-//W3C//DTD SVG 1.1//EN" "http://www.w3.org/Graphics/SVG/1.1/DTD/svg11.dtd"><svg t="1670322416740" class="icon" viewBox="0 0 1024 1024" version="1.1" xmlns="http://www.w3.org/2000/svg" p-id="11924" xmlns:xlink="http://www.w3.org/1999/xlink" width="16" height="16"><path d="M1024 61.44s0-3.413333 0 0c0-3.413333 0-3.413333 0 0v-6.826667h-3.413333-3.413334-3.413333-3.413333-3.413334-3.413333-3.413333-3.413334l-819.2 477.866667c-3.413333-3.413333-6.826667 0-6.826666 6.826667s6.826667 13.653333 10.24 13.653333l249.173333 81.92 81.92 249.173333c0 3.413333 3.413333 6.826667 3.413333 6.826667 3.413333 3.413333 6.826667 3.413333 10.24 3.413333h6.826667c3.413333 0 3.413333-3.413333 3.413333-3.413333l136.533334-170.666667 187.733333 71.68h6.826667c3.413333 0 6.826667 0 6.826666-3.413333 3.413333-3.413333 6.826667-6.826667 6.826667-10.24l136.533333-716.8c6.826667 3.413333 6.826667 3.413333 6.826667 0zM853.333333 238.933333l-303.786666 409.6c0 3.413333-3.413333 3.413333-3.413334 6.826667l-23.893333 153.6-58.026667-177.493333L853.333333 238.933333z m-296.96 580.266667l20.48-136.533333 68.266667 27.306666-88.746667 109.226667zM30.72 781.653333c-6.826667-6.826667-17.066667-6.826667-23.893333 0s-6.826667 17.066667 0 23.893334l30.72 30.72c3.413333 3.413333 6.826667 3.413333 10.24 3.413333 3.413333 0 10.24-3.413333 13.653333-6.826667 6.826667-6.826667 6.826667-17.066667 0-23.893333-13.653333-6.826667-23.893333-17.066667-30.72-27.306667zM180.906667 904.533333c-13.653333-6.826667-30.72-17.066667-44.373334-27.306666-6.826667-6.826667-17.066667-3.413333-23.893333 3.413333-6.826667 6.826667-3.413333 17.066667 3.413333 23.893333 17.066667 10.24 30.72 20.48 47.786667 30.72 3.413333 0 6.826667 3.413333 6.826667 3.413334 6.826667 0 10.24-3.413333 13.653333-10.24 10.24-10.24 6.826667-20.48-3.413333-23.893334zM395.946667 942.08c-6.826667 0-10.24 3.413333-17.066667 3.413333-10.24 0-17.066667 10.24-13.653333 20.48 0 6.826667 10.24 13.653333 17.066666 13.653334h3.413334c6.826667 0 10.24-3.413333 17.066666-3.413334 10.24-3.413333 13.653333-10.24 13.653334-20.48-3.413333-10.24-10.24-17.066667-20.48-13.653333zM303.786667 945.493333l-51.2-10.24c-10.24-3.413333-17.066667 3.413333-20.48 10.24-3.413333 10.24 3.413333 17.066667 10.24 20.48 17.066667 6.826667 37.546667 10.24 54.613333 13.653334h3.413333c6.826667 0 17.066667-6.826667 17.066667-13.653334 3.413333-10.24-3.413333-20.48-13.653333-20.48zM477.866667 907.946667c-10.24 6.826667-23.893333 13.653333-37.546667 17.066666-10.24 3.413333-13.653333 13.653333-10.24 23.893334 3.413333 6.826667 10.24 10.24 17.066667 10.24h6.826666l40.96-20.48c6.826667-3.413333 10.24-13.653333 6.826667-23.893334-6.826667-6.826667-17.066667-10.24-23.893333-6.826666z" fill="#b1102b" p-id="11925" data-spm-anchor-id="a313x.7781069.0.i0" class="selected"></path></svg>