<?xml version="1.0" standalone="no"?><!DOCTYPE svg PUBLIC "-//W3C//DTD SVG 1.1//EN" "http://www.w3.org/Graphics/SVG/1.1/DTD/svg11.dtd"><svg t="1669371053905" class="icon" viewBox="0 0 1024 1024" version="1.1" xmlns="http://www.w3.org/2000/svg" p-id="35681" xmlns:xlink="http://www.w3.org/1999/xlink" width="64" height="64"><path d="M835.191467 358.417067l153.4976-138.154667a20.770133 20.770133 0 0 0 0.0512-30.856533l-153.5488-138.1888H506.2656V17.066667a17.066667 17.066667 0 1 0-34.133333 0v34.1504H171.707733a58.026667 58.026667 0 0 0-57.9584 57.9584v191.249066A58.026667 58.026667 0 0 0 171.707733 358.4h300.4416v34.133333H188.808533l-153.565866 138.205867a20.736 20.736 0 0 0 0.017066 30.805333L188.808533 699.733333h283.323734v307.2a17.066667 17.066667 0 1 0 34.133333 0V699.733333h351.6416a58.026667 58.026667 0 0 0 57.9584-57.9584V450.491733A58.026667 58.026667 0 0 0 857.9072 392.533333H506.2656v-34.116266h328.925867z m46.5408 92.074666v191.266134c0 13.1584-10.683733 23.825067-23.825067 23.825066H201.915733l-132.744533-119.466666 132.744533-119.466667h655.991467c13.141333 0.017067 23.825067 10.7008 23.825067 23.842133z m-733.866667-150.050133V109.175467c0-13.1584 10.683733-23.825067 23.825067-23.825067h650.376533l132.744533 119.466667-132.744533 119.466666H171.707733c-13.141333 0-23.842133-10.7008-23.842133-23.842133z" fill="#b1102b" p-id="35682"></path></svg>