<?xml version="1.0" standalone="no"?><!DOCTYPE svg PUBLIC "-//W3C//DTD SVG 1.1//EN" "http://www.w3.org/Graphics/SVG/1.1/DTD/svg11.dtd"><svg t="1668990926159" class="icon" viewBox="0 0 1024 1024" version="1.1" xmlns="http://www.w3.org/2000/svg" p-id="26056" xmlns:xlink="http://www.w3.org/1999/xlink" width="64" height="64"><path d="M538.752 118.229333V73.6a28.444444 28.444444 0 0 0-56.888889 0v44.885333C258.346667 134.016 81.194667 320.682667 81.194667 548.081778c0 237.496889 193.265778 430.762667 430.805333 430.762666s430.805333-193.265778 430.805333-430.762666c0-228.536889-178.929778-415.985778-404.053333-429.852445zM512 921.955556c-206.179556 0-373.916444-167.736889-373.916444-373.873778 0-206.165333 167.736889-373.888 373.916444-373.888s373.916444 167.722667 373.916444 373.888c0 206.136889-167.736889 373.873778-373.916444 373.873778z" fill="#b1102b" p-id="26057" data-spm-anchor-id="a313x.7781069.0.i21" class=""></path><path d="M365.980444 806.243556c-92.856889-52.664889-150.542222-151.608889-150.542222-258.176 0-7.879111-6.357333-14.222222-14.222222-14.222223-7.864889 0-14.222222 6.343111-14.222222 14.222223 0 116.792889 63.217778 225.208889 164.963555 282.936888a14.222222 14.222222 0 0 0 14.023111-24.760888zM443.548444 845.255111a318.734222 318.734222 0 0 1-16.398222-4.750222 14.222222 14.222222 0 0 0-8.647111 27.093333c5.916444 1.905778 11.861333 3.612444 17.934222 5.162667a14.222222 14.222222 0 0 0 17.322667-10.211556 14.179556 14.179556 0 0 0-10.211556-17.294222zM879.032889 266.609778a28.430222 28.430222 0 0 0 40.163555-40.277334l-73.856-73.671111a28.416 28.416 0 0 0-40.220444 0.056889 28.458667 28.458667 0 0 0 0.056889 40.220445l73.856 73.671111zM538.737778 542.776889V315.377778a28.444444 28.444444 0 0 0-56.888889 0v239.687111c0 7.836444 4.081778 15.303111 9.770667 20.664889l83.242666 77.795555c5.504 5.176889 12.515556 7.765333 19.527111 7.765334a27.306667 27.306667 0 0 0 20.238223-8.931556c10.823111-11.434667 9.856-29.425778-1.564445-40.206222l-74.325333-69.376z" fill="#b1102b" p-id="26058" data-spm-anchor-id="a313x.7781069.0.i27" class="selected"></path></svg>