<?xml version="1.0" standalone="no"?><!DOCTYPE svg PUBLIC "-//W3C//DTD SVG 1.1//EN" "http://www.w3.org/Graphics/SVG/1.1/DTD/svg11.dtd"><svg t="1668985991637" class="icon" viewBox="0 0 1024 1024" version="1.1" xmlns="http://www.w3.org/2000/svg" p-id="10648" xmlns:xlink="http://www.w3.org/1999/xlink" width="64" height="64"><path d="M939.52 955.733333h-170.666667a17.066667 17.066667 0 0 1-17.066666-17.066666V426.666667a17.066667 17.066667 0 0 1 17.066666-17.066667h170.666667a17.066667 17.066667 0 0 1 17.066667 17.066667v512a17.066667 17.066667 0 0 1-17.066667 17.066666z m-153.6-34.133333h136.533333V443.733333h-136.533333v477.866667z m-187.733333 34.133333h-170.666667a17.066667 17.066667 0 0 1-17.066667-17.066666V597.333333a17.066667 17.066667 0 0 1 17.066667-17.066666h170.666667a17.066667 17.066667 0 0 1 17.066666 17.066666v341.333334a17.066667 17.066667 0 0 1-17.066666 17.066666z m-153.6-34.133333h136.533333V614.4h-136.533333v307.2z m-187.733334 34.133333h-170.666666a17.066667 17.066667 0 0 1-17.066667-17.066666V768a17.066667 17.066667 0 0 1 17.066667-17.066667h170.666666a17.066667 17.066667 0 0 1 17.066667 17.066667v170.666667a17.066667 17.066667 0 0 1-17.066667 17.066666z m-153.6-34.133333h136.533334v-136.533333h-136.533334v136.533333zM85.333333 632.32a34.133333 34.133333 0 0 1-24.132266-58.2656l171.52-171.52a34.133333 34.133333 0 0 1 48.264533 0l61.201067 61.184 231.867733-231.850667a34.133333 34.133333 0 0 1 48.264533 0l61.201067 61.184L857.122133 119.466667h-2.935466a34.133333 34.133333 0 0 1 0-68.266667H939.7248a34.0992 34.0992 0 0 1 33.928533 34.372267V170.666667a34.133333 34.133333 0 0 1-68.266666 0v-2.9184L707.652267 365.4656a34.133333 34.133333 0 0 1-48.264534 0l-61.201066-61.184-231.867734 231.850667a34.133333 34.133333 0 0 1-48.264533 0l-61.201067-61.184-147.387733 147.370666c-6.656 6.656-15.394133 10.001067-24.132267 10.001067z" p-id="10649" data-spm-anchor-id="a313x.7781069.0.i11" class="selected" fill="#b1102b"></path></svg>