<?xml version="1.0" standalone="no"?><!DOCTYPE svg PUBLIC "-//W3C//DTD SVG 1.1//EN" "http://www.w3.org/Graphics/SVG/1.1/DTD/svg11.dtd"><svg t="1664574851720" class="icon" viewBox="0 0 1024 1024" version="1.1" xmlns="http://www.w3.org/2000/svg" p-id="3287" xmlns:xlink="http://www.w3.org/1999/xlink" width="200" height="200"><path d="M719 957h-414c-182.6 0-238-55.4-238-238v-82.8c0-182.6 55.4-238 238-238h414c182.6 0 238 55.4 238 238v82.8c0 182.6-55.4 238-238 238z m-414-496.8c-148.2 0-176 28.2-176 176v82.8c0 147.8 27.8 176 176 176h414c148.2 0 176-28.2 176-176v-82.8c0-147.8-27.8-176-176-176h-414z" p-id="3288" fill="#515151"></path><path d="M263.6 460.2c-17 0-31-14-31-31v-82.8c0-120 29-279.4 279.4-279.4 185.4 0 279.4 79.8 279.4 238 0 17-14 31-31 31s-31-14-31-31c0-82-24.8-176-217.4-176-180.4 0-217.4 87-217.4 217.4v82.8c0 17-14 31-31 31zM512 812.2c-74 0-134.6-60.4-134.6-134.6s60.4-134.6 134.6-134.6 134.6 60.4 134.6 134.6-60.6 134.6-134.6 134.6z m0-207c-39.8 0-72.4 32.8-72.4 72.4 0 39.8 32.8 72.4 72.4 72.4s72.4-32.8 72.4-72.4c0-39.8-32.6-72.4-72.4-72.4z" p-id="3289" fill="currentColor"></path></svg>