<?xml version="1.0" standalone="no"?><!DOCTYPE svg PUBLIC "-//W3C//DTD SVG 1.1//EN" "http://www.w3.org/Graphics/SVG/1.1/DTD/svg11.dtd"><svg t="1669336455050" class="icon" viewBox="0 0 1024 1024" version="1.1" xmlns="http://www.w3.org/2000/svg" p-id="10446" data-spm-anchor-id="a313x.7781069.0.i7" xmlns:xlink="http://www.w3.org/1999/xlink" width="64" height="64"><path d="M610.944 461.968C648.384 536.608 593.6 624 510.88 624c-61.76 0-111.44-50.24-111.44-112S448 400 512 400v-80c-112 0-192.56 86.128-192.56 192s85.568 192 191.44 192 192-86.128 192-192c0-30.848-7.472-59.92-20.464-85.76l-71.472 35.728zM510.88 176c-240.64 0-448 225.376-448 336 0 110.64 207.36 336 448 336s448.016-225.36 448.016-336c0-110.624-207.376-336-448-336z m0 592c-207.104 0-368-204.192-368-256 0-51.808 160.896-256 368-256s368 204.192 368 256c0 51.808-160.896 256-368 256z" fill="#b1102b" p-id="10447"></path></svg>