<?xml version="1.0" standalone="yes"?>
<svg xmlns="http://www.w3.org/2000/svg" width="3544" height="3544">
<path style="fill:#010101; stroke:none;" d="M0 0L0 3544L3544 3544L3544 0L0 0z"/>
<path style="fill:#4db5c2; stroke:none;" d="M1808 1283L1822.87 1300L1857 1345L1858 1345C1893.12 1309.88 1947.41 1294.79 1996 1301.73C2007.31 1303.35 2032.1 1305.24 2039.3 1315.1C2044.85 1322.72 2038.14 1339.53 2039.43 1349C2040.46 1356.62 2045.96 1368.67 2044.25 1376C2041.77 1386.67 2023.94 1397.54 2016 1404.42C2001.14 1417.3 1986.78 1430.75 1972 1443.72C1963.48 1451.19 1952.61 1458.8 1946 1468L1950 1466L1980 1507L1982 1507C1998.67 1487.89 2020.64 1472.49 2039 1454.96C2051.63 1442.91 2065.33 1426.53 2083 1422.24C2094.54 1419.44 2104.87 1424.42 2116 1426.79C2126.98 1429.12 2139.29 1428.68 2150 1425.25C2162.28 1421.33 2172.93 1414.03 2182 1405C2189.75 1397.29 2196.92 1386.76 2209 1391.47C2225.4 1397.85 2241.1 1410.23 2254 1421.93C2317.18 1479.23 2326.83 1575.53 2279.33 1646C2268.98 1661.35 2256.3 1674.68 2242 1686.39C2236.7 1690.73 2230.56 1696.69 2224 1698.99C2218.31 1700.98 2213.79 1696.66 2210 1692.98C2202.83 1686.03 2195.9 1679.61 2187 1674.89C2174.85 1668.45 2158.84 1664.21 2145 1665.09C2136.59 1665.63 2128.27 1668.68 2120 1669L2108 1674C2112.88 1683.79 2121.08 1692.27 2127.63 1701C2131.08 1705.61 2134.55 1712.02 2139.29 1715.39C2143.75 1718.57 2151.61 1715.8 2157 1717.92C2174.96 1724.96 2188.33 1747.27 2177 1765L2177 1766L2210 1808L2210 1809L2206 1813L2210 1807L2218 1800L2217 1798C2232.83 1787.55 2226.83 1761.33 2242 1749.53C2272.8 1725.56 2302.76 1707.27 2325.25 1674C2375.84 1599.19 2372.29 1486.26 2318.52 1414C2302.85 1392.93 2282.27 1374.33 2260 1360.43C2246.49 1351.99 2228.87 1346.33 2217 1335.81C2206.91 1326.87 2205.92 1314.47 2200.19 1303C2192.11 1286.85 2178.35 1273.07 2162 1265.32C2143.94 1256.76 2123.29 1255.03 2104 1259.87C2093.37 1262.54 2083.19 1269.79 2072 1268.91C2064.63 1268.32 2057.86 1264.14 2051 1261.69C2038.33 1257.18 2025.32 1253.33 2012 1251.27C1958.86 1243.07 1913.71 1254.72 1865 1275C1856.29 1251.35 1890.03 1249.15 1904 1238.67C1928.8 1220.06 1942.01 1190.94 1939 1160C1932.44 1092.51 1846.04 1059.82 1796 1105C1786.86 1113.25 1779.86 1124.76 1775.33 1136C1765.57 1160.23 1764.58 1188 1778 1211C1785.8 1224.37 1800.69 1230.93 1808.5 1244C1815.75 1256.14 1811.91 1270.84 1808 1283z"/>
<path style="fill:#010101; stroke:none;" d="M1848 1137.46C1805.81 1145.07 1817.64 1209.99 1859 1202.54C1902.47 1194.7 1891.31 1129.66 1848 1137.46z"/>
<path style="fill:#40a0bc; stroke:none;" d="M1774 1203L1775 1204L1774 1203M1775 1205L1776 1206L1775 1205M1776 1207L1777 1208L1776 1207M1782 1216L1783 1217L1782 1216M1440 1299C1433.98 1305.86 1438.73 1309.49 1443.63 1316C1450.05 1324.55 1462.47 1335.55 1465 1346C1500.97 1323.53 1534.72 1304.11 1577 1295.6C1607.73 1289.41 1638.94 1287.83 1670 1292.92C1703.11 1298.35 1735.7 1307.82 1765 1324.58C1774.7 1330.13 1786.83 1335.54 1793.35 1345C1800.67 1355.63 1792.86 1375.35 1790.92 1387L1775.41 1480C1773.51 1491.36 1774.14 1509.41 1767.35 1518.98C1759.98 1529.36 1738.5 1529.16 1727 1533C1704.32 1540.57 1684.57 1554.47 1669.46 1573C1665.51 1577.85 1656.9 1587.42 1656.98 1594.09C1657.08 1602.16 1670.17 1613.79 1674.87 1620C1680.44 1627.35 1685.53 1636.5 1693 1642C1696.62 1624.52 1705.49 1609.04 1719 1597.29C1730.03 1587.69 1743.66 1580.91 1758 1578C1812.63 1566.91 1863.49 1620.74 1851.33 1675C1843.91 1708.15 1805.4 1747.9 1768 1739L1767 1740C1773.29 1752.63 1784.17 1763.73 1792.63 1775C1796.16 1779.72 1801.94 1784.79 1801 1791C1810.05 1784.4 1820.89 1782.34 1831 1777.69C1844.03 1771.7 1856.7 1763.11 1866.71 1752.83C1874.98 1744.35 1884.65 1720.87 1897 1719.23C1908.74 1717.67 1925.55 1724.78 1937 1727.63C1963.89 1734.31 1990.95 1740.57 2018 1746.58C2029.96 1749.23 2049.43 1750.16 2058.9 1758.39C2068.21 1766.49 2068.83 1786.2 2075.7 1797C2080.85 1805.1 2087.28 1812.11 2095 1817.84C2099.33 1821.07 2105.95 1824.73 2105.56 1831C2104.64 1845.75 2090.31 1865.1 2082.33 1877C2060.1 1910.13 2028.27 1937.04 1992 1953.69C1975.7 1961.17 1958.58 1964.74 1942 1971C1948.97 1982.2 1957.88 1992.51 1965.88 2003C1968.51 2006.45 1971.91 2012.83 1976.17 2014.36C1980.01 2015.73 1985.41 2012.9 1989 2011.66C1999.26 2008.09 2009.16 2003.86 2019 1999.31C2066.59 1977.29 2104.81 1940.71 2131.8 1896C2137.98 1885.75 2143.8 1874.98 2148.58 1864C2152.08 1855.96 2154.73 1845.85 2160.39 1839.04C2166.26 1831.98 2176.04 1830.88 2184 1827.33C2193.87 1822.93 2202.31 1816.53 2210 1809L2210 1808L2178 1766C2169.14 1773.31 2163.83 1782.99 2151 1783.91C2129.86 1785.43 2111.02 1765.1 2115.52 1744C2118.41 1730.42 2127.69 1722.25 2140 1717L2109 1675C2100.07 1677.83 2091.44 1685.27 2085.09 1692C2080.79 1696.56 2076.67 1703.63 2070 1704.77C2058.97 1706.65 2042.77 1699.56 2032 1696.87C2004.45 1689.99 1976.76 1683.21 1949 1677.21C1937.42 1674.71 1916.81 1673.59 1908.23 1664.79C1900.13 1656.48 1904.34 1636.9 1901.76 1626C1899.49 1616.39 1887.26 1599.44 1890.75 1590C1894.44 1580.01 1908.36 1571.86 1916 1564.93C1936.95 1545.93 1957.74 1525.4 1980 1508C1974.9 1492.64 1958.9 1479.46 1950 1466C1941.24 1469.39 1934.07 1478.06 1926.96 1484.09C1909.96 1498.53 1893.85 1513.97 1877 1528.58C1870.25 1534.43 1861.23 1546.67 1852 1548.18C1847.05 1548.98 1841.9 1544.82 1838 1542.31C1820.94 1531.32 1820.92 1521.53 1824.39 1503C1831.84 1463.15 1838.49 1423.1 1844.42 1383C1845.68 1374.48 1846.34 1365.97 1849.86 1358C1851.59 1354.1 1856.71 1348.39 1855.87 1344C1854.7 1337.87 1847.06 1330.91 1843.37 1326C1832.32 1311.29 1820.74 1296.94 1810 1282C1800.55 1289.75 1786.55 1277.02 1777 1272.25C1748.42 1257.96 1718.43 1248.28 1687 1242.61C1625.4 1231.51 1558.48 1239.83 1501 1264.43C1486.81 1270.5 1473.08 1277.86 1460 1286.05C1453.85 1289.9 1446.82 1297.03 1440 1299M1808 1243L1809 1244L1808 1243M1810 1247L1811 1248L1810 1247M1811 1250L1812 1251L1811 1250z"/>
<path style="fill:#4db5c2; stroke:none;" d="M1762 1265L1763 1266L1762 1265z"/>
<path style="fill:#40a0bc; stroke:none;" d="M1812 1266L1813 1267L1812 1266z"/>
<path style="fill:#4db5c2; stroke:none;" d="M1773 1270L1774 1271L1773 1270M1775 1271L1776 1272L1775 1271z"/>
<path style="fill:#40a0bc; stroke:none;" d="M1811.33 1271.67L1811.67 1272.33L1811.33 1271.67z"/>
<path style="fill:#4db5c2; stroke:none;" d="M1777 1272L1778 1273L1777 1272z"/>
<path style="fill:#3289b6; stroke:none;" d="M1482 1273L1483 1274L1482 1273z"/>
<path style="fill:#4db5c2; stroke:none;" d="M1779 1273L1780 1274L1779 1273z"/>
<path style="fill:#3289b6; stroke:none;" d="M1480 1274L1481 1275L1480 1274z"/>
<path style="fill:#4db5c2; stroke:none;" d="M1781 1274L1782 1275L1781 1274z"/>
<path style="fill:#40a0bc; stroke:none;" d="M1810 1274L1811 1275L1810 1274z"/>
<path style="fill:#3289b6; stroke:none;" d="M1478 1275L1479 1276L1478 1275z"/>
<path style="fill:#4db5c2; stroke:none;" d="M1783 1275L1784 1276L1783 1275z"/>
<path style="fill:#3289b6; stroke:none;" d="M1469 1280L1470 1281L1469 1280z"/>
<path style="fill:#40a0bc; stroke:none;" d="M1809 1280L1810 1281L1809 1280z"/>
<path style="fill:#4db5c2; stroke:none;" d="M1794 1281L1795 1282L1794 1281M1795 1282L1796 1283L1795 1282z"/>
<path style="fill:#3289b6; stroke:none;" d="M1464 1283L1465 1284L1464 1283z"/>
<path style="fill:#4db5c2; stroke:none;" d="M1799 1284L1800 1285L1799 1284M1807 1284L1808 1285L1807 1284M1806 1285L1807 1286L1806 1285z"/>
<path style="fill:#3289b6; stroke:none;" d="M1459 1286L1460 1287L1459 1286z"/>
<path style="fill:#4db5c2; stroke:none;" d="M1805 1286L1806 1287L1805 1286z"/>
<path style="fill:#3289b6; stroke:none;" d="M1456 1288L1457 1289L1456 1288z"/>
<path style="fill:#010101; stroke:none;" d="M1608 1290.42C1510.25 1303.42 1423.22 1357.89 1381.69 1450C1372.28 1470.88 1365.42 1492.52 1361 1515C1359.6 1522.14 1355.82 1533.11 1359.46 1539.96C1363.12 1546.87 1372.23 1547.07 1379 1548.25C1394.74 1550.99 1410.37 1554.89 1426 1558.21C1476.65 1568.98 1527.42 1579.31 1578 1590.42C1593.31 1593.79 1608.67 1596.95 1624 1600.21C1630.43 1601.58 1638.39 1604.76 1645 1603.65C1653.71 1602.17 1657.06 1591.55 1661.34 1585C1670.1 1571.62 1681 1559.78 1694 1550.43C1707.9 1540.43 1723.4 1533.53 1740 1529.38C1748.64 1527.22 1761.61 1527.79 1767.35 1519.96C1771.74 1513.96 1771.74 1504.12 1772.92 1497C1775.73 1480.03 1778.74 1463.03 1781.13 1446C1784.38 1422.91 1789.04 1399.99 1792.92 1377C1794.46 1367.9 1798.82 1355.92 1795.01 1347C1789.1 1333.2 1765.83 1323.84 1753 1317.78C1709.87 1297.41 1655.99 1284.04 1608 1290.42z"/>
<path style="fill:#3289b6; stroke:none;" d="M1447 1294L1448 1295L1447 1294M1444 1296L1445 1297L1444 1296M1443 1297L1444 1298L1443 1297M1442 1298L1443 1299L1442 1298M1441 1299L1442 1300L1441 1299M1439 1300L1440 1301L1439 1300z"/>
<path style="fill:#010101; stroke:none;" d="M1957 1300.42C1929.69 1304.05 1904.72 1311.88 1881 1326.2C1870.05 1332.82 1858.64 1340.52 1852.31 1352C1846.17 1363.16 1845.41 1375.65 1843.58 1388C1840.81 1406.7 1837.71 1425.35 1834.59 1444C1831.51 1462.36 1828.02 1480.65 1824.92 1499C1823.52 1507.31 1820.65 1516.52 1821.71 1525C1822.95 1534.92 1840.89 1548.87 1851 1548.6C1858.66 1548.4 1865.8 1539.7 1871 1534.91C1885.17 1521.88 1899.53 1508.98 1914 1496.28C1944.54 1469.5 1975.1 1442.58 2005 1415.09C2016.61 1404.4 2034.9 1393.61 2042.99 1380C2047.73 1372.03 2040.62 1356.8 2039.43 1348C2038.12 1338.43 2044.99 1323.17 2039.91 1315.1C2036.19 1309.2 2026.22 1308.15 2020 1306.42C2000.19 1300.92 1977.52 1297.7 1957 1300.42z"/>
<path style="fill:#3289b6; stroke:none;" d="M1435 1303L1436 1304L1435 1303M1264 1525L1264 1523L1259 1522L1250 1520L1244 1520C1256.32 1544.74 1279.15 1568.23 1296.21 1590C1302.65 1598.21 1307.7 1611.22 1319 1609L1324 1605C1324 1599.92 1339.99 1594 1345 1594C1351.65 1594 1359.46 1597.3 1366 1598.67L1412 1608.33C1461.04 1618.55 1509.96 1629.45 1559 1639.67L1607 1649.67C1614.58 1651.25 1624.05 1651.69 1631 1655.17C1644.19 1661.76 1640.17 1684.52 1644.33 1697C1645.81 1701.44 1650.27 1708.2 1648.67 1713C1645.9 1721.3 1632.69 1727.5 1626 1732.33C1605.9 1746.85 1586.11 1761.81 1566 1776.33C1549.59 1788.19 1533.2 1800.18 1517 1812.33C1510.6 1817.13 1502.67 1825.81 1495 1828L1491 1831L1487 1834L1485 1837L1515 1878L1520 1877L1524 1874L1528 1871C1535.54 1862.73 1546.91 1856.49 1556 1850C1571.16 1839.17 1585.95 1827.83 1601 1816.85C1619.05 1803.68 1637.13 1790.52 1655 1777.13C1661.99 1771.89 1671.1 1762.01 1680 1760.63C1688.81 1759.25 1698.73 1770.28 1706 1774.23C1716.03 1779.68 1732.83 1781.7 1740.89 1789.22C1746.08 1794.07 1746 1801.42 1746 1808C1746.01 1821.36 1745.02 1834.71 1745 1848C1744.97 1869.18 1743.64 1890.88 1745.09 1912C1746.08 1926.47 1749.04 1945.14 1743.52 1959C1740.06 1967.68 1732.14 1975.02 1726.13 1982C1716.15 1993.6 1706.25 2005.28 1696.41 2017C1688.25 2026.72 1680.17 2036.53 1671.87 2046.13C1668.96 2049.51 1666.25 2055.56 1662 2057L1661 2058C1657.31 2075.4 1678.88 2091.35 1688 2106L1695 2102L1696 2101C1697.28 2095.47 1704.39 2090.17 1708.13 2085.87C1718.69 2073.73 1730.89 2052.53 1745 2045C1745 2061.88 1750.97 2092.81 1741 2105C1737.97 2108.7 1732.61 2109.59 1729 2112C1724.55 2114.97 1718.42 2121.6 1716 2121L1715 2122L1716 2124C1713.04 2125.55 1708.75 2127.97 1709.37 2132C1710.07 2136.51 1715.47 2141.46 1718.13 2145C1725.39 2154.69 1732.93 2164.16 1740 2174L1743 2173L1747 2167C1750.59 2154.49 1771.97 2153.05 1782 2156.22C1801.43 2162.37 1809.57 2183.08 1801.33 2201C1798.82 2206.45 1792.39 2215.28 1786 2216C1782.75 2219.09 1779.38 2219.68 1775 2219L1797.88 2250L1808.17 2261.76L1816 2261L1816 2259L1817 2259L1818 2260L1821 2258C1821 2255.47 1826.61 2253.05 1829 2251.33C1834.9 2247.1 1839.45 2240.84 1843.67 2235C1855.17 2219.08 1859.9 2197.53 1858 2178C1855.98 2157.26 1845.46 2136.96 1830 2123C1821.88 2115.67 1808.6 2112.02 1802.33 2103C1794.38 2091.55 1799 2067.46 1799 2054L1799 2026C1799 2022.12 1798.54 2016.9 1802 2014.17C1805.41 2011.47 1812.39 2015.13 1816 2016.33C1827.5 2020.17 1839.98 2023.33 1852 2025C1875.03 2028.2 1898.73 2029.26 1922 2027C1940.38 2025.21 1957.95 2018.93 1976 2016C1969.33 2004.3 1959.69 1993.63 1951.42 1983C1948.64 1979.43 1945.55 1973.13 1940.96 1971.69C1937.19 1970.51 1932.22 1972.71 1928.42 1973.2C1918.62 1974.47 1908.83 1975.01 1899 1975.83C1877.28 1977.63 1852.74 1971.67 1832 1965.71C1823.24 1963.19 1813.05 1960.94 1806.02 1954.79C1794.48 1944.7 1799 1922.89 1799 1909L1799 1819C1799 1812.16 1798.22 1804.78 1799.21 1798C1799.73 1794.46 1802.75 1790.6 1801.75 1787C1796.87 1769.41 1770.25 1757.33 1768 1739C1733.17 1738.72 1702.15 1709.84 1693.9 1677C1692.25 1670.45 1690.81 1662.77 1691.1 1656C1691.3 1651.64 1693.43 1646.24 1691.82 1642C1689.79 1636.68 1684.29 1631.55 1680.87 1627C1672.61 1615.98 1664.04 1605.19 1656 1594C1642.26 1611.35 1613.02 1597.95 1594 1593.65C1537.55 1580.9 1480.74 1569.02 1424 1557.6C1409.31 1554.64 1394.76 1550.81 1380 1548.25C1372.94 1547.02 1364.26 1546.7 1360.01 1539.96C1356.91 1535.05 1358.7 1529.3 1359.59 1524C1361.73 1511.25 1364.41 1498.33 1368.34 1486C1380.47 1448.01 1399.32 1412.72 1426.17 1383C1437.53 1370.42 1451.09 1360.26 1462.75 1348.19C1466.62 1344.19 1463.05 1340.59 1460.37 1337C1454.61 1329.28 1448.66 1321.71 1442.87 1314C1440.89 1311.36 1438.37 1306.4 1434.95 1305.46C1430.03 1304.1 1421.31 1314.02 1418 1316.87C1402.42 1330.28 1388.07 1344.94 1375.2 1361C1349.7 1392.81 1329.89 1429.8 1318.42 1469C1314.39 1482.8 1311.12 1496.81 1308.75 1511C1307.82 1516.6 1307.77 1525.55 1302.78 1529.26C1293.76 1535.95 1274.65 1523.24 1264 1525z"/>
<path style="fill:#40a0bc; stroke:none;" d="M1430 1307L1431 1308L1430 1307z"/>
<path style="fill:#010101; stroke:none;" d="M2118 1310.47C2075.54 1318.43 2088.77 1383.26 2130 1375.53C2173.42 1367.4 2161.59 1302.3 2118 1310.47z"/>
<path style="fill:#3289b6; stroke:none;" d="M1513 1316L1514 1317L1513 1316M1501 1322L1502 1323L1501 1322M1492 1327L1493 1328L1492 1327z"/>
<path style="fill:#40a0bc; stroke:none;" d="M1877 1328L1878 1329L1877 1328z"/>
<path style="fill:#3289b6; stroke:none;" d="M1487 1330L1488 1331L1487 1330M1485 1331L1486 1332L1485 1331M1484 1332L1485 1333L1484 1332z"/>
<path style="fill:#40a0bc; stroke:none;" d="M1868 1334L1869 1335L1868 1334z"/>
<path style="fill:#3289b6; stroke:none;" d="M1477 1336L1478 1337L1477 1336M1475 1338L1476 1339L1475 1338M1473 1339L1474 1340L1473 1339M1472 1340L1473 1341L1472 1340M1468 1343L1469 1344L1468 1343z"/>
<path style="fill:#40a0bc; stroke:none;" d="M1455 1353L1456 1354L1455 1353z"/>
<path style="fill:#4db5c2; stroke:none;" d="M1847 1363L1848 1364L1847 1363z"/>
<path style="fill:#010101; stroke:none;" d="M2201 1389.65C2192.09 1390.53 2184.92 1401.21 2179 1406.99C2169.93 1415.83 2158.36 1422.96 2146 1426.1C2122.06 1432.2 2098.59 1414.75 2076 1424.23C2056.42 1432.45 2040.3 1452.68 2025 1466.91C1996.88 1493.06 1967.97 1518.51 1939 1543.72C1927.93 1553.35 1917.01 1563.15 1906 1572.84C1900.9 1577.33 1893.24 1582.43 1890.74 1589C1888.38 1595.22 1892.19 1601.53 1894.69 1607C1899.2 1616.86 1903.15 1628.11 1903.91 1639C1904.45 1646.72 1901.92 1657.16 1906.73 1663.9C1913.23 1673.01 1933.81 1674.01 1944 1676.35C1974.38 1683.32 2004.76 1690.32 2035 1697.87C2045.11 1700.4 2062.84 1708.14 2073 1704.26C2081.25 1701.11 2087.3 1690.08 2094 1684.44C2108.38 1672.33 2128.12 1665.08 2147 1665.08C2164.17 1665.08 2182.2 1671.07 2196 1681.16C2203.34 1686.52 2211.85 1700.74 2222 1699.74C2228.31 1699.12 2234.22 1693.3 2239 1689.58C2252.96 1678.7 2265.44 1666.34 2275.85 1652C2322.05 1588.39 2321.9 1494.1 2268 1435C2254.62 1420.33 2239.26 1407.76 2222 1397.85C2215.91 1394.35 2208.43 1388.92 2201 1389.65z"/>
<path style="fill:#2676b0; stroke:none;" d="M1690 2107L1690 2106C1680.27 2097.36 1664.91 2079.13 1660.08 2067C1658.87 2063.94 1660.54 2061.6 1662 2059L1637 2087L1584 2149L1560 2175C1557.49 2161.47 1559 2146.73 1559 2133L1559 2057C1559 2041.75 1564.09 2022.65 1554.89 2009.01C1548.23 1999.15 1535.86 1997.27 1525 1999.45C1491.26 2006.24 1454.26 2013.5 1420 2005.35C1403.9 2001.52 1393.89 1980.14 1403.01 1965C1408.36 1956.12 1420.77 1949.85 1429 1943.85C1440.76 1935.27 1452.16 1926.19 1464 1917.71C1481.24 1905.36 1505.63 1892.42 1519 1876L1515 1878L1485 1837L1488 1836L1488 1835C1477.56 1839.01 1468.07 1848.36 1459 1854.86C1440.29 1868.27 1421.44 1881.6 1403 1895.37C1394.25 1901.91 1380.25 1916.9 1369 1917.69C1363.48 1918.08 1358.72 1914.11 1354 1911.89C1345.85 1908.06 1336.94 1905.38 1328 1904.29C1317.61 1903.01 1306.09 1903.66 1296 1906.43C1289.69 1908.15 1281.43 1913.05 1275.01 1909.68C1268.74 1906.39 1265.01 1897.96 1261.77 1892C1252.84 1875.59 1245.69 1858.16 1241.13 1840C1225.09 1776.15 1237.5 1709.33 1275.03 1655C1287.26 1637.29 1305.51 1624.97 1318 1608C1309.13 1612.25 1302.59 1597.13 1297.79 1591C1284.86 1574.51 1272.44 1557.6 1259.65 1541C1255.07 1535.05 1245.93 1526.58 1245 1519C1229.71 1517.75 1214.07 1512.97 1199 1510C1190.66 1508.36 1181.76 1507.5 1175.17 1501.53C1165.52 1492.78 1165.14 1477.75 1158.3 1467C1140.58 1439.1 1108.8 1423.89 1076 1427.17C1003.9 1434.38 975.712 1525.71 1026 1574.99C1033.64 1582.47 1042.92 1588.63 1053 1592.3C1080.55 1602.34 1111.96 1599.55 1136 1582.25C1145.16 1575.66 1152.46 1561.5 1163 1557.73C1168.79 1555.66 1175.33 1558.32 1181 1559.58C1193.32 1562.31 1205.68 1564.87 1218 1567.58C1229.95 1570.2 1241.99 1572.65 1254 1575C1257.64 1575.71 1264.93 1575.39 1266.86 1579.27C1269.33 1584.24 1255.88 1594.51 1252.87 1598C1237.33 1616.04 1224.11 1635.28 1212.42 1656C1181.21 1711.37 1173.59 1783.66 1187.65 1845C1193.41 1870.14 1202.75 1894.2 1214.78 1917C1220.87 1928.55 1230.67 1939.66 1234.89 1952C1237.61 1959.94 1234 1968.13 1232.61 1976C1231.23 1983.89 1231.53 1993.01 1232.09 2001C1234.69 2038.13 1266.82 2069.58 1303 2074.71C1320.58 2077.21 1337.87 2074.85 1354 2067.22C1362.56 2063.17 1370.58 2054.98 1380 2053.33C1388.81 2051.78 1398.4 2055.78 1407 2057.39C1421.81 2060.16 1436.94 2062 1452 2062C1463.41 2062 1474.63 2061.48 1486 2060.96C1490.62 2060.75 1496.48 2058.62 1500.79 2061.18C1505.51 2063.99 1505 2070.28 1505 2075L1505 2110L1505 2201C1505 2218.47 1503.5 2236.74 1506.62 2254C1509.71 2271.13 1527.06 2282.7 1544 2275.09C1551.8 2271.59 1556.91 2264.38 1562.25 2258C1571.22 2247.27 1580.35 2236.65 1589.42 2226C1603.56 2209.4 1617.79 2192.86 1631.61 2176C1650.68 2152.75 1671.82 2130.94 1690 2107z"/>
<path style="fill:#3289b6; stroke:none;" d="M1103 1428L1104 1429L1103 1428M1107 1429L1108 1430L1107 1429M1061 1430L1062 1431L1061 1430M1133 1441L1134 1442L1133 1441M1137 1444L1138 1445L1137 1444M1142 1448L1143 1449L1142 1448M1143 1449L1144 1450L1143 1449M1148 1454L1149 1455L1148 1454M1149 1455L1150 1456L1149 1455z"/>
<path style="fill:#40a0bc; stroke:none;" d="M1959 1455L1960 1456L1959 1455z"/>
<path style="fill:#3289b6; stroke:none;" d="M1150 1456L1151 1457L1150 1456M1154 1461L1155 1462L1154 1461M1156 1464L1157 1465L1156 1464M1158 1467L1159 1468L1158 1467z"/>
<path style="fill:#4db5c2; stroke:none;" d="M1942 1470L1943 1471L1942 1470M1941 1471L1942 1472L1941 1471M1940 1472L1941 1473L1940 1472M1939 1473L1940 1474L1939 1473M1938 1474L1939 1475L1938 1474z"/>
<path style="fill:#3289b6; stroke:none;" d="M1163 1477L1164 1478L1163 1477z"/>
<path style="fill:#4db5c2; stroke:none;" d="M1933 1478L1934 1479L1933 1478z"/>
<path style="fill:#010101; stroke:none;" d="M1081 1479.46C1039.38 1486.9 1048.37 1553.02 1090 1545.54C1132.3 1537.93 1122.87 1471.98 1081 1479.46z"/>
<path style="fill:#4db5c2; stroke:none;" d="M1932 1479L1933 1480L1932 1479M1930 1481L1931 1482L1930 1481z"/>
<path style="fill:#3289b6; stroke:none;" d="M1166 1486L1167 1487L1166 1486M1168 1492L1169 1493L1168 1492M1112 1493L1113 1494L1112 1493M1169 1494L1170 1495L1169 1494M1170 1496L1171 1497L1170 1496M1173 1500L1174 1501L1173 1500M1174 1501L1175 1502L1174 1501M1178 1504L1179 1505L1178 1504z"/>
<path style="fill:#40a0bc; stroke:none;" d="M1983 1504L1984 1505L1983 1504z"/>
<path style="fill:#3289b6; stroke:none;" d="M1180 1505L1181 1506L1180 1505M1190 1508L1191 1509L1190 1508z"/>
<path style="fill:#4db5c2; stroke:none;" d="M1977 1509L1978 1510L1977 1509M1975 1511L1976 1512L1975 1511z"/>
<path style="fill:#3289b6; stroke:none;" d="M1211 1512L1212 1513L1211 1512z"/>
<path style="fill:#4db5c2; stroke:none;" d="M1974 1512L1975 1513L1974 1512z"/>
<path style="fill:#3289b6; stroke:none;" d="M1216 1513L1217 1514L1216 1513z"/>
<path style="fill:#4db5c2; stroke:none;" d="M1973 1513L1974 1514L1973 1513z"/>
<path style="fill:#3289b6; stroke:none;" d="M1221 1514L1222 1515L1221 1514z"/>
<path style="fill:#4db5c2; stroke:none;" d="M1972 1514L1973 1515L1972 1514z"/>
<path style="fill:#3289b6; stroke:none;" d="M1240 1518L1241 1519L1240 1518z"/>
<path style="fill:#4db5c2; stroke:none;" d="M1966 1519L1967 1520L1966 1519z"/>
<path style="fill:#2676b0; stroke:none;" d="M1246 1520L1246 1521L1249 1521L1246 1520M1250 1521L1250 1522L1254 1522L1250 1521z"/>
<path style="fill:#4db5c2; stroke:none;" d="M1964 1521L1965 1522L1964 1521z"/>
<path style="fill:#2676b0; stroke:none;" d="M1255 1522L1255 1523L1258 1523L1255 1522z"/>
<path style="fill:#4db5c2; stroke:none;" d="M1963 1522L1964 1523L1963 1522z"/>
<path style="fill:#2676b0; stroke:none;" d="M1259 1523L1259 1524L1263 1524L1259 1523M1264 1524L1265 1525L1264 1524M1267 1524L1268 1525L1267 1524M1271 1525L1272 1526L1271 1525M1276 1526L1277 1527L1276 1526M1280 1527L1281 1528L1280 1527M1285 1528L1286 1529L1285 1528M1294 1530L1295 1531L1294 1530z"/>
<path style="fill:#3289b6; stroke:none;" d="M1689 1553L1690 1554L1689 1553M1162 1557L1163 1558L1162 1557M1172 1557L1173 1558L1172 1557M1683 1558L1684 1559L1683 1558M1682 1559L1683 1560L1682 1559M1199 1563L1200 1564L1199 1563M1213 1566L1214 1567L1213 1566M1675 1566L1676 1567L1675 1566M1674 1567L1675 1568L1674 1567M1237 1571L1238 1572L1237 1571M1242 1572L1243 1573L1242 1572M1668 1574L1669 1575L1668 1574z"/>
<path style="fill:#010101; stroke:none;" d="M1767 1576.43C1747.81 1579.04 1730.43 1585.87 1716.01 1599.17C1658.53 1652.21 1709.31 1748.54 1784 1738.71C1795.21 1737.24 1806.6 1732.88 1816 1726.64C1836.21 1713.24 1851.22 1690.58 1852.91 1666C1856.12 1619.41 1817 1569.62 1767 1576.43z"/>
<path style="fill:#3289b6; stroke:none;" d="M1266 1577L1267 1578L1266 1577M1267 1578L1268 1579L1267 1578M1665 1578L1666 1579L1665 1578M1663 1581L1664 1582L1663 1581M1266 1584L1267 1585L1266 1584M1660 1586L1661 1587L1660 1586M1659 1587L1660 1588L1659 1587M1658.33 1589.67L1658.67 1590.33L1658.33 1589.67M1656.33 1592.67L1656.67 1593.33L1656.33 1592.67M1724 1592L1725 1593L1724 1592z"/>
<path style="fill:#010101; stroke:none;" d="M1342 1594.45C1333.36 1595.63 1326.59 1601.76 1320 1607C1304.98 1618.96 1291.31 1632.74 1279.65 1648C1235.7 1705.55 1221.77 1784.25 1244.67 1853C1250.3 1869.92 1257.81 1896.76 1272.18 1908.43C1279.61 1914.46 1290.18 1908.19 1298 1906.16C1313.03 1902.25 1329.4 1903.29 1344 1908.34C1352.02 1911.12 1361.28 1918.88 1370 1917.77C1378.22 1916.73 1385.58 1908.83 1392 1904.15L1440 1869.15C1487.68 1834.38 1535.02 1799.07 1583 1764.71C1597.79 1754.12 1612.25 1743.07 1627 1732.42C1633.52 1727.71 1642.92 1722.95 1647.26 1716C1652.81 1707.1 1641.51 1687.97 1640.29 1678C1639.69 1673.12 1640.88 1667.65 1638.99 1663C1635.72 1654.95 1627.45 1653.83 1620 1652.12C1603.43 1648.31 1586.67 1644.96 1570 1641.6C1516.56 1630.85 1463.31 1619.13 1410 1607.79C1394.67 1604.53 1379.35 1601.18 1364 1598C1357.05 1596.56 1349.14 1593.48 1342 1594.45z"/>
<path style="fill:#2676b0; stroke:none;" d="M1347 1594L1348 1595L1347 1594z"/>
<path style="fill:#3289b6; stroke:none;" d="M1254 1596L1255 1597L1254 1596z"/>
<path style="fill:#2676b0; stroke:none;" d="M1334 1596L1335 1597L1334 1596z"/>
<path style="fill:#40a0bc; stroke:none;" d="M1654 1596L1655 1597L1654 1596z"/>
<path style="fill:#3289b6; stroke:none;" d="M1719 1596L1720 1597L1719 1596M1253 1597L1254 1598L1253 1597z"/>
<path style="fill:#2676b0; stroke:none;" d="M1332 1597L1333 1598L1332 1597M1328 1600L1329 1601L1328 1600z"/>
<path style="fill:#3289b6; stroke:none;" d="M1248 1603L1249 1604L1248 1603z"/>
<path style="fill:#2676b0; stroke:none;" d="M1323.67 1603.33L1324.33 1603.67L1323.67 1603.33M1322 1604L1323 1605L1322 1604M1321 1605L1322 1606L1321 1605z"/>
<path style="fill:#3289b6; stroke:none;" d="M1710 1605L1711 1606L1710 1605z"/>
<path style="fill:#2676b0; stroke:none;" d="M1318 1608L1321 1606L1318 1608z"/>
<path style="fill:#3289b6; stroke:none;" d="M1243 1609L1244 1610L1243 1609M1706 1610L1707 1611L1706 1610M1312 1613L1313 1614L1312 1613M1704 1613L1705 1614L1704 1613M1703 1614L1704 1615L1703 1614M1702 1616L1703 1617L1702 1616M1236 1618L1237 1619L1236 1618M1231 1625L1232 1626L1231 1625M1697 1626L1698 1627L1697 1626M1229 1628L1230 1629L1229 1628M1225 1634L1226 1635L1225 1634M1223 1637L1224 1638L1223 1637M1288 1637L1289 1638L1288 1637M1283 1643L1284 1644L1283 1643M1279 1648L1280 1649L1279 1648M1276 1652L1277 1653L1276 1652M1274 1655L1275 1656L1274 1655M1268 1664L1269 1665L1268 1664z"/>
<path style="fill:#40a0bc; stroke:none;" d="M2121 1669L2122 1670L2121 1669M2118.67 1670.33L2119.33 1670.67L2118.67 1670.33z"/>
<path style="fill:#3289b6; stroke:none;" d="M1262 1674L1263 1675L1262 1674z"/>
<path style="fill:#40a0bc; stroke:none;" d="M2109 1674L2110 1675L2109 1674z"/>
<path style="fill:#4db5c2; stroke:none;" d="M2103 1677L2104 1678L2103 1677M2101 1678L2102 1679L2101 1678M2098 1680L2099 1681L2098 1680M2097 1681L2098 1682L2097 1681M2096 1682L2097 1683L2096 1682M2093 1684L2094 1685L2093 1684M2092 1685L2093 1686L2092 1685z"/>
<path style="fill:#010101; stroke:none;" d="M2145 1716.43C2101.22 1722.2 2108.82 1789.33 2153 1783.81C2194.39 1778.65 2185.6 1711.09 2145 1716.43z"/>
<path style="fill:#40a0bc; stroke:none;" d="M2152.67 1716.33L2153.33 1716.67L2152.67 1716.33M2156 1717L2157 1718L2156 1717z"/>
<path style="fill:#4db5c2; stroke:none;" d="M2135 1718L2136 1719L2135 1718z"/>
<path style="fill:#010101; stroke:none;" d="M1894 1719.65C1887.25 1721.78 1884.01 1729.55 1880.33 1735C1874.27 1743.99 1867.11 1751.79 1859 1758.95C1848.97 1767.8 1837.35 1774.86 1825 1779.99C1817.94 1782.92 1807.56 1784.12 1802.39 1790.11C1796.67 1796.74 1799 1808.85 1799 1817L1799 1886L1799 1932C1799 1939.31 1798.03 1947.05 1803.22 1952.96C1812.38 1963.36 1832.06 1966.52 1845 1969.42C1884.84 1978.35 1924.92 1977.13 1964 1964.97C2013.39 1949.61 2058.12 1917.08 2085.57 1873C2092.4 1862.05 2106.2 1843.42 2105.8 1830C2105.6 1823.26 2098.63 1819.98 2094 1816.33C2087.11 1810.9 2081.12 1804.34 2076.34 1797C2071.7 1789.86 2068.45 1782.15 2066.04 1774C2064.31 1768.17 2064.05 1761.71 2058.9 1757.64C2049.33 1750.08 2030.7 1749.17 2019 1746.58C1990.93 1740.34 1962.98 1733.52 1935 1726.88C1923.82 1724.23 1905.27 1716.11 1894 1719.65z"/>
<path style="fill:#4db5c2; stroke:none;" d="M2130 1721L2131 1722L2130 1721z"/>
<path style="fill:#3289b6; stroke:none;" d="M1821 1722L1822 1723L1821 1722z"/>
<path style="fill:#4db5c2; stroke:none;" d="M2127 1723L2128 1724L2127 1723z"/>
<path style="fill:#40a0bc; stroke:none;" d="M2167 1723L2168 1724L2167 1723z"/>
<path style="fill:#4db5c2; stroke:none;" d="M2126 1724L2127 1725L2126 1724z"/>
<path style="fill:#3289b6; stroke:none;" d="M1817 1725L1818 1726L1817 1725z"/>
<path style="fill:#4db5c2; stroke:none;" d="M2122 1728L2123 1729L2122 1728M2121 1729L2122 1730L2121 1729z"/>
<path style="fill:#40a0bc; stroke:none;" d="M2173 1729L2174 1730L2173 1729z"/>
<path style="fill:#4db5c2; stroke:none;" d="M2119 1732L2120 1733L2119 1732z"/>
<path style="fill:#3289b6; stroke:none;" d="M1802 1733L1803 1734L1802 1733z"/>
<path style="fill:#40a0bc; stroke:none;" d="M2177 1735L2178 1736L2177 1735M1757 1738L1758 1739L1757 1738z"/>
<path style="fill:#3289b6; stroke:none;" d="M1775 1739L1775 1740L1779 1740L1775 1739M1780 1739L1781 1740L1780 1739M1782 1739L1783 1740L1782 1739z"/>
<path style="fill:#40a0bc; stroke:none;" d="M2181 1748L2181 1755L2182 1755L2181 1748M2180 1758L2181 1759L2180 1758z"/>
<path style="fill:#010101; stroke:none;" d="M1560 2175C1572.58 2169.13 1582.8 2151.44 1591.73 2141C1614.49 2114.41 1637.3 2087.84 1659.75 2061C1678.57 2038.51 1697.94 2016.49 1716.75 1994C1724.9 1984.27 1734.96 1974.9 1741.52 1964C1746.74 1955.33 1746 1944.73 1746 1935C1746 1916.98 1745 1899.06 1745 1881C1745 1860.62 1746 1840.34 1746 1820C1746 1811.62 1747.7 1800.89 1744.3 1793C1741.07 1785.54 1732.71 1785.22 1726 1782.92C1713.57 1778.66 1702.77 1771.78 1692 1764.44C1687.41 1761.31 1682.52 1759.14 1677 1761.13C1669.32 1763.91 1662.47 1770.78 1656 1775.63C1644.08 1784.56 1631.99 1793.28 1620 1802.12C1578.31 1832.84 1536.57 1863.49 1495 1894.37C1473.71 1910.18 1452.25 1925.76 1431 1941.63C1422.35 1948.08 1408.72 1954.66 1403.01 1964.01C1399.32 1970.06 1400.19 1982.23 1401.47 1989C1404.74 2006.33 1426.59 2007.98 1441 2008C1464.69 2008.04 1487.71 2007.75 1511 2002.79C1525.08 1999.79 1540.03 1994.24 1551.9 2006.1C1564.38 2018.59 1559.01 2038.47 1559 2054L1559 2134C1559 2147.12 1556.95 2162.21 1560 2175z"/>
<path style="fill:#40a0bc; stroke:none;" d="M2179 1760L2180 1761L2179 1760M2178 1763L2179 1764L2178 1763z"/>
<path style="fill:#3289b6; stroke:none;" d="M1848 1767L1849 1768L1848 1767M1845 1769L1846 1770L1845 1769M1840 1772L1841 1773L1840 1772z"/>
<path style="fill:#4db5c2; stroke:none;" d="M2172 1772L2173 1773L2172 1772M2171 1773L2172 1774L2171 1773M2170 1774L2171 1775L2170 1774M2169 1775L2170 1776L2169 1775M2168 1776L2169 1777L2168 1776z"/>
<path style="fill:#3289b6; stroke:none;" d="M1826 1779L1827 1780L1826 1779z"/>
<path style="fill:#4db5c2; stroke:none;" d="M2162 1780L2163 1781L2162 1780M2160 1781L2161 1782L2160 1781M2158 1782L2159 1783L2158 1782z"/>
<path style="fill:#3289b6; stroke:none;" d="M1815 1783L1816 1784L1815 1783M1812 1784L1813 1785L1812 1784z"/>
<path style="fill:#40a0bc; stroke:none;" d="M2225 1784L2226 1785L2225 1784z"/>
<path style="fill:#3289b6; stroke:none;" d="M1804 1787L1805 1788L1804 1787z"/>
<path style="fill:#40a0bc; stroke:none;" d="M2220 1794L2221 1795L2220 1794M2218 1797L2219 1798L2218 1797M2217 1798L2218 1799L2217 1798M2216 1800L2217 1801L2216 1800M2214 1803L2215 1804L2214 1803M2210 1807L2211 1808L2210 1807z"/>
<path style="fill:#4db5c2; stroke:none;" d="M2202 1815L2203 1816L2202 1815M2201 1816L2202 1817L2201 1816M2200 1817L2201 1818L2200 1817z"/>
<path style="fill:#2676b0; stroke:none;" d="M1509 1818L1510 1819L1509 1818z"/>
<path style="fill:#4db5c2; stroke:none;" d="M2197 1819L2198 1820L2197 1819z"/>
<path style="fill:#2676b0; stroke:none;" d="M1505 1821L1506 1822L1505 1821M1501 1824L1502 1825L1501 1824z"/>
<path style="fill:#4db5c2; stroke:none;" d="M2189 1824L2190 1825L2189 1824M2187 1825L2188 1826L2187 1825z"/>
<path style="fill:#2676b0; stroke:none;" d="M1497 1827L1498 1828L1497 1827M1493 1831L1496 1829L1493 1831M1492 1831L1493 1832L1492 1831M1490.67 1832.33L1491.33 1832.67L1490.67 1832.33M1489 1833L1490 1834L1489 1833M1488 1834L1489 1835L1488 1834z"/>
<path style="fill:#3289b6; stroke:none;" d="M1480 1839L1481 1840L1480 1839M1476 1842L1477 1843L1476 1842M1469 1847L1470 1848L1469 1847M1465 1850L1466 1851L1465 1850M1458 1855L1459 1856L1458 1855z"/>
<path style="fill:#2676b0; stroke:none;" d="M1543 1858L1544 1859L1543 1858z"/>
<path style="fill:#3289b6; stroke:none;" d="M1451 1860L1452 1861L1451 1860z"/>
<path style="fill:#2676b0; stroke:none;" d="M1539 1861L1540 1862L1539 1861z"/>
<path style="fill:#3289b6; stroke:none;" d="M1447 1863L1448 1864L1447 1863z"/>
<path style="fill:#2676b0; stroke:none;" d="M1535 1864L1536 1865L1535 1864M1532 1866L1533 1867L1532 1866z"/>
<path style="fill:#3289b6; stroke:none;" d="M1440 1868L1441 1869L1440 1868z"/>
<path style="fill:#2676b0; stroke:none;" d="M1528 1869L1529 1870L1528 1869M1526 1870L1527 1871L1526 1870z"/>
<path style="fill:#3289b6; stroke:none;" d="M1436 1871L1437 1872L1436 1871z"/>
<path style="fill:#2676b0; stroke:none;" d="M1525 1871L1526 1872L1525 1871M1523.67 1872.33L1524.33 1872.67L1523.67 1872.33M1522 1873L1523 1874L1522 1873M1521 1874L1522 1875L1521 1874M1519.67 1875.33L1520.33 1875.67L1519.67 1875.33z"/>
<path style="fill:#3289b6; stroke:none;" d="M1429 1876L1430 1877L1429 1876M1425 1879L1426 1880L1425 1879M1515 1879L1516 1880L1515 1879M1418 1884L1419 1885L1418 1884M1414 1887L1415 1888L1414 1887M1504 1887L1505 1888L1504 1887M1500 1890L1501 1891L1500 1890M1496 1893L1497 1894L1496 1893M1492 1896L1493 1897L1492 1896M1481 1904L1482 1905L1481 1904M1477 1907L1478 1908L1477 1907M1473 1910L1474 1911L1473 1910M1469 1913L1470 1914L1469 1913M1462 1918L1463 1919L1462 1918M1458 1921L1459 1922L1458 1921M1454 1924L1455 1925L1454 1924M1450 1927L1451 1928L1450 1927M1990 1954L1991 1955L1990 1954z"/>
<path style="fill:#010101; stroke:none;" d="M1310 1957.52C1268.02 1966.49 1282.71 2030.29 1324 2021.48C1365.17 2012.7 1351.06 1948.74 1310 1957.52z"/>
<path style="fill:#3289b6; stroke:none;" d="M1973 1961L1974 1962L1973 1961M1958 1966L1959 1967L1958 1966z"/>
<path style="fill:#40a0bc; stroke:none;" d="M1928 1973L1929 1974L1928 1973z"/>
<path style="fill:#3289b6; stroke:none;" d="M2028 1994L2029 1995L2028 1994M2026 1995L2027 1996L2026 1995M1530 1998L1531 1999L1530 1998M1535 1998L1536 1999L1535 1998M2020 1998L2021 1999L2020 1998M1524 1999L1525 2000L1524 1999M2018 1999L2019 2000L2018 1999M1520 2000L1521 2001L1520 2000M2016 2000L2017 2001L2016 2000M1516 2001L1517 2002L1516 2001M1549 2003L1550 2004L1549 2003M2002 2006L2003 2007L2002 2006M1554 2008L1555 2009L1554 2008M1994 2009L1995 2010L1994 2009z"/>
<path style="fill:#40a0bc; stroke:none;" d="M1971 2016L1972 2017L1971 2016z"/>
<path style="fill:#2676b0; stroke:none;" d="M1680 2036L1681 2037L1680 2036M1675 2042L1676 2043L1675 2042M1674 2043L1675 2044L1674 2043M1669 2049L1670 2050L1669 2049M1666 2053L1667 2054L1666 2053M1665 2054L1666 2055L1665 2054M1664 2055L1663 2058L1664 2055M1662 2058L1663 2059L1662 2058z"/>
<path style="fill:#3289b6; stroke:none;" d="M1656 2064L1657 2065L1656 2064M1650 2071L1651 2072L1650 2071z"/>
<path style="fill:#2676b0; stroke:none;" d="M1716 2075L1717 2076L1716 2075z"/>
<path style="fill:#3289b6; stroke:none;" d="M1645 2077L1646 2078L1645 2077M1644 2078L1645 2079L1644 2078z"/>
<path style="fill:#2676b0; stroke:none;" d="M1710 2082L1711 2083L1710 2082z"/>
<path style="fill:#3289b6; stroke:none;" d="M1639 2084L1640 2085L1639 2084z"/>
<path style="fill:#2676b0; stroke:none;" d="M1705 2088L1706 2089L1705 2088M1704 2089L1705 2090L1704 2089z"/>
<path style="fill:#3289b6; stroke:none;" d="M1633 2091L1634 2092L1633 2091z"/>
<path style="fill:#2676b0; stroke:none;" d="M1698 2095L1698 2097L1700 2095L1698 2095z"/>
<path style="fill:#3289b6; stroke:none;" d="M1628 2097L1629 2098L1628 2097z"/>
<path style="fill:#2676b0; stroke:none;" d="M1697 2097L1698 2098L1697 2097z"/>
<path style="fill:#3289b6; stroke:none;" d="M1627 2098L1628 2099L1627 2098z"/>
<path style="fill:#2676b0; stroke:none;" d="M1696 2098L1697 2099L1696 2098M1695 2099L1696 2100L1695 2099M1694 2100L1695 2101L1694 2100M1693 2101L1692 2104L1693 2101z"/>
<path style="fill:#3289b6; stroke:none;" d="M1622 2104L1623 2105L1622 2104z"/>
<path style="fill:#2676b0; stroke:none;" d="M1691 2104L1692 2105L1691 2104z"/>
<path style="fill:#3289b6; stroke:none;" d="M1621 2105L1622 2106L1621 2105z"/>
<path style="fill:#2676b0; stroke:none;" d="M1690 2105L1691 2106L1690 2105M1740 2105L1741 2106L1740 2105M1739 2106L1740 2107L1739 2106z"/>
<path style="fill:#3289b6; stroke:none;" d="M1689 2107L1690 2108L1689 2107M1616 2111L1617 2112L1616 2111M1683 2114L1684 2115L1683 2114z"/>
<path style="fill:#2676b0; stroke:none;" d="M1726 2114L1727 2115L1726 2114M1723 2116L1724 2117L1723 2116z"/>
<path style="fill:#3289b6; stroke:none;" d="M1610 2118L1611 2119L1610 2118z"/>
<path style="fill:#2676b0; stroke:none;" d="M1719 2119L1720 2120L1719 2119z"/>
<path style="fill:#3289b6; stroke:none;" d="M1678 2120L1679 2121L1678 2120M1677 2121L1678 2122L1677 2121z"/>
<path style="fill:#2676b0; stroke:none;" d="M1717 2121L1718 2122L1717 2121M1716 2122L1717 2123L1716 2122M1713 2125L1716 2123L1713 2125z"/>
<path style="fill:#3289b6; stroke:none;" d="M1605 2124L1606 2125L1605 2124M1604 2125L1605 2126L1604 2125z"/>
<path style="fill:#2676b0; stroke:none;" d="M1712 2125L1713 2126L1712 2125M1711 2126L1712 2127L1711 2126z"/>
<path style="fill:#3289b6; stroke:none;" d="M1672 2127L1673 2128L1672 2127z"/>
<path style="fill:#2676b0; stroke:none;" d="M1710 2127L1711 2128L1710 2127M1709 2128L1710 2129L1709 2128M1708 2129C1666.38 2180.64 1690.54 2264.68 1762 2271.83C1779.04 2273.53 1794.32 2270.43 1810 2264L1810 2263C1796.3 2252.49 1789.83 2234.11 1777.33 2222.32C1772.7 2217.94 1763.75 2218.67 1758 2215.73C1740.37 2206.7 1738.06 2190.22 1742 2173L1731.12 2161L1708 2129z"/>
<path style="fill:#3289b6; stroke:none;" d="M1599 2131L1600 2132L1599 2131M1705 2132L1706 2133L1705 2132M1666 2134L1667 2135L1666 2134M1661 2140L1662 2141L1661 2140M1699 2140L1700 2141L1699 2140M1660 2141L1661 2142L1660 2141M1696 2145L1697 2146L1696 2145M1655 2147L1656 2148L1655 2147M1695 2147L1696 2148L1695 2147M1694 2149L1695 2150L1694 2149M1650 2153L1651 2154L1650 2153M1649 2154L1650 2155L1649 2154z"/>
<path style="fill:#010101; stroke:none;" d="M1769 2154.43C1727.14 2159.94 1733.27 2223.69 1775 2219.53C1817.44 2215.3 1811.53 2148.83 1769 2154.43z"/>
<path style="fill:#2676b0; stroke:none;" d="M1762 2155L1763 2156L1762 2155z"/>
<path style="fill:#3289b6; stroke:none;" d="M1691 2156L1692 2157L1691 2156z"/>
<path style="fill:#2676b0; stroke:none;" d="M1759 2156L1760 2157L1759 2156M1755 2158L1756 2159L1755 2158z"/>
<path style="fill:#3289b6; stroke:none;" d="M1690 2159L1691 2160L1690 2159M1644 2160L1645 2161L1644 2160z"/>
<path style="fill:#2676b0; stroke:none;" d="M1752 2160L1753 2161L1752 2160z"/>
<path style="fill:#3289b6; stroke:none;" d="M1643 2161L1644 2162L1643 2161z"/>
<path style="fill:#2676b0; stroke:none;" d="M1749 2162L1750 2163L1749 2162M1748 2163L1749 2164L1748 2163M1747 2164L1748 2165L1747 2164M1746 2165L1747 2166L1746 2165M1745 2166L1744 2169L1745 2166z"/>
<path style="fill:#3289b6; stroke:none;" d="M1638 2167L1639 2168L1638 2167z"/>
<path style="fill:#2676b0; stroke:none;" d="M1743.33 2169.67L1743.67 2170.33L1743.33 2169.67M1742 2171L1743 2172L1742 2171z"/>
<path style="fill:#3289b6; stroke:none;" d="M1633 2173L1634 2174L1633 2173M1632 2174L1633 2175L1632 2174M1686 2180L1687 2181L1686 2180M1739 2183L1740 2184L1739 2183M1739 2189L1740 2190L1739 2189M1686 2192L1687 2193L1686 2192M1742 2200L1743 2201L1742 2200M1687 2201L1688 2202L1687 2201M1743 2202L1744 2203L1743 2202z"/>
<path style="fill:#2676b0; stroke:none;" d="M1800 2203L1801 2204L1800 2203z"/>
<path style="fill:#3289b6; stroke:none;" d="M1745 2205L1746 2206L1745 2205z"/>
<path style="fill:#2676b0; stroke:none;" d="M1798 2206L1799 2207L1798 2206z"/>
<path style="fill:#3289b6; stroke:none;" d="M1753 2213L1754 2214L1753 2213z"/>
<path style="fill:#2676b0; stroke:none;" d="M1791 2213L1792 2214L1791 2213M1788.67 2215.33L1789.33 2215.67L1788.67 2215.33M1787 2216L1788 2217L1787 2216M1784.67 2217.33L1785.33 2217.67L1784.67 2217.33z"/>
<path style="fill:#3289b6; stroke:none;" d="M1764 2218L1765 2219L1764 2218z"/>
<path style="fill:#2676b0; stroke:none;" d="M1781 2218L1781 2219L1784 2219L1781 2218z"/>
<path style="fill:#3289b6; stroke:none;" d="M1770 2219L1771 2220L1770 2219z"/>
<path style="fill:#2676b0; stroke:none;" d="M1776 2219L1776 2220L1780 2220L1776 2219z"/>
<path style="fill:#3289b6; stroke:none;" d="M1698 2231L1699 2232L1698 2231M1700 2234L1701 2235L1700 2234M1702 2237L1703 2238L1702 2237M1707 2243L1708 2244L1707 2243M1708 2244L1709 2245L1708 2244M1709 2245L1710 2246L1709 2245M1711 2247L1712 2248L1711 2247M1712 2248L1713 2249L1712 2248M1713 2249L1714 2250L1713 2249z"/>
<path style="fill:#2676b0; stroke:none;" d="M1825 2253L1826 2254L1825 2253z"/>
<path style="fill:#3289b6; stroke:none;" d="M1719 2254L1720 2255L1719 2254z"/>
<path style="fill:#2676b0; stroke:none;" d="M1820.67 2256.33L1821.33 2256.67L1820.67 2256.33M1819 2257L1820 2258L1819 2257M1817.67 2258.33L1818.33 2258.67L1817.67 2258.33M1816 2259L1817 2260L1816 2259M1814 2260L1815 2261L1814 2260z"/>
<path style="fill:#3289b6; stroke:none;" d="M1730 2261L1731 2262L1730 2261z"/>
<path style="fill:#2676b0; stroke:none;" d="M1812.67 2261.33L1813.33 2261.67L1812.67 2261.33M1810.67 2262.33L1811.33 2262.67L1810.67 2262.33z"/>
<path style="fill:#3289b6; stroke:none;" d="M1736 2264L1737 2265L1736 2264z"/>
</svg>
