<svg version="1.1" id="Layer_1" xmlns="http://www.w3.org/2000/svg" xmlns:xlink="http://www.w3.org/1999/xlink" x="0px" y="0px"
	 width="100%" viewBox="0 0 3544 3544" enable-background="new 0 0 3544 3544" xml:space="preserve">
<path fill="#000000" opacity="1.000000" stroke="none" 
	d="
M1656.000000,3546.000000 
	C1104.000000,3546.000000 553.000000,3546.000000 2.000000,3546.000000 
	C2.000000,2364.666748 2.000000,1183.333374 2.000000,2.000000 
	C1183.333374,2.000000 2364.666748,2.000000 3546.000000,2.000000 
	C3546.000000,1183.333374 3546.000000,2364.666748 3546.000000,3546.000000 
	C2916.333252,3546.000000 2286.666748,3546.000000 1656.000000,3546.000000 
M1364.774170,1382.705322 
	C1339.093628,1419.892822 1322.399658,1460.818359 1313.878662,1505.137207 
	C1312.501099,1512.302368 1311.485474,1519.549927 1309.798096,1526.639160 
	C1308.389893,1532.555908 1305.420776,1534.346680 1299.552124,1533.301025 
	C1291.461182,1531.859497 1283.409790,1530.183105 1275.369263,1528.476074 
	C1265.562500,1526.394165 1255.784668,1524.176270 1244.678223,1521.248413 
	C1227.771973,1517.766357 1210.919434,1513.990112 1193.942261,1510.897827 
	C1180.961792,1508.533569 1173.316772,1501.214722 1170.040649,1488.649414 
	C1160.942871,1453.753906 1122.691284,1423.338257 1077.078003,1430.250488 
	C1035.770996,1436.510010 1002.524902,1471.449463 1003.547302,1515.158691 
	C1004.380432,1550.775146 1025.411255,1583.061890 1056.958496,1594.721313 
	C1091.293335,1607.411011 1130.977051,1599.764160 1154.566040,1569.891357 
	C1161.990723,1560.488770 1170.143066,1558.485596 1181.619629,1561.170532 
	C1208.786865,1567.526245 1236.240845,1572.650757 1263.537476,1578.466675 
	C1266.394409,1579.075439 1268.974976,1580.981079 1272.654297,1582.752075 
	C1269.658081,1586.206177 1267.848877,1588.503296 1265.825195,1590.592896 
	C1241.293579,1615.925659 1221.270752,1644.373779 1207.503906,1676.898315 
	C1199.209595,1696.493408 1192.372559,1716.642700 1189.236206,1739.382690 
	C1183.653687,1767.333984 1182.819214,1795.452881 1186.795654,1823.650757 
	C1192.795410,1866.196777 1208.010498,1905.362793 1231.538086,1941.197876 
	C1238.376587,1951.613647 1240.519043,1961.464600 1237.530762,1974.014648 
	C1233.154175,1992.394897 1234.261353,2011.125000 1242.597656,2028.682861 
	C1265.906616,2077.776123 1325.075562,2093.365967 1370.261597,2061.981445 
	C1379.022461,2055.896484 1387.599731,2054.652588 1397.578735,2056.928955 
	C1406.297485,2058.917969 1415.198975,2060.105713 1425.639526,2062.149414 
	C1436.905273,2062.873291 1448.169800,2064.147461 1459.437134,2064.172607 
	C1471.707642,2064.200195 1483.989990,2063.209229 1496.249390,2062.394531 
	C1505.100098,2061.806152 1507.894287,2063.958984 1508.284180,2072.631104 
	C1508.403809,2075.291504 1508.319458,2077.961182 1508.320068,2080.626709 
	C1508.333374,2132.269287 1508.268799,2183.912109 1508.444702,2235.554199 
	C1508.469482,2242.827881 1509.091431,2250.214600 1510.529785,2257.327881 
	C1511.480591,2262.030029 1513.537964,2267.038330 1516.566772,2270.694580 
	C1527.250610,2283.592041 1546.531494,2282.537109 1558.257080,2268.763672 
	C1588.438721,2233.310303 1618.579346,2197.821777 1648.652954,2162.276367 
	C1658.734619,2150.360352 1668.564697,2138.230957 1679.690063,2125.583008 
	C1683.690796,2120.395752 1687.457397,2115.006104 1691.734619,2110.057861 
	C1706.204590,2093.317383 1720.830811,2076.711914 1735.454956,2060.105469 
	C1739.012817,2056.065430 1742.792358,2052.220215 1747.492676,2047.191162 
	C1747.946045,2050.341064 1748.237305,2051.565918 1748.282104,2052.799561 
	C1748.749268,2065.682129 1749.409668,2078.564453 1749.529785,2091.451172 
	C1749.603882,2099.389893 1747.079712,2106.398193 1739.833374,2110.965820 
	C1735.138062,2113.925537 1730.614380,2117.157471 1724.661621,2120.314209 
	C1705.993164,2133.887939 1694.262329,2151.965332 1690.969482,2174.823975 
	C1686.490845,2205.914307 1694.824829,2232.750000 1719.125244,2253.786377 
	C1739.626831,2271.534424 1763.757568,2277.169922 1789.915649,2273.723389 
	C1805.211548,2271.708252 1819.370361,2265.700439 1831.779907,2253.856689 
	C1859.190063,2230.845459 1869.465332,2192.727051 1855.726929,2158.119385 
	C1848.375366,2139.600830 1836.256958,2124.747070 1818.417480,2115.588379 
	C1806.145020,2109.287598 1801.512817,2100.281250 1802.133789,2086.649902 
	C1802.995483,2067.738770 1802.293091,2048.758545 1802.414795,2029.809204 
	C1802.440186,2025.862671 1803.139404,2021.920410 1804.680664,2016.872559 
	C1811.385498,2013.746216 1816.744141,2018.420776 1822.593506,2020.043823 
	C1859.414795,2030.260132 1896.768066,2033.792114 1934.610352,2027.789795 
	C1949.219971,2025.472534 1963.525269,2021.237183 1979.511597,2017.894653 
	C1985.972900,2015.493286 1992.390015,2012.964233 1998.903198,2010.712769 
	C2027.095947,2000.967896 2053.186768,1987.305298 2075.842041,1967.824585 
	C2085.838379,1959.229248 2094.605713,1949.204590 2105.124023,1939.178833 
	C2111.010986,1931.776123 2117.131348,1924.545410 2122.739746,1916.937256 
	C2137.372314,1897.087158 2148.839355,1875.401978 2157.732178,1852.490234 
	C2161.839111,1841.908936 2168.382324,1835.550659 2179.205566,1832.628906 
	C2191.228271,1829.383667 2201.723633,1823.189819 2211.655273,1813.653687 
	C2223.567383,1801.001831 2231.206787,1786.165405 2234.549316,1769.099243 
	C2236.238037,1760.476440 2240.932129,1754.129028 2248.536133,1749.500610 
	C2257.043945,1744.322021 2265.380615,1738.795776 2273.389404,1732.876099 
	C2293.504639,1718.008301 2311.793213,1701.264404 2326.384766,1678.971436 
	C2350.243652,1645.893677 2361.369141,1608.430054 2363.534668,1568.188843 
	C2364.641113,1547.624634 2363.603516,1527.053833 2359.928955,1506.646240 
	C2353.814941,1472.689453 2341.158691,1441.628540 2319.873535,1414.356079 
	C2297.150391,1385.240723 2268.610596,1363.222656 2235.298096,1347.603027 
	C2221.135742,1340.962402 2212.596191,1331.387573 2207.538330,1316.083374 
	C2191.716797,1268.207886 2138.438721,1247.586914 2095.885254,1266.624878 
	C2087.763428,1270.258545 2079.340820,1273.718872 2068.700684,1270.149536 
	C2055.576904,1265.637939 2042.637573,1260.435303 2029.262451,1256.865479 
	C2020.781860,1254.602295 2011.304932,1255.989746 2002.886230,1253.592651 
	C1985.160889,1248.545654 1967.659302,1250.813477 1948.356323,1252.415405 
	C1920.437988,1255.634766 1894.427490,1265.251953 1869.247925,1277.104492 
	C1864.260376,1266.464722 1868.561646,1256.990234 1879.332397,1254.332520 
	C1891.587280,1251.308594 1902.071533,1245.252808 1911.706299,1237.387939 
	C1955.311401,1201.794067 1951.269775,1137.008423 1909.905396,1104.437866 
	C1892.429199,1090.676880 1872.432739,1086.381348 1850.269775,1087.425293 
	C1787.254395,1090.393311 1763.835327,1154.631348 1773.703247,1194.052124 
	C1777.755859,1210.241699 1786.906128,1222.894653 1799.850952,1232.977417 
	C1807.433716,1238.883789 1813.426880,1245.881104 1815.447510,1255.420410 
	C1817.588135,1265.527588 1814.535767,1275.158203 1811.597534,1284.700073 
	C1810.394775,1288.605957 1807.089478,1287.907593 1803.252075,1286.890869 
	C1791.739868,1280.955688 1780.423462,1274.597412 1768.680176,1269.161377 
	C1727.368652,1250.038574 1683.630981,1241.085449 1638.325073,1240.583984 
	C1620.484619,1240.386353 1602.512817,1242.266968 1584.782715,1244.589233 
	C1566.110229,1247.034790 1547.650269,1251.119995 1528.468628,1258.042358 
	C1512.634644,1264.845825 1496.325439,1270.731934 1481.062866,1278.638428 
	C1446.216797,1296.689453 1416.241333,1321.305664 1390.198120,1350.554565 
	C1381.415039,1360.418579 1373.940063,1371.447388 1364.774170,1382.705322 
z"/>
<path fill="#41A1BB" opacity="1.000000" stroke="none" 
	d="
M2210.444824,1814.173828 
	C2201.723633,1823.189819 2191.228271,1829.383667 2179.205566,1832.628906 
	C2168.382324,1835.550659 2161.839111,1841.908936 2157.732178,1852.490234 
	C2148.839355,1875.401978 2137.372314,1897.087158 2122.739746,1916.937256 
	C2117.131348,1924.545410 2111.010986,1931.776123 2104.073730,1939.034180 
	C2094.926270,1928.522339 2086.686768,1918.261230 2078.822510,1907.720337 
	C2076.561035,1904.688843 2075.381348,1900.850220 2073.768555,1896.705566 
	C2087.490479,1879.527222 2098.233643,1861.260620 2106.521484,1841.549683 
	C2111.351074,1830.063477 2111.069824,1828.985229 2100.907959,1821.814087 
	C2083.482910,1809.517822 2072.628662,1792.809570 2068.437256,1772.125488 
	C2066.477295,1762.455078 2061.074463,1757.932251 2052.080322,1755.903687 
	C2022.594360,1749.253296 1993.133423,1742.490234 1963.700562,1735.609497 
	C1953.743896,1733.282104 1943.899414,1730.475220 1933.848389,1727.205566 
	C1931.884521,1723.388916 1930.391113,1720.014771 1928.219604,1717.155396 
	C1898.502808,1678.023926 1868.655396,1638.991455 1838.918213,1599.875366 
	C1820.631348,1575.821167 1802.544067,1551.614746 1784.195679,1527.607788 
	C1781.274536,1523.785889 1779.203979,1518.704224 1773.565186,1516.999023 
	C1774.503052,1510.933838 1775.321899,1505.707031 1776.187988,1500.488159 
	C1783.632324,1455.628906 1790.662354,1410.693970 1798.803467,1365.961426 
	C1801.122314,1353.220215 1797.805542,1344.813110 1787.350708,1338.041748 
	C1748.968750,1313.182739 1707.046997,1298.504761 1661.593384,1293.867188 
	C1641.720337,1291.839600 1621.791260,1290.868652 1601.998779,1294.269287 
	C1587.346558,1296.786987 1572.835571,1300.125732 1557.946777,1302.429688 
	C1549.885742,1291.091309 1541.931152,1280.563599 1534.518799,1269.667114 
	C1532.248047,1266.328979 1531.464600,1261.979370 1530.000000,1258.092896 
	C1547.650269,1251.119995 1566.110229,1247.034790 1584.782715,1244.589233 
	C1602.512817,1242.266968 1620.484619,1240.386353 1638.325073,1240.583984 
	C1683.630981,1241.085449 1727.368652,1250.038574 1768.680176,1269.161377 
	C1780.423462,1274.597412 1791.739868,1280.955688 1803.327271,1287.947510 
	C1801.504272,1293.068970 1803.948853,1296.025024 1806.124634,1298.895752 
	C1819.900391,1317.072021 1833.698120,1335.232300 1847.644043,1353.277710 
	C1849.158813,1355.237549 1851.668213,1356.428589 1853.610840,1358.723389 
	C1852.232910,1364.259644 1850.574341,1368.983398 1849.749512,1373.848511 
	C1843.879028,1408.474487 1838.130737,1443.121216 1832.447021,1477.778442 
	C1830.033936,1492.492554 1827.969482,1507.264038 1825.548462,1521.976685 
	C1824.404541,1528.927734 1826.487915,1534.440552 1832.084717,1538.512085 
	C1836.644897,1541.829468 1841.310425,1545.037842 1846.145752,1547.932617 
	C1854.094971,1552.691040 1857.110352,1552.490845 1863.942139,1546.489746 
	C1874.163818,1537.510742 1884.104370,1528.212280 1894.296509,1519.198853 
	C1905.442505,1509.341431 1916.738281,1499.653442 1928.123413,1490.587769 
	C1928.880493,1492.816895 1929.180176,1494.576782 1930.132935,1495.846558 
	C1937.657959,1505.874023 1945.157349,1515.929199 1953.036377,1525.675171 
	C1954.752441,1527.797729 1957.963501,1528.711670 1960.170654,1530.790039 
	C1949.150757,1540.846558 1938.411743,1550.256592 1927.751587,1559.755615 
	C1917.834595,1568.592285 1908.078247,1577.610474 1898.099731,1586.376343 
	C1893.058716,1590.804932 1892.775146,1596.008789 1894.782471,1601.766479 
	C1895.434692,1603.637085 1896.544678,1605.343262 1897.367676,1607.159790 
	C1903.874023,1621.518921 1908.415649,1636.294189 1907.735962,1652.347778 
	C1907.527344,1657.278564 1908.248291,1662.248901 1908.605713,1668.241943 
	C1913.649292,1670.064697 1918.627563,1672.298096 1923.835205,1673.645386 
	C1932.005615,1675.759277 1940.363647,1677.134766 1948.584717,1679.068237 
	C1986.391602,1687.958862 2024.255737,1696.626343 2061.922607,1706.078491 
	C2072.416016,1708.711670 2079.540283,1706.690063 2086.080811,1698.060913 
	C2091.836670,1690.466797 2098.619873,1683.457397 2108.053223,1680.645996 
	C2108.440430,1682.640747 2108.430420,1684.147705 2109.141357,1685.136108 
	C2116.801025,1695.784790 2124.445068,1706.451538 2132.435303,1716.850098 
	C2133.881348,1718.731934 2136.876465,1719.423584 2138.656982,1721.157227 
	C2128.991211,1726.498657 2122.575439,1733.535400 2119.634277,1743.729004 
	C2115.505371,1758.038086 2121.264160,1773.265869 2134.154541,1781.584595 
	C2143.451416,1787.584229 2161.364746,1789.946533 2173.270508,1777.267822 
	C2174.603027,1775.848511 2176.277832,1774.750488 2177.964844,1774.223145 
	C2179.069824,1777.062378 2179.647949,1779.447632 2180.997559,1781.257202 
	C2187.947754,1790.575439 2194.916992,1799.893188 2202.295166,1808.869263 
	C2204.258057,1811.257202 2207.688232,1812.438477 2210.444824,1814.173828 
z"/>
<path fill="#358EB6" opacity="1.000000" stroke="none" 
	d="
M1977.969238,2017.875854 
	C1963.525269,2021.237183 1949.219971,2025.472534 1934.610352,2027.789795 
	C1896.768066,2033.792114 1859.414795,2030.260132 1822.593506,2020.043823 
	C1816.744141,2018.420776 1811.385498,2013.746216 1803.420654,2017.348755 
	C1799.428589,2015.605347 1796.165771,2013.800903 1794.052124,2011.097656 
	C1781.953857,1995.624878 1770.068237,1979.984009 1758.259033,1964.288330 
	C1755.743530,1960.945068 1753.216919,1958.077515 1748.604004,1957.154785 
	C1748.901855,1952.379761 1749.694458,1948.422729 1749.619629,1944.482178 
	C1749.355103,1930.533813 1748.362915,1916.588867 1748.433105,1902.646606 
	C1748.588867,1871.712646 1749.272827,1840.781738 1749.594360,1809.848022 
	C1749.635254,1805.911255 1748.877686,1801.954224 1748.345215,1798.026123 
	C1747.632568,1792.769165 1744.215698,1789.536987 1739.416748,1788.378906 
	C1722.618408,1784.325439 1707.695801,1776.611328 1694.056641,1766.169800 
	C1687.976562,1761.515137 1681.857300,1761.861694 1675.750244,1766.250854 
	C1670.144409,1770.279541 1664.452271,1774.188110 1658.856323,1778.230347 
	C1653.264648,1782.269653 1647.745117,1786.408813 1641.889893,1789.856445 
	C1637.525635,1783.594238 1633.255859,1778.117432 1629.455811,1772.332275 
	C1624.086426,1764.157959 1615.498657,1757.994263 1614.146240,1746.946289 
	C1624.363159,1739.168823 1634.270752,1732.006714 1644.090820,1724.726562 
	C1653.033081,1718.097290 1653.802612,1715.721558 1650.217407,1705.307373 
	C1646.636353,1694.905273 1643.335815,1684.552002 1643.554321,1673.282471 
	C1643.753296,1663.020752 1639.535889,1658.239014 1629.299805,1655.992554 
	C1616.318115,1653.143555 1603.278198,1650.561401 1590.284058,1647.766846 
	C1568.850952,1643.157471 1547.434692,1638.470093 1525.944458,1633.104248 
	C1523.898315,1628.644165 1522.359863,1624.567627 1519.860474,1621.205688 
	C1510.614868,1608.768921 1500.919800,1596.665527 1491.707886,1584.204834 
	C1489.593262,1581.344360 1485.372437,1578.644897 1489.068237,1573.834473 
	C1491.209473,1573.939209 1492.551636,1573.998535 1493.848145,1574.273682 
	C1535.762939,1583.169312 1577.646240,1592.216797 1619.603516,1600.907104 
	C1630.260742,1603.114502 1641.151367,1604.194946 1652.090576,1606.496582 
	C1653.184204,1609.292358 1653.772827,1611.647095 1655.115479,1613.435913 
	C1665.778931,1627.643066 1676.505371,1641.805542 1687.443481,1655.801147 
	C1688.934204,1657.708496 1691.703003,1658.616821 1694.086914,1660.771484 
	C1694.757324,1664.155029 1695.329590,1666.740723 1695.667725,1669.356812 
	C1699.330444,1697.695190 1713.714233,1718.683350 1738.688843,1732.532349 
	C1754.725830,1741.425293 1771.974365,1743.069336 1789.996826,1742.192871 
	C1800.190186,1756.631348 1810.203003,1770.367920 1819.901123,1784.751587 
	C1805.352783,1788.794922 1801.800171,1798.068726 1802.061768,1812.058960 
	C1802.852539,1854.335815 1802.614502,1896.640137 1802.141357,1938.926758 
	C1802.005249,1951.088623 1807.002441,1958.577148 1817.862915,1962.616577 
	C1840.409302,1971.002686 1863.682617,1976.047485 1887.718262,1977.713623 
	C1908.780518,1979.173584 1929.442261,1976.467041 1950.102051,1973.213623 
	C1954.873779,1981.030273 1959.548706,1988.172485 1964.273071,1995.281616 
	C1969.152466,2002.624023 1976.765015,2008.305786 1977.969238,2017.875854 
z"/>
<path fill="#2676AE" opacity="1.000000" stroke="none" 
	d="
M1678.509766,2126.199219 
	C1668.564697,2138.230957 1658.734619,2150.360352 1648.652954,2162.276367 
	C1618.579346,2197.821777 1588.438721,2233.310303 1558.257080,2268.763672 
	C1546.531494,2282.537109 1527.250610,2283.592041 1516.566772,2270.694580 
	C1513.537964,2267.038330 1511.480591,2262.030029 1510.529785,2257.327881 
	C1509.091431,2250.214600 1508.469482,2242.827881 1508.444702,2235.554199 
	C1508.268799,2183.912109 1508.333374,2132.269287 1508.320068,2080.626709 
	C1508.319458,2077.961182 1508.403809,2075.291504 1508.284180,2072.631104 
	C1507.894287,2063.958984 1505.100098,2061.806152 1496.249390,2062.394531 
	C1483.989990,2063.209229 1471.707642,2064.200195 1459.437134,2064.172607 
	C1448.169800,2064.147461 1436.905273,2062.873291 1424.764404,2061.186035 
	C1421.996948,2050.870117 1414.729492,2045.023926 1409.355591,2037.941528 
	C1379.992188,1999.242798 1350.547241,1960.605469 1321.386963,1921.754272 
	C1318.103271,1917.379028 1316.433594,1911.792358 1314.902588,1906.612793 
	C1332.482666,1905.366699 1348.061035,1909.083374 1362.501099,1917.469482 
	C1369.707153,1921.654419 1376.202271,1920.837891 1382.781128,1915.849976 
	C1394.941650,1906.630249 1407.266602,1897.622559 1419.656738,1888.712158 
	C1435.253662,1877.495239 1450.984497,1866.464600 1467.263916,1855.819214 
	C1477.996094,1869.733154 1488.122070,1883.181519 1497.926880,1897.203003 
	C1496.289429,1898.792969 1494.992432,1899.835693 1493.654297,1900.822754 
	C1467.127930,1920.392578 1440.602051,1939.963379 1414.061523,1959.513916 
	C1409.717773,1962.713623 1405.074951,1965.977905 1404.626343,1971.772949 
	C1404.140747,1978.047607 1404.079224,1984.479004 1404.901733,1990.700684 
	C1405.995728,1998.976929 1410.899658,2004.775146 1419.258789,2006.761353 
	C1425.381836,2008.216675 1431.622925,2009.836914 1437.857056,2010.051025 
	C1466.848022,2011.046753 1495.768799,2010.855103 1524.076050,2002.911011 
	C1529.066772,2001.510498 1534.630249,2000.552856 1539.676147,2001.242310 
	C1555.432129,2003.395386 1562.970215,2012.377319 1563.551758,2029.391479 
	C1563.822754,2037.323120 1562.455811,2045.297607 1562.427979,2053.254883 
	C1562.291382,2092.249268 1562.330933,2131.244385 1562.418701,2170.239014 
	C1562.423218,2172.236084 1563.450317,2174.230957 1564.423584,2177.757324 
	C1568.071411,2174.129639 1570.789673,2171.780273 1573.093018,2169.077393 
	C1586.901489,2152.873291 1600.522949,2136.509277 1614.392578,2120.358154 
	C1623.250366,2110.042725 1632.427734,2100.001953 1642.162842,2090.008789 
	C1645.661255,2092.428223 1648.919800,2094.294922 1651.165894,2097.001709 
	C1656.895508,2103.906738 1662.112793,2111.233887 1667.657227,2118.296387 
	C1670.500732,2121.918457 1673.037842,2126.118896 1678.509766,2126.199219 
z"/>
<path fill="#2777AF" opacity="1.000000" stroke="none" 
	d="
M1190.017578,1738.003418 
	C1192.372559,1716.642700 1199.209595,1696.493408 1207.503906,1676.898315 
	C1221.270752,1644.373779 1241.293579,1615.925659 1265.825195,1590.592896 
	C1267.848877,1588.503296 1269.658081,1586.206177 1272.654297,1582.752075 
	C1268.974976,1580.981079 1266.394409,1579.075439 1263.537476,1578.466675 
	C1236.240845,1572.650757 1208.786865,1567.526245 1181.619629,1561.170532 
	C1170.143066,1558.485596 1161.990723,1560.488770 1154.566040,1569.891357 
	C1130.977051,1599.764160 1091.293335,1607.411011 1056.958496,1594.721313 
	C1025.411255,1583.061890 1004.380432,1550.775146 1003.547302,1515.158691 
	C1002.524902,1471.449463 1035.770996,1436.510010 1077.078003,1430.250488 
	C1122.691284,1423.338257 1160.942871,1453.753906 1170.040649,1488.649414 
	C1173.316772,1501.214722 1180.961792,1508.533569 1193.942261,1510.897827 
	C1210.919434,1513.990112 1227.771973,1517.766357 1245.354370,1522.393311 
	C1248.246216,1528.232056 1249.760864,1533.446167 1252.793213,1537.534302 
	C1270.356445,1561.212280 1288.223145,1584.666260 1306.143066,1608.076660 
	C1308.508789,1611.167358 1311.764893,1613.576660 1314.277100,1616.895508 
	C1309.717529,1621.745972 1305.474121,1625.987183 1301.264282,1630.261475 
	C1277.991455,1653.889282 1261.112061,1681.397339 1250.131592,1712.733398 
	C1241.571655,1737.161865 1238.493774,1762.500610 1235.222900,1787.837646 
	C1230.663330,1784.229980 1226.236084,1781.218140 1223.004150,1777.236206 
	C1214.222046,1766.416016 1206.049072,1755.103394 1197.391479,1744.178589 
	C1195.441284,1741.717896 1192.501709,1740.041138 1190.017578,1738.003418 
M1100.240112,1484.016968 
	C1088.549438,1479.437256 1078.065674,1481.870361 1068.538818,1489.559570 
	C1054.760742,1500.680176 1052.298218,1519.455444 1062.632812,1534.216187 
	C1073.005615,1549.031372 1091.087769,1552.515625 1106.679688,1542.703857 
	C1121.353394,1533.470093 1126.165649,1515.329224 1118.181519,1499.905762 
	C1114.493408,1492.781128 1108.866943,1487.901733 1100.240112,1484.016968 
z"/>
<path fill="#49AEBF" opacity="1.000000" stroke="none" 
	d="
M1853.716309,1357.976318 
	C1851.668213,1356.428589 1849.158813,1355.237549 1847.644043,1353.277710 
	C1833.698120,1335.232300 1819.900391,1317.072021 1806.124634,1298.895752 
	C1803.948853,1296.025024 1801.504272,1293.068970 1803.773438,1288.461914 
	C1807.089478,1287.907593 1810.394775,1288.605957 1811.597534,1284.700073 
	C1814.535767,1275.158203 1817.588135,1265.527588 1815.447510,1255.420410 
	C1813.426880,1245.881104 1807.433716,1238.883789 1799.850952,1232.977417 
	C1786.906128,1222.894653 1777.755859,1210.241699 1773.703247,1194.052124 
	C1763.835327,1154.631348 1787.254395,1090.393311 1850.269775,1087.425293 
	C1872.432739,1086.381348 1892.429199,1090.676880 1909.905396,1104.437866 
	C1951.269775,1137.008423 1955.311401,1201.794067 1911.706299,1237.387939 
	C1902.071533,1245.252808 1891.587280,1251.308594 1879.332397,1254.332520 
	C1868.561646,1256.990234 1864.260376,1266.464722 1869.247925,1277.104492 
	C1894.427490,1265.251953 1920.437988,1255.634766 1949.211914,1253.305176 
	C1951.033325,1256.939819 1951.436890,1260.085938 1953.061279,1262.360107 
	C1960.300537,1272.494385 1967.912964,1282.361572 1975.336548,1292.365234 
	C1977.645996,1295.477417 1979.785889,1298.715454 1981.101807,1302.078613 
	C1942.726074,1301.515625 1908.899902,1312.734375 1877.815186,1333.216797 
	C1867.918457,1339.738037 1859.576904,1347.607666 1853.716309,1357.976318 
M1844.056641,1142.234863 
	C1842.870361,1142.832642 1841.615845,1143.325317 1840.508057,1144.044312 
	C1827.764893,1152.315674 1821.632690,1165.928589 1824.783203,1178.856323 
	C1828.210571,1192.920166 1840.365234,1204.178955 1853.683228,1205.626343 
	C1867.286987,1207.104858 1882.486694,1198.353638 1888.032471,1184.877197 
	C1890.083618,1179.892700 1891.545410,1173.843140 1890.764526,1168.657593 
	C1887.358521,1146.039185 1868.442261,1135.096313 1844.056641,1142.234863 
z"/>
<path fill="#51BAC3" opacity="1.000000" stroke="none" 
	d="
M2070.029297,1270.849731 
	C2079.340820,1273.718872 2087.763428,1270.258545 2095.885254,1266.624878 
	C2138.438721,1247.586914 2191.716797,1268.207886 2207.538330,1316.083374 
	C2212.596191,1331.387573 2221.135742,1340.962402 2235.298096,1347.603027 
	C2268.610596,1363.222656 2297.150391,1385.240723 2319.873535,1414.356079 
	C2341.158691,1441.628540 2353.814941,1472.689453 2359.928955,1506.646240 
	C2363.603516,1527.053833 2364.641113,1547.624634 2363.534668,1568.188843 
	C2361.369141,1608.430054 2350.243652,1645.893677 2325.209717,1679.386719 
	C2321.422119,1677.965698 2318.201172,1676.611206 2316.301025,1674.210938 
	C2307.248779,1662.776611 2298.555664,1651.057983 2289.828125,1638.746826 
	C2290.666748,1636.573486 2291.413574,1635.094482 2292.157715,1633.614136 
	C2309.907959,1598.310791 2317.531738,1560.968628 2311.207520,1521.880615 
	C2301.761719,1463.500854 2267.564209,1422.883667 2216.346680,1395.506714 
	C2205.751953,1389.843628 2202.105469,1390.748413 2193.425049,1399.036865 
	C2187.956055,1404.259033 2182.233154,1409.215454 2176.030029,1413.902588 
	C2165.408203,1400.251221 2155.380371,1386.988403 2145.722168,1373.147217 
	C2157.200928,1364.151123 2163.921631,1353.457275 2161.345215,1339.093628 
	C2157.423584,1317.228271 2132.099365,1305.675171 2112.303955,1316.389404 
	C2109.396729,1317.963013 2106.732422,1319.985596 2103.789551,1321.143799 
	C2096.474121,1310.661377 2089.123291,1300.973877 2082.247559,1290.960205 
	C2077.814453,1284.504272 2074.077881,1277.569702 2070.029297,1270.849731 
z"/>
<path fill="#216EAC" opacity="1.000000" stroke="none" 
	d="
M1189.626953,1738.693115 
	C1192.501709,1740.041138 1195.441284,1741.717896 1197.391479,1744.178589 
	C1206.049072,1755.103394 1214.222046,1766.416016 1223.004150,1777.236206 
	C1226.236084,1781.218140 1230.663330,1784.229980 1235.400269,1788.657593 
	C1238.197754,1803.739258 1239.534790,1817.963989 1242.214600,1831.930908 
	C1247.138428,1857.591675 1256.560059,1881.651733 1270.475342,1903.838867 
	C1277.202026,1914.564087 1279.834961,1915.094727 1291.804321,1911.494751 
	C1299.028442,1909.321655 1306.599976,1908.304199 1314.015381,1906.767578 
	C1316.433594,1911.792358 1318.103271,1917.379028 1321.386963,1921.754272 
	C1350.547241,1960.605469 1379.992188,1999.242798 1409.355591,2037.941528 
	C1414.729492,2045.023926 1421.996948,2050.870117 1423.954590,2060.935059 
	C1415.198975,2060.105713 1406.297485,2058.917969 1397.578735,2056.928955 
	C1387.599731,2054.652588 1379.022461,2055.896484 1370.261597,2061.981445 
	C1325.075562,2093.365967 1265.906616,2077.776123 1242.597656,2028.682861 
	C1234.261353,2011.125000 1233.154175,1992.394897 1237.530762,1974.014648 
	C1240.519043,1961.464600 1238.376587,1951.613647 1231.538086,1941.197876 
	C1208.010498,1905.362793 1192.795410,1866.196777 1186.795654,1823.650757 
	C1182.819214,1795.452881 1183.653687,1767.333984 1189.626953,1738.693115 
M1339.190918,1965.442017 
	C1336.546875,1964.088257 1334.010620,1962.438354 1331.240601,1961.430542 
	C1316.488281,1956.062622 1300.186035,1962.280640 1291.775024,1976.324707 
	C1283.914551,1989.449463 1287.081909,2006.238281 1299.413330,2016.811279 
	C1311.081543,2026.816040 1328.849854,2027.150757 1340.798706,2017.472534 
	C1356.306885,2004.911621 1357.569946,1980.014893 1339.190918,1965.442017 
z"/>
<path fill="#2E84B3" opacity="1.000000" stroke="none" 
	d="
M1679.099854,2125.891113 
	C1673.037842,2126.118896 1670.500732,2121.918457 1667.657227,2118.296387 
	C1662.112793,2111.233887 1656.895508,2103.906738 1651.165894,2097.001709 
	C1648.919800,2094.294922 1645.661255,2092.428223 1642.411377,2089.362305 
	C1649.869629,2078.791016 1657.575684,2068.862061 1665.730225,2059.315918 
	C1687.485229,2033.848877 1709.558838,2008.653076 1731.228882,1983.114624 
	C1737.824097,1975.342163 1745.689453,1968.304321 1748.700928,1957.980469 
	C1753.216919,1958.077515 1755.743530,1960.945068 1758.259033,1964.288330 
	C1770.068237,1979.984009 1781.953857,1995.624878 1794.052124,2011.097656 
	C1796.165771,2013.800903 1799.428589,2015.605347 1802.844360,2017.900635 
	C1803.139404,2021.920410 1802.440186,2025.862671 1802.414795,2029.809204 
	C1802.293091,2048.758545 1802.995483,2067.738770 1802.133789,2086.649902 
	C1801.512817,2100.281250 1806.145020,2109.287598 1818.417480,2115.588379 
	C1836.256958,2124.747070 1848.375366,2139.600830 1855.726929,2158.119385 
	C1869.465332,2192.727051 1859.190063,2230.845459 1830.444580,2253.851074 
	C1826.740601,2252.152344 1823.726929,2250.925293 1822.111450,2248.688232 
	C1813.879150,2237.287842 1806.008667,2225.625977 1798.349243,2213.455566 
	C1799.895630,2211.281250 1801.194702,2209.767822 1802.298828,2208.123535 
	C1816.175293,2187.458740 1805.994141,2162.936768 1781.670898,2157.592773 
	C1772.208130,2155.513672 1764.188232,2158.489014 1755.818115,2161.958984 
	C1750.085083,2154.203369 1744.569336,2147.153076 1739.347778,2139.890869 
	C1734.732910,2133.472168 1730.445679,2126.817871 1726.013794,2120.267334 
	C1730.614380,2117.157471 1735.138062,2113.925537 1739.833374,2110.965820 
	C1747.079712,2106.398193 1749.603882,2099.389893 1749.529785,2091.451172 
	C1749.409668,2078.564453 1748.749268,2065.682129 1748.282104,2052.799561 
	C1748.237305,2051.565918 1747.946045,2050.341064 1747.492676,2047.191162 
	C1742.792358,2052.220215 1739.012817,2056.065430 1735.454956,2060.105469 
	C1720.830811,2076.711914 1706.204590,2093.317383 1691.734619,2110.057861 
	C1687.457397,2115.006104 1683.690796,2120.395752 1679.099854,2125.891113 
z"/>
<path fill="#2E84B3" opacity="1.000000" stroke="none" 
	d="
M1314.608521,1616.301514 
	C1311.764893,1613.576660 1308.508789,1611.167358 1306.143066,1608.076660 
	C1288.223145,1584.666260 1270.356445,1561.212280 1252.793213,1537.534302 
	C1249.760864,1533.446167 1248.246216,1528.232056 1246.012451,1522.777588 
	C1255.784668,1524.176270 1265.562500,1526.394165 1275.369263,1528.476074 
	C1283.409790,1530.183105 1291.461182,1531.859497 1299.552124,1533.301025 
	C1305.420776,1534.346680 1308.389893,1532.555908 1309.798096,1526.639160 
	C1311.485474,1519.549927 1312.501099,1512.302368 1313.878662,1505.137207 
	C1322.399658,1460.818359 1339.093628,1419.892822 1365.797852,1382.795898 
	C1374.654175,1392.756348 1382.584351,1402.551147 1390.272583,1412.532227 
	C1393.445557,1416.651611 1396.798950,1420.067261 1402.217285,1420.834351 
	C1381.037964,1455.003784 1368.371094,1491.539551 1362.305542,1530.463745 
	C1360.468140,1542.254395 1363.606812,1547.223511 1374.321411,1549.447144 
	C1398.084839,1554.378784 1421.910767,1559.011719 1445.653564,1564.039062 
	C1459.907837,1567.057251 1474.053467,1570.588745 1488.247925,1573.889526 
	C1485.372437,1578.644897 1489.593262,1581.344360 1491.707886,1584.204834 
	C1500.919800,1596.665527 1510.614868,1608.768921 1519.860474,1621.205688 
	C1522.359863,1624.567627 1523.898315,1628.644165 1525.138428,1633.156494 
	C1513.371460,1631.599854 1502.336548,1629.313232 1491.317383,1626.953003 
	C1446.900391,1617.439575 1402.451538,1608.069458 1358.101318,1598.254150 
	C1347.574097,1595.924438 1338.646973,1597.264282 1330.414185,1604.406006 
	C1325.445190,1608.716431 1319.896606,1612.358887 1314.608521,1616.301514 
z"/>
<path fill="#4DB4C1" opacity="1.000000" stroke="none" 
	d="
M2145.352539,1373.725586 
	C2155.380371,1386.988403 2165.408203,1400.251221 2175.689453,1414.511963 
	C2162.671387,1425.765625 2147.884521,1431.770508 2130.895020,1430.204956 
	C2123.076904,1429.484497 2115.177734,1428.100342 2107.674561,1425.829956 
	C2093.103516,1421.420898 2080.349121,1424.221191 2068.629639,1433.467407 
	C2066.042480,1435.508789 2063.293945,1437.345459 2060.252441,1438.613281 
	C2051.955566,1427.743530 2043.878662,1417.645386 2036.192627,1407.258301 
	C2034.122925,1404.461304 2033.239746,1400.786133 2032.084473,1396.915771 
	C2035.297485,1393.646973 2038.188843,1390.920166 2041.188843,1388.318604 
	C2046.899780,1383.366089 2049.342529,1378.196045 2046.809326,1369.996826 
	C2042.707520,1356.719971 2040.607056,1343.013916 2044.007446,1328.909546 
	C2046.587280,1318.207886 2044.136475,1315.430908 2033.338501,1311.833496 
	C2016.633423,1306.268066 1999.265503,1304.421387 1982.003540,1301.895752 
	C1979.785889,1298.715454 1977.645996,1295.477417 1975.336548,1292.365234 
	C1967.912964,1282.361572 1960.300537,1272.494385 1953.061279,1262.360107 
	C1951.436890,1260.085938 1951.033325,1256.939819 1950.039307,1253.480225 
	C1967.659302,1250.813477 1985.160889,1248.545654 2002.886230,1253.592651 
	C2011.304932,1255.989746 2020.781860,1254.602295 2029.262451,1256.865479 
	C2042.637573,1260.435303 2055.576904,1265.637939 2069.364990,1270.499634 
	C2074.077881,1277.569702 2077.814453,1284.504272 2082.247559,1290.960205 
	C2089.123291,1300.973877 2096.474121,1310.661377 2103.508789,1321.779297 
	C2093.415039,1334.432129 2090.849854,1347.130981 2098.589111,1360.376587 
	C2105.707520,1372.559937 2116.474121,1379.856445 2131.333252,1378.092163 
	C2136.111572,1377.524902 2140.685303,1375.230103 2145.352539,1373.725586 
z"/>
<path fill="#49AEBF" opacity="1.000000" stroke="none" 
	d="
M2289.734863,1639.440430 
	C2298.555664,1651.057983 2307.248779,1662.776611 2316.301025,1674.210938 
	C2318.201172,1676.611206 2321.422119,1677.965698 2324.714844,1679.879883 
	C2311.793213,1701.264404 2293.504639,1718.008301 2273.389404,1732.876099 
	C2265.380615,1738.795776 2257.043945,1744.322021 2248.536133,1749.500610 
	C2240.932129,1754.129028 2236.238037,1760.476440 2234.549316,1769.099243 
	C2231.206787,1786.165405 2223.567383,1801.001831 2211.050049,1813.913818 
	C2207.688232,1812.438477 2204.258057,1811.257202 2202.295166,1808.869263 
	C2194.916992,1799.893188 2187.947754,1790.575439 2180.997559,1781.257202 
	C2179.647949,1779.447632 2179.069824,1777.062378 2178.157227,1773.534546 
	C2191.180908,1753.951172 2182.728027,1732.597412 2165.972900,1722.747925 
	C2157.307617,1717.653931 2148.313477,1718.527222 2139.156250,1720.664673 
	C2136.876465,1719.423584 2133.881348,1718.731934 2132.435303,1716.850098 
	C2124.445068,1706.451538 2116.801025,1695.784790 2109.141357,1685.136108 
	C2108.430420,1684.147705 2108.440430,1682.640747 2108.509766,1680.114746 
	C2133.462646,1665.427979 2158.609131,1664.341309 2184.486572,1674.885132 
	C2196.168213,1679.645142 2205.304443,1687.577881 2213.972900,1696.413086 
	C2221.429199,1704.012573 2225.447510,1704.452881 2233.823242,1698.058716 
	C2243.032715,1691.027954 2252.575684,1684.105469 2260.409424,1675.681396 
	C2270.967041,1664.328613 2280.030273,1651.586304 2289.734863,1639.440430 
z"/>
<path fill="#358EB6" opacity="1.000000" stroke="none" 
	d="
M1402.387939,1420.147705 
	C1396.798950,1420.067261 1393.445557,1416.651611 1390.272583,1412.532227 
	C1382.584351,1402.551147 1374.654175,1392.756348 1366.344360,1382.415039 
	C1373.940063,1371.447388 1381.415039,1360.418579 1390.198120,1350.554565 
	C1416.241333,1321.305664 1446.216797,1296.689453 1481.062866,1278.638428 
	C1496.325439,1270.731934 1512.634644,1264.845825 1529.234375,1258.067627 
	C1531.464600,1261.979370 1532.248047,1266.328979 1534.518799,1269.667114 
	C1541.931152,1280.563599 1549.885742,1291.091309 1557.348877,1302.769409 
	C1556.126831,1304.106201 1555.198853,1304.471313 1554.247070,1304.757446 
	C1502.657227,1320.264404 1460.028442,1349.362305 1425.332153,1390.258911 
	C1417.216187,1399.824951 1410.011719,1410.164185 1402.387939,1420.147705 
z"/>
<path fill="#2777AF" opacity="1.000000" stroke="none" 
	d="
M1798.011353,2214.055908 
	C1806.008667,2225.625977 1813.879150,2237.287842 1822.111450,2248.688232 
	C1823.726929,2250.925293 1826.740601,2252.152344 1829.807617,2254.033691 
	C1819.370361,2265.700439 1805.211548,2271.708252 1789.915649,2273.723389 
	C1763.757568,2277.169922 1739.626831,2271.534424 1719.125244,2253.786377 
	C1694.824829,2232.750000 1686.490845,2205.914307 1690.969482,2174.823975 
	C1694.262329,2151.965332 1705.993164,2133.887939 1725.337646,2120.290771 
	C1730.445679,2126.817871 1734.732910,2133.472168 1739.347778,2139.890869 
	C1744.569336,2147.153076 1750.085083,2154.203369 1755.482544,2162.520996 
	C1744.353760,2173.169434 1740.329956,2184.984619 1744.612671,2199.048584 
	C1748.537354,2211.937744 1760.320923,2220.630127 1774.148560,2221.946289 
	C1783.343994,2222.821533 1790.686523,2218.581299 1798.011353,2214.055908 
z"/>
<path fill="#3C9ABA" opacity="1.000000" stroke="none" 
	d="
M1978.740479,2017.885254 
	C1976.765015,2008.305786 1969.152466,2002.624023 1964.273071,1995.281616 
	C1959.548706,1988.172485 1954.873779,1981.030273 1950.834229,1972.915771 
	C1985.747559,1963.768188 2016.553223,1948.459473 2043.645264,1926.101685 
	C2054.305664,1917.304199 2063.722412,1906.999756 2073.705566,1897.381592 
	C2075.381348,1900.850220 2076.561035,1904.688843 2078.822510,1907.720337 
	C2086.686768,1918.261230 2094.926270,1928.522339 2103.477051,1939.359253 
	C2094.605713,1949.204590 2085.838379,1959.229248 2075.842041,1967.824585 
	C2053.186768,1987.305298 2027.095947,2000.967896 1998.903198,2010.712769 
	C1992.390015,2012.964233 1985.972900,2015.493286 1978.740479,2017.885254 
z"/>
<path fill="#000101" opacity="1.000000" stroke="none" 
	d="
M1402.217285,1420.834351 
	C1410.011719,1410.164185 1417.216187,1399.824951 1425.332153,1390.258911 
	C1460.028442,1349.362305 1502.657227,1320.264404 1554.247070,1304.757446 
	C1555.198853,1304.471313 1556.126831,1304.106201 1557.663818,1303.438232 
	C1572.835571,1300.125732 1587.346558,1296.786987 1601.998779,1294.269287 
	C1621.791260,1290.868652 1641.720337,1291.839600 1661.593384,1293.867188 
	C1707.046997,1298.504761 1748.968750,1313.182739 1787.350708,1338.041748 
	C1797.805542,1344.813110 1801.122314,1353.220215 1798.803467,1365.961426 
	C1790.662354,1410.693970 1783.632324,1455.628906 1776.187988,1500.488159 
	C1775.321899,1505.707031 1774.503052,1510.933838 1773.019531,1517.396729 
	C1769.852417,1525.942749 1763.558472,1527.788208 1757.003174,1529.421875 
	C1746.212280,1532.111084 1735.234619,1534.299927 1724.745972,1537.896240 
	C1707.320435,1543.870850 1692.354614,1554.417847 1679.823975,1567.597778 
	C1671.740234,1576.100098 1665.953735,1586.778809 1659.072876,1596.436157 
	C1656.797729,1599.629395 1654.319946,1602.678345 1651.934814,1605.793213 
	C1641.151367,1604.194946 1630.260742,1603.114502 1619.603516,1600.907104 
	C1577.646240,1592.216797 1535.762939,1583.169312 1493.848145,1574.273682 
	C1492.551636,1573.998535 1491.209473,1573.939209 1489.068237,1573.834473 
	C1474.053467,1570.588745 1459.907837,1567.057251 1445.653564,1564.039062 
	C1421.910767,1559.011719 1398.084839,1554.378784 1374.321411,1549.447144 
	C1363.606812,1547.223511 1360.468140,1542.254395 1362.305542,1530.463745 
	C1368.371094,1491.539551 1381.037964,1455.003784 1402.217285,1420.834351 
z"/>
<path fill="#000101" opacity="1.000000" stroke="none" 
	d="
M2289.827881,1638.746704 
	C2280.030273,1651.586304 2270.967041,1664.328613 2260.409424,1675.681396 
	C2252.575684,1684.105469 2243.032715,1691.027954 2233.823242,1698.058716 
	C2225.447510,1704.452881 2221.429199,1704.012573 2213.972900,1696.413086 
	C2205.304443,1687.577881 2196.168213,1679.645142 2184.486572,1674.885132 
	C2158.609131,1664.341309 2133.462646,1665.427979 2108.447754,1679.386108 
	C2098.619873,1683.457397 2091.836670,1690.466797 2086.080811,1698.060913 
	C2079.540283,1706.690063 2072.416016,1708.711670 2061.922607,1706.078491 
	C2024.255737,1696.626343 1986.391602,1687.958862 1948.584717,1679.068237 
	C1940.363647,1677.134766 1932.005615,1675.759277 1923.835205,1673.645386 
	C1918.627563,1672.298096 1913.649292,1670.064697 1908.605713,1668.241943 
	C1908.248291,1662.248901 1907.527344,1657.278564 1907.735962,1652.347778 
	C1908.415649,1636.294189 1903.874023,1621.518921 1897.367676,1607.159790 
	C1896.544678,1605.343262 1895.434692,1603.637085 1894.782471,1601.766479 
	C1892.775146,1596.008789 1893.058716,1590.804932 1898.099731,1586.376343 
	C1908.078247,1577.610474 1917.834595,1568.592285 1927.751587,1559.755615 
	C1938.411743,1550.256592 1949.150757,1540.846558 1960.760986,1530.511719 
	C1964.898560,1526.788940 1968.151978,1523.976196 1971.359497,1521.112061 
	C1989.877441,1504.576294 2008.507080,1488.163208 2026.849854,1471.435425 
	C2038.332764,1460.963745 2049.377930,1450.012451 2060.619629,1439.276367 
	C2063.293945,1437.345459 2066.042480,1435.508789 2068.629639,1433.467407 
	C2080.349121,1424.221191 2093.103516,1421.420898 2107.674561,1425.829956 
	C2115.177734,1428.100342 2123.076904,1429.484497 2130.895020,1430.204956 
	C2147.884521,1431.770508 2162.671387,1425.765625 2176.283447,1414.900391 
	C2182.233154,1409.215454 2187.956055,1404.259033 2193.425049,1399.036865 
	C2202.105469,1390.748413 2205.751953,1389.843628 2216.346680,1395.506714 
	C2267.564209,1422.883667 2301.761719,1463.500854 2311.207520,1521.880615 
	C2317.531738,1560.968628 2309.907959,1598.310791 2292.157715,1633.614136 
	C2291.413574,1635.094482 2290.666748,1636.573486 2289.827881,1638.746704 
z"/>
<path fill="#000101" opacity="1.000000" stroke="none" 
	d="
M2073.768555,1896.705566 
	C2063.722412,1906.999756 2054.305664,1917.304199 2043.645264,1926.101685 
	C2016.553223,1948.459473 1985.747559,1963.768188 1950.759033,1972.226807 
	C1929.442261,1976.467041 1908.780518,1979.173584 1887.718262,1977.713623 
	C1863.682617,1976.047485 1840.409302,1971.002686 1817.862915,1962.616577 
	C1807.002441,1958.577148 1802.005249,1951.088623 1802.141357,1938.926758 
	C1802.614502,1896.640137 1802.852539,1854.335815 1802.061768,1812.058960 
	C1801.800171,1798.068726 1805.352783,1788.794922 1820.667114,1784.780884 
	C1832.248169,1779.167480 1843.325562,1775.092896 1853.114014,1768.960938 
	C1867.938232,1759.674072 1879.032715,1746.361938 1888.231201,1731.475952 
	C1894.492676,1721.343140 1898.127441,1720.087280 1909.745728,1722.729858 
	C1917.805664,1724.563110 1925.915894,1726.176025 1934.003662,1727.887451 
	C1943.899414,1730.475220 1953.743896,1733.282104 1963.700562,1735.609497 
	C1993.133423,1742.490234 2022.594360,1749.253296 2052.080322,1755.903687 
	C2061.074463,1757.932251 2066.477295,1762.455078 2068.437256,1772.125488 
	C2072.628662,1792.809570 2083.482910,1809.517822 2100.907959,1821.814087 
	C2111.069824,1828.985229 2111.351074,1830.063477 2106.521484,1841.549683 
	C2098.233643,1861.260620 2087.490479,1879.527222 2073.768555,1896.705566 
z"/>
<path fill="#000101" opacity="1.000000" stroke="none" 
	d="
M1981.101807,1302.078613 
	C1999.265503,1304.421387 2016.633423,1306.268066 2033.338501,1311.833496 
	C2044.136475,1315.430908 2046.587280,1318.207886 2044.007446,1328.909546 
	C2040.607056,1343.013916 2042.707520,1356.719971 2046.809326,1369.996826 
	C2049.342529,1378.196045 2046.899780,1383.366089 2041.188843,1388.318604 
	C2038.188843,1390.920166 2035.297485,1393.646973 2031.425537,1397.121094 
	C2029.421997,1398.690674 2028.268433,1399.364868 2027.289795,1400.235596 
	C2009.021362,1416.492554 1990.702759,1432.693970 1972.544312,1449.073120 
	C1957.584595,1462.567017 1942.819946,1476.277222 1927.968750,1489.891602 
	C1916.738281,1499.653442 1905.442505,1509.341431 1894.296509,1519.198853 
	C1884.104370,1528.212280 1874.163818,1537.510742 1863.942139,1546.489746 
	C1857.110352,1552.490845 1854.094971,1552.691040 1846.145752,1547.932617 
	C1841.310425,1545.037842 1836.644897,1541.829468 1832.084717,1538.512085 
	C1826.487915,1534.440552 1824.404541,1528.927734 1825.548462,1521.976685 
	C1827.969482,1507.264038 1830.033936,1492.492554 1832.447021,1477.778442 
	C1838.130737,1443.121216 1843.879028,1408.474487 1849.749512,1373.848511 
	C1850.574341,1368.983398 1852.232910,1364.259644 1853.610840,1358.723389 
	C1859.576904,1347.607666 1867.918457,1339.738037 1877.815186,1333.216797 
	C1908.899902,1312.734375 1942.726074,1301.515625 1981.101807,1302.078613 
z"/>
<path fill="#3C9ABA" opacity="1.000000" stroke="none" 
	d="
M1933.848389,1727.205566 
	C1925.915894,1726.176025 1917.805664,1724.563110 1909.745728,1722.729858 
	C1898.127441,1720.087280 1894.492676,1721.343140 1888.231201,1731.475952 
	C1879.032715,1746.361938 1867.938232,1759.674072 1853.114014,1768.960938 
	C1843.325562,1775.092896 1832.248169,1779.167480 1820.981689,1784.133789 
	C1810.203003,1770.367920 1800.190186,1756.631348 1790.499512,1741.628174 
	C1814.437866,1736.287109 1831.741577,1722.888062 1844.412842,1703.225220 
	C1851.885254,1691.629639 1856.093994,1678.792725 1856.363281,1664.758179 
	C1856.916504,1635.918823 1845.308960,1612.889893 1823.269775,1594.846680 
	C1809.127075,1583.268311 1792.357666,1578.443359 1774.499146,1578.549072 
	C1758.724243,1578.642334 1744.248657,1584.306274 1730.981934,1592.847656 
	C1712.721680,1604.604248 1700.656860,1620.675659 1696.720703,1642.334961 
	C1695.655273,1648.197632 1694.820679,1654.102295 1693.880127,1659.987671 
	C1691.703003,1658.616821 1688.934204,1657.708496 1687.443481,1655.801147 
	C1676.505371,1641.805542 1665.778931,1627.643066 1655.115479,1613.435913 
	C1653.772827,1611.647095 1653.184204,1609.292358 1652.090576,1606.496582 
	C1654.319946,1602.678345 1656.797729,1599.629395 1659.072876,1596.436157 
	C1665.953735,1586.778809 1671.740234,1576.100098 1679.823975,1567.597778 
	C1692.354614,1554.417847 1707.320435,1543.870850 1724.745972,1537.896240 
	C1735.234619,1534.299927 1746.212280,1532.111084 1757.003174,1529.421875 
	C1763.558472,1527.788208 1769.852417,1525.942749 1772.922363,1518.238770 
	C1779.203979,1518.704224 1781.274536,1523.785889 1784.195679,1527.607788 
	C1802.544067,1551.614746 1820.631348,1575.821167 1838.918213,1599.875366 
	C1868.655396,1638.991455 1898.502808,1678.023926 1928.219604,1717.155396 
	C1930.391113,1720.014771 1931.884521,1723.388916 1933.848389,1727.205566 
z"/>
<path fill="#49AEBF" opacity="1.000000" stroke="none" 
	d="
M1928.123535,1490.587891 
	C1942.819946,1476.277222 1957.584595,1462.567017 1972.544312,1449.073120 
	C1990.702759,1432.693970 2009.021362,1416.492554 2027.289795,1400.235596 
	C2028.268433,1399.364868 2029.421997,1398.690674 2031.153076,1397.719604 
	C2033.239746,1400.786133 2034.122925,1404.461304 2036.192627,1407.258301 
	C2043.878662,1417.645386 2051.955566,1427.743530 2060.252441,1438.613281 
	C2049.377930,1450.012451 2038.332764,1460.963745 2026.849854,1471.435425 
	C2008.507080,1488.163208 1989.877441,1504.576294 1971.359497,1521.112061 
	C1968.151978,1523.976196 1964.898560,1526.788940 1961.076172,1529.903931 
	C1957.963501,1528.711670 1954.752441,1527.797729 1953.036377,1525.675171 
	C1945.157349,1515.929199 1937.657959,1505.874023 1930.132935,1495.846558 
	C1929.180176,1494.576782 1928.880493,1492.816895 1928.123535,1490.587891 
z"/>
<path fill="#000101" opacity="1.000000" stroke="none" 
	d="
M2138.656982,1721.157227 
	C2148.313477,1718.527222 2157.307617,1717.653931 2165.972900,1722.747925 
	C2182.728027,1732.597412 2191.180908,1753.951172 2177.986084,1772.814941 
	C2176.277832,1774.750488 2174.603027,1775.848511 2173.270508,1777.267822 
	C2161.364746,1789.946533 2143.451416,1787.584229 2134.154541,1781.584595 
	C2121.264160,1773.265869 2115.505371,1758.038086 2119.634277,1743.729004 
	C2122.575439,1733.535400 2128.991211,1726.498657 2138.656982,1721.157227 
z"/>
<path fill="#000101" opacity="1.000000" stroke="none" 
	d="
M1314.277100,1616.895508 
	C1319.896606,1612.358887 1325.445190,1608.716431 1330.414185,1604.406006 
	C1338.646973,1597.264282 1347.574097,1595.924438 1358.101318,1598.254150 
	C1402.451538,1608.069458 1446.900391,1617.439575 1491.317383,1626.953003 
	C1502.336548,1629.313232 1513.371460,1631.599854 1525.205078,1633.867920 
	C1547.434692,1638.470093 1568.850952,1643.157471 1590.284058,1647.766846 
	C1603.278198,1650.561401 1616.318115,1653.143555 1629.299805,1655.992554 
	C1639.535889,1658.239014 1643.753296,1663.020752 1643.554321,1673.282471 
	C1643.335815,1684.552002 1646.636353,1694.905273 1650.217407,1705.307373 
	C1653.802612,1715.721558 1653.033081,1718.097290 1644.090820,1724.726562 
	C1634.270752,1732.006714 1624.363159,1739.168823 1613.485107,1747.160278 
	C1577.411621,1773.630249 1542.322144,1799.288696 1507.295044,1825.031982 
	C1493.676880,1835.040649 1480.199219,1845.240601 1466.657715,1855.353638 
	C1450.984497,1866.464600 1435.253662,1877.495239 1419.656738,1888.712158 
	C1407.266602,1897.622559 1394.941650,1906.630249 1382.781128,1915.849976 
	C1376.202271,1920.837891 1369.707153,1921.654419 1362.501099,1917.469482 
	C1348.061035,1909.083374 1332.482666,1905.366699 1314.902588,1906.612793 
	C1306.599976,1908.304199 1299.028442,1909.321655 1291.804321,1911.494751 
	C1279.834961,1915.094727 1277.202026,1914.564087 1270.475342,1903.838867 
	C1256.560059,1881.651733 1247.138428,1857.591675 1242.214600,1831.930908 
	C1239.534790,1817.963989 1238.197754,1803.739258 1236.077759,1788.810913 
	C1238.493774,1762.500610 1241.571655,1737.161865 1250.131592,1712.733398 
	C1261.112061,1681.397339 1277.991455,1653.889282 1301.264282,1630.261475 
	C1305.474121,1625.987183 1309.717529,1621.745972 1314.277100,1616.895508 
z"/>
<path fill="#000101" opacity="1.000000" stroke="none" 
	d="
M1748.604004,1957.154785 
	C1745.689453,1968.304321 1737.824097,1975.342163 1731.228882,1983.114624 
	C1709.558838,2008.653076 1687.485229,2033.848877 1665.730225,2059.315918 
	C1657.575684,2068.862061 1649.869629,2078.791016 1641.710571,2089.191895 
	C1632.427734,2100.001953 1623.250366,2110.042725 1614.392578,2120.358154 
	C1600.522949,2136.509277 1586.901489,2152.873291 1573.093018,2169.077393 
	C1570.789673,2171.780273 1568.071411,2174.129639 1564.423584,2177.757324 
	C1563.450317,2174.230957 1562.423218,2172.236084 1562.418701,2170.239014 
	C1562.330933,2131.244385 1562.291382,2092.249268 1562.427979,2053.254883 
	C1562.455811,2045.297607 1563.822754,2037.323120 1563.551758,2029.391479 
	C1562.970215,2012.377319 1555.432129,2003.395386 1539.676147,2001.242310 
	C1534.630249,2000.552856 1529.066772,2001.510498 1524.076050,2002.911011 
	C1495.768799,2010.855103 1466.848022,2011.046753 1437.857056,2010.051025 
	C1431.622925,2009.836914 1425.381836,2008.216675 1419.258789,2006.761353 
	C1410.899658,2004.775146 1405.995728,1998.976929 1404.901733,1990.700684 
	C1404.079224,1984.479004 1404.140747,1978.047607 1404.626343,1971.772949 
	C1405.074951,1965.977905 1409.717773,1962.713623 1414.061523,1959.513916 
	C1440.602051,1939.963379 1467.127930,1920.392578 1493.654297,1900.822754 
	C1494.992432,1899.835693 1496.289429,1898.792969 1498.584961,1896.971680 
	C1509.366577,1888.968018 1519.172363,1881.773682 1528.970337,1874.568604 
	C1554.058838,1856.119019 1579.184204,1837.718994 1604.213623,1819.189453 
	C1616.964233,1809.750000 1629.539551,1800.073608 1642.193970,1790.504272 
	C1647.745117,1786.408813 1653.264648,1782.269653 1658.856323,1778.230347 
	C1664.452271,1774.188110 1670.144409,1770.279541 1675.750244,1766.250854 
	C1681.857300,1761.861694 1687.976562,1761.515137 1694.056641,1766.169800 
	C1707.695801,1776.611328 1722.618408,1784.325439 1739.416748,1788.378906 
	C1744.215698,1789.536987 1747.632568,1792.769165 1748.345215,1798.026123 
	C1748.877686,1801.954224 1749.635254,1805.911255 1749.594360,1809.848022 
	C1749.272827,1840.781738 1748.588867,1871.712646 1748.433105,1902.646606 
	C1748.362915,1916.588867 1749.355103,1930.533813 1749.619629,1944.482178 
	C1749.694458,1948.422729 1748.901855,1952.379761 1748.604004,1957.154785 
z"/>
<path fill="#000101" opacity="1.000000" stroke="none" 
	d="
M1694.086914,1660.771484 
	C1694.820679,1654.102295 1695.655273,1648.197632 1696.720703,1642.334961 
	C1700.656860,1620.675659 1712.721680,1604.604248 1730.981934,1592.847656 
	C1744.248657,1584.306274 1758.724243,1578.642334 1774.499146,1578.549072 
	C1792.357666,1578.443359 1809.127075,1583.268311 1823.269775,1594.846680 
	C1845.308960,1612.889893 1856.916504,1635.918823 1856.363281,1664.758179 
	C1856.093994,1678.792725 1851.885254,1691.629639 1844.412842,1703.225220 
	C1831.741577,1722.888062 1814.437866,1736.287109 1790.318848,1740.926514 
	C1771.974365,1743.069336 1754.725830,1741.425293 1738.688843,1732.532349 
	C1713.714233,1718.683350 1699.330444,1697.695190 1695.667725,1669.356812 
	C1695.329590,1666.740723 1694.757324,1664.155029 1694.086914,1660.771484 
z"/>
<path fill="#2E84B3" opacity="1.000000" stroke="none" 
	d="
M1641.889893,1789.856445 
	C1629.539551,1800.073608 1616.964233,1809.750000 1604.213623,1819.189453 
	C1579.184204,1837.718994 1554.058838,1856.119019 1528.970337,1874.568604 
	C1519.172363,1881.773682 1509.366577,1888.968018 1498.906250,1896.398682 
	C1488.122070,1883.181519 1477.996094,1869.733154 1467.263916,1855.819214 
	C1480.199219,1845.240601 1493.676880,1835.040649 1507.295044,1825.031982 
	C1542.322144,1799.288696 1577.411621,1773.630249 1613.137451,1747.724121 
	C1615.498657,1757.994263 1624.086426,1764.157959 1629.455811,1772.332275 
	C1633.255859,1778.117432 1637.525635,1783.594238 1641.889893,1789.856445 
z"/>
<path fill="#000101" opacity="1.000000" stroke="none" 
	d="
M1100.970703,1484.309082 
	C1108.866943,1487.901733 1114.493408,1492.781128 1118.181519,1499.905762 
	C1126.165649,1515.329224 1121.353394,1533.470093 1106.679688,1542.703857 
	C1091.087769,1552.515625 1073.005615,1549.031372 1062.632812,1534.216187 
	C1052.298218,1519.455444 1054.760742,1500.680176 1068.538818,1489.559570 
	C1078.065674,1481.870361 1088.549438,1479.437256 1100.970703,1484.309082 
z"/>
<path fill="#000101" opacity="1.000000" stroke="none" 
	d="
M1844.819336,1141.986206 
	C1868.442261,1135.096313 1887.358521,1146.039185 1890.764526,1168.657593 
	C1891.545410,1173.843140 1890.083618,1179.892700 1888.032471,1184.877197 
	C1882.486694,1198.353638 1867.286987,1207.104858 1853.683228,1205.626343 
	C1840.365234,1204.178955 1828.210571,1192.920166 1824.783203,1178.856323 
	C1821.632690,1165.928589 1827.764893,1152.315674 1840.508057,1144.044312 
	C1841.615845,1143.325317 1842.870361,1142.832642 1844.819336,1141.986206 
z"/>
<path fill="#000101" opacity="1.000000" stroke="none" 
	d="
M2145.722168,1373.147339 
	C2140.685303,1375.230103 2136.111572,1377.524902 2131.333252,1378.092163 
	C2116.474121,1379.856445 2105.707520,1372.559937 2098.589111,1360.376587 
	C2090.849854,1347.130981 2093.415039,1334.432129 2103.674805,1322.435791 
	C2106.732422,1319.985596 2109.396729,1317.963013 2112.303955,1316.389404 
	C2132.099365,1305.675171 2157.423584,1317.228271 2161.345215,1339.093628 
	C2163.921631,1353.457275 2157.200928,1364.151123 2145.722168,1373.147339 
z"/>
<path fill="#000101" opacity="1.000000" stroke="none" 
	d="
M1339.823975,1965.843262 
	C1357.569946,1980.014893 1356.306885,2004.911621 1340.798706,2017.472534 
	C1328.849854,2027.150757 1311.081543,2026.816040 1299.413330,2016.811279 
	C1287.081909,2006.238281 1283.914551,1989.449463 1291.775024,1976.324707 
	C1300.186035,1962.280640 1316.488281,1956.062622 1331.240601,1961.430542 
	C1334.010620,1962.438354 1336.546875,1964.088257 1339.823975,1965.843262 
z"/>
<path fill="#000101" opacity="1.000000" stroke="none" 
	d="
M1798.349243,2213.455566 
	C1790.686523,2218.581299 1783.343994,2222.821533 1774.148560,2221.946289 
	C1760.320923,2220.630127 1748.537354,2211.937744 1744.612671,2199.048584 
	C1740.329956,2184.984619 1744.353760,2173.169434 1755.827881,2163.134277 
	C1764.188232,2158.489014 1772.208130,2155.513672 1781.670898,2157.592773 
	C1805.994141,2162.936768 1816.175293,2187.458740 1802.298828,2208.123535 
	C1801.194702,2209.767822 1799.895630,2211.281250 1798.349243,2213.455566 
z"/>
</svg>