<svg id="svg" version="1.1" xmlns="http://www.w3.org/2000/svg" xmlns:xlink="http://www.w3.org/1999/xlink" width="400" height="400" viewBox="0, 0, 400,400"><g id="svgg"><path id="path0" d="M115.165 136.603 C 114.019 136.705,112.856 136.835,112.582 136.892 C 112.308 136.948,111.821 137.037,111.500 137.088 C 111.179 137.140,110.617 137.260,110.250 137.354 C 109.883 137.449,109.321 137.593,109.000 137.674 C 106.437 138.322,103.443 139.499,101.275 140.709 C 100.619 141.075,99.802 141.529,99.458 141.718 C 99.115 141.907,98.833 142.123,98.833 142.198 C 98.833 142.272,98.758 142.333,98.665 142.333 C 98.329 142.333,96.863 143.425,96.773 143.742 C 96.679 144.071,97.031 144.763,97.669 145.507 C 97.862 145.733,98.150 146.068,98.309 146.254 C 98.468 146.439,98.853 146.964,99.164 147.420 C 99.476 147.877,99.792 148.275,99.866 148.306 C 99.941 148.337,99.950 148.449,99.886 148.556 C 99.733 148.811,100.377 148.312,100.550 148.042 C 100.623 147.927,100.760 147.833,100.853 147.833 C 100.946 147.833,101.267 147.647,101.566 147.419 C 102.893 146.406,106.226 144.798,108.609 144.019 C 113.942 142.276,119.426 141.889,124.257 142.914 C 128.008 143.710,129.534 144.230,132.667 145.779 C 136.561 147.705,137.340 148.528,137.020 150.380 C 136.922 150.950,136.798 151.717,136.746 152.083 C 136.694 152.450,136.615 152.855,136.571 152.983 C 136.527 153.111,136.423 153.673,136.340 154.233 C 136.194 155.208,135.844 157.340,135.497 159.375 C 135.197 161.133,135.015 162.240,134.831 163.417 C 134.731 164.058,134.579 165.033,134.494 165.583 C 134.408 166.133,134.296 166.862,134.245 167.203 C 134.087 168.272,133.530 168.744,132.134 168.994 C 129.996 169.377,127.807 170.212,126.092 171.301 C 125.219 171.855,121.966 175.144,122.091 175.346 C 122.143 175.431,122.119 175.500,122.037 175.500 C 121.859 175.500,121.500 176.239,121.500 176.604 C 121.500 176.816,122.831 178.724,123.171 179.000 C 123.293 179.099,124.500 180.740,125.086 181.603 L 125.500 182.213 125.500 181.690 C 125.500 181.402,125.583 181.167,125.684 181.167 C 125.786 181.167,125.827 181.057,125.775 180.922 C 125.723 180.787,125.748 180.636,125.830 180.585 C 125.912 180.535,126.188 180.064,126.444 179.538 C 128.225 175.880,133.676 173.705,137.412 175.163 C 144.961 178.109,145.618 188.477,138.481 192.034 C 137.292 192.627,136.000 193.069,136.000 192.883 C 136.000 192.833,135.906 192.870,135.792 192.965 C 135.677 193.059,135.227 193.125,134.792 193.110 C 134.356 193.095,134.000 193.107,134.000 193.137 C 134.000 193.215,135.037 194.717,135.242 194.937 C 135.338 195.040,135.967 195.850,136.641 196.738 C 137.945 198.460,138.112 198.546,139.250 198.087 C 143.141 196.516,145.166 194.991,146.869 192.351 C 147.994 190.607,148.198 190.552,150.952 191.242 C 152.934 191.739,155.211 192.279,159.417 193.250 C 160.012 193.387,161.006 193.617,161.625 193.760 C 162.244 193.903,163.125 194.100,163.583 194.197 C 164.042 194.295,164.634 194.441,164.900 194.521 C 165.166 194.601,165.534 194.667,165.717 194.667 C 166.311 194.667,167.140 195.452,167.349 196.213 C 168.160 199.168,169.142 200.671,171.253 202.187 C 172.256 202.907,172.245 203.346,171.175 205.499 C 170.143 207.576,169.101 209.178,167.783 210.718 C 167.219 211.377,166.680 212.012,166.587 212.128 C 165.449 213.538,160.921 216.576,158.500 217.553 C 158.179 217.682,157.617 217.909,157.250 218.057 C 156.154 218.498,155.103 218.828,154.782 218.831 C 154.616 218.832,154.520 218.897,154.568 218.976 C 154.617 219.054,154.478 219.084,154.260 219.043 C 154.042 219.001,153.725 219.047,153.557 219.145 C 153.297 219.296,153.291 219.324,153.522 219.328 C 153.671 219.331,154.116 219.765,154.510 220.292 C 154.905 220.819,155.277 221.287,155.338 221.333 C 155.399 221.379,155.891 222.017,156.432 222.750 C 157.265 223.878,157.639 224.204,157.875 224.007 C 157.898 223.988,158.067 223.951,158.250 223.925 C 158.742 223.855,160.104 223.361,161.315 222.814 C 161.900 222.550,162.443 222.333,162.521 222.333 C 162.599 222.333,163.472 221.853,164.462 221.265 C 170.418 217.730,174.859 212.419,177.646 205.500 C 178.168 204.204,178.455 203.926,179.762 203.450 C 181.663 202.758,181.516 202.858,181.196 202.468 C 181.042 202.282,180.842 202.044,180.750 201.940 C 180.658 201.835,180.362 201.450,180.092 201.083 C 179.822 200.717,179.556 200.379,179.501 200.333 C 179.446 200.287,179.220 199.987,179.000 199.667 C 178.780 199.346,178.554 199.046,178.498 199.000 C 178.443 198.954,178.270 198.730,178.114 198.502 C 177.875 198.154,177.689 198.085,176.941 198.068 C 175.259 198.031,173.500 196.615,173.256 195.101 C 173.055 193.854,173.039 193.500,173.181 193.500 C 173.265 193.500,173.333 193.367,173.333 193.204 C 173.333 193.041,173.459 192.728,173.612 192.509 C 173.765 192.291,173.802 192.166,173.694 192.233 C 173.456 192.380,173.240 192.172,172.503 191.083 C 172.193 190.625,171.893 190.213,171.837 190.167 C 171.780 190.121,171.365 189.596,170.914 189.000 C 170.464 188.404,170.035 187.892,169.963 187.861 C 169.890 187.830,169.877 187.718,169.932 187.611 C 169.988 187.504,169.771 187.717,169.450 188.083 C 169.129 188.450,168.902 188.808,168.945 188.879 C 168.989 188.950,168.963 188.994,168.887 188.977 C 168.812 188.959,168.547 189.002,168.300 189.072 C 168.029 189.148,167.433 189.097,166.800 188.944 C 166.222 188.803,164.925 188.493,163.917 188.254 C 162.908 188.015,161.783 187.745,161.417 187.654 C 161.050 187.563,160.600 187.460,160.417 187.426 C 160.233 187.391,159.874 187.282,159.619 187.183 C 159.364 187.085,159.101 187.020,159.036 187.039 C 158.970 187.059,158.579 186.986,158.167 186.877 C 157.432 186.684,155.237 186.172,153.583 185.808 C 153.125 185.708,152.533 185.559,152.267 185.479 C 152.001 185.399,151.644 185.333,151.473 185.333 C 150.006 185.333,149.483 184.581,149.332 182.250 C 149.214 180.426,148.702 178.504,148.083 177.560 C 147.348 176.437,147.687 175.909,150.917 173.153 C 151.283 172.840,151.921 172.271,152.333 171.888 C 152.746 171.505,153.379 170.942,153.741 170.637 C 154.375 170.103,155.840 168.715,155.697 168.784 C 155.580 168.840,155.284 168.487,153.992 166.750 C 153.310 165.833,152.714 165.046,152.667 165.000 C 152.219 164.556,152.151 164.339,152.345 163.969 C 152.457 163.755,152.202 163.935,151.774 164.372 C 151.348 164.807,151.000 165.111,151.000 165.049 C 151.000 164.987,150.906 165.050,150.792 165.188 C 150.677 165.326,149.946 165.997,149.167 166.678 C 148.387 167.359,147.712 167.955,147.667 168.001 C 147.621 168.047,146.910 168.685,146.087 169.417 C 145.264 170.150,144.445 170.880,144.266 171.040 C 143.708 171.537,143.351 171.548,142.423 171.094 C 140.247 170.029,139.714 168.869,140.321 166.525 C 140.408 166.190,140.565 165.354,140.670 164.667 C 140.775 163.979,141.038 162.479,141.254 161.333 C 141.630 159.334,141.836 158.131,141.923 157.417 C 141.946 157.233,142.049 156.633,142.153 156.083 C 142.257 155.533,142.361 154.783,142.386 154.415 C 142.410 154.048,142.478 153.670,142.537 153.574 C 142.596 153.479,142.622 153.122,142.595 152.780 C 142.568 152.438,142.610 152.118,142.690 152.069 C 142.769 152.020,142.832 151.816,142.831 151.615 C 142.829 151.359,142.787 151.315,142.691 151.467 C 142.592 151.622,142.348 151.409,141.829 150.717 C 141.431 150.185,141.062 149.712,141.008 149.667 C 140.955 149.621,140.235 148.683,139.408 147.583 C 136.706 143.987,135.260 142.085,135.163 142.000 C 135.110 141.954,134.890 141.654,134.673 141.333 C 134.457 141.012,134.090 140.544,133.859 140.292 C 133.567 139.974,133.511 139.832,133.677 139.828 C 133.959 139.822,133.587 139.564,133.162 139.471 C 133.027 139.441,132.879 139.368,132.833 139.308 C 132.787 139.249,132.600 139.174,132.417 139.142 C 132.233 139.110,132.046 139.044,132.000 138.997 C 131.771 138.758,130.982 138.503,131.105 138.707 C 131.192 138.852,131.143 138.846,130.949 138.688 C 130.794 138.562,130.666 138.525,130.664 138.605 C 130.663 138.685,130.599 138.651,130.522 138.530 C 130.445 138.408,130.127 138.245,129.816 138.166 C 129.505 138.087,128.583 137.832,127.767 137.599 C 126.952 137.366,125.977 137.131,125.600 137.076 C 125.224 137.022,124.598 136.907,124.210 136.821 C 123.821 136.736,123.446 136.679,123.376 136.696 C 123.307 136.712,122.688 136.671,122.000 136.605 C 119.937 136.406,117.374 136.406,115.165 136.603 M135.273 140.582 C 135.325 140.719,135.423 140.797,135.490 140.756 C 135.557 140.715,135.793 140.807,136.013 140.961 C 136.397 141.230,136.833 141.377,136.833 141.238 C 136.833 141.202,136.461 140.983,136.005 140.753 C 135.401 140.446,135.203 140.400,135.273 140.582 M233.167 231.106 L 233.167 234.879 233.940 234.773 C 234.365 234.714,234.834 234.667,234.982 234.667 C 235.220 234.667,235.250 234.277,235.250 231.208 L 235.250 227.750 234.667 227.544 C 234.346 227.431,233.877 227.337,233.625 227.336 L 233.167 227.333 233.167 231.106 M277.853 231.849 C 277.868 235.084,277.915 236.051,278.032 235.500 C 278.119 235.088,278.293 234.300,278.418 233.750 C 279.153 230.540,279.071 228.569,278.171 227.754 L 277.833 227.448 277.853 231.849 M178.167 230.214 C 178.167 232.926,178.244 233.167,179.113 233.167 C 180.245 233.167,183.472 234.029,183.701 234.392 C 183.765 234.494,183.840 233.252,183.867 231.632 L 183.917 228.686 183.167 228.498 C 181.207 228.006,179.107 227.644,178.542 227.700 C 178.171 227.737,178.167 227.768,178.167 230.214 M217.944 234.778 C 217.883 234.839,217.833 236.118,217.833 237.620 L 217.833 240.352 218.792 240.774 C 219.319 241.006,219.881 241.313,220.042 241.457 C 220.354 241.737,220.447 242.090,220.162 241.914 C 220.067 241.855,219.486 241.780,218.870 241.746 L 217.750 241.684 217.801 243.743 C 217.851 245.776,217.857 245.803,218.264 245.905 C 219.479 246.210,219.659 247.909,218.583 248.925 L 217.833 249.634 217.833 251.319 L 217.833 253.004 218.468 252.902 C 218.999 252.818,219.190 252.874,219.637 253.251 C 220.541 254.011,222.836 254.516,222.601 253.903 C 222.546 253.758,222.500 249.561,222.500 244.576 L 222.500 235.513 221.792 235.319 C 219.760 234.764,218.181 234.542,217.944 234.778 M317.632 237.568 C 317.605 239.163,317.634 240.437,317.697 240.398 C 317.759 240.360,317.852 240.396,317.904 240.479 C 317.955 240.562,318.190 240.678,318.427 240.738 C 318.917 240.861,319.995 241.523,319.998 241.703 C 319.999 241.769,319.381 241.791,318.625 241.751 C 317.869 241.712,317.347 241.739,317.465 241.811 C 317.623 241.909,317.666 242.419,317.631 243.763 L 317.583 245.583 318.245 246.088 C 319.425 246.988,319.390 248.451,318.173 249.080 L 317.667 249.342 317.667 251.088 L 317.667 252.833 318.303 252.833 C 318.766 252.833,319.084 252.962,319.467 253.304 C 320.258 254.010,322.662 254.495,322.434 253.903 C 322.379 253.758,322.333 249.561,322.333 244.576 L 322.333 235.513 321.708 235.348 C 320.543 235.040,318.585 234.667,318.132 234.667 L 317.682 234.667 317.632 237.568 M183.707 235.062 C 183.493 236.718,181.236 238.703,179.027 239.177 L 178.167 239.361 178.167 241.847 L 178.167 244.333 178.720 244.333 C 180.151 244.333,181.367 244.916,181.825 245.822 C 182.444 247.046,181.542 247.920,179.167 248.399 L 178.250 248.583 178.204 250.987 C 178.148 253.876,177.997 253.708,180.527 253.567 C 182.133 253.478,184.765 253.064,184.043 253.014 C 183.882 253.003,183.826 250.997,183.792 243.875 C 183.767 238.856,183.729 234.890,183.707 235.062 M296.833 237.305 L 296.833 239.810 297.792 240.001 C 300.634 240.568,301.952 242.018,301.120 243.662 C 300.778 244.337,299.933 244.790,298.791 244.909 C 296.690 245.128,296.863 244.965,296.803 246.784 L 296.750 248.379 298.932 248.278 C 300.132 248.222,301.220 248.136,301.349 248.086 C 301.546 248.011,301.576 247.040,301.537 242.062 C 301.508 238.217,301.551 236.056,301.661 235.923 C 301.922 235.609,300.129 235.109,298.042 234.913 L 296.833 234.800 296.833 237.305 M345.576 235.178 C 345.397 235.468,343.179 237.040,341.833 237.832 C 340.374 238.690,339.711 239.167,339.978 239.167 C 340.114 239.167,340.167 240.480,340.167 243.897 L 340.167 248.627 341.567 250.043 C 342.790 251.280,344.912 252.856,345.135 252.694 C 345.178 252.663,345.276 252.738,345.354 252.861 C 345.433 252.986,345.496 251.464,345.497 249.375 C 345.500 245.959,345.523 245.666,345.792 245.656 C 346.009 245.648,345.984 245.606,345.695 245.490 C 345.078 245.243,343.167 243.269,343.167 242.879 C 343.167 242.662,343.551 242.201,344.200 241.641 C 345.811 240.251,346.093 239.975,345.782 240.094 C 345.449 240.222,345.351 235.923,345.673 235.322 C 345.852 234.988,345.770 234.865,345.576 235.178 M233.417 236.245 C 233.050 236.366,232.845 236.473,232.961 236.483 C 233.130 236.496,233.163 238.264,233.128 245.167 L 233.083 253.833 233.861 253.833 C 235.292 253.833,235.167 254.692,235.167 244.918 L 235.167 236.206 234.792 236.105 C 234.304 235.974,234.209 235.984,233.417 236.245 M249.500 237.047 L 248.917 237.250 248.917 239.912 L 248.917 242.574 249.984 242.933 C 252.032 243.623,252.261 244.523,251.844 250.254 C 251.636 253.116,251.824 253.591,253.292 253.909 L 253.833 254.026 253.833 245.683 L 253.833 237.340 253.458 237.255 C 251.959 236.916,250.149 236.821,249.500 237.047 M203.250 237.191 C 202.898 237.383,201.698 238.160,201.417 238.380 C 201.325 238.451,200.965 238.716,200.617 238.968 L 199.985 239.426 199.951 242.511 L 199.917 245.596 200.808 244.633 C 201.298 244.104,202.123 243.351,202.641 242.960 L 203.583 242.250 203.583 239.625 C 203.583 238.181,203.583 237.002,203.583 237.005 C 203.583 237.008,203.433 237.092,203.250 237.191 M280.250 247.928 C 279.198 248.285,278.796 248.312,278.000 248.077 C 277.783 248.013,277.757 248.391,277.799 250.918 L 277.848 253.833 279.549 253.831 C 280.485 253.829,281.340 253.771,281.451 253.701 C 281.708 253.537,281.838 247.491,281.583 247.516 C 281.492 247.526,280.892 247.711,280.250 247.928 M300.167 250.174 C 299.662 250.243,298.706 250.308,298.042 250.317 L 296.833 250.333 296.833 252.250 L 296.833 254.167 298.042 254.152 C 299.158 254.139,302.450 253.729,301.792 253.686 C 301.430 253.662,301.348 250.552,301.700 250.200 C 301.929 249.971,301.668 249.966,300.167 250.174 " stroke="none" fill="#44a3bc" fill-rule="evenodd"></path><path id="path1" d="M117.542 136.448 C 117.702 136.490,117.965 136.490,118.125 136.448 C 118.285 136.406,118.154 136.372,117.833 136.372 C 117.513 136.372,117.381 136.406,117.542 136.448 M119.294 136.451 C 119.501 136.491,119.801 136.490,119.960 136.448 C 120.120 136.406,119.950 136.374,119.583 136.375 C 119.217 136.377,119.086 136.411,119.294 136.451 M96.455 143.682 C 96.292 143.776,96.204 143.926,96.259 144.014 C 96.313 144.103,96.293 144.154,96.214 144.129 C 95.566 143.922,90.316 149.210,88.318 152.083 C 86.979 154.009,84.667 158.112,84.667 158.564 C 84.667 158.622,84.527 158.988,84.356 159.377 C 83.341 161.686,82.646 164.168,81.993 167.810 C 81.872 168.485,81.661 169.148,81.525 169.285 C 81.214 169.595,81.080 169.577,77.500 168.741 C 76.446 168.495,75.433 168.270,75.250 168.241 C 75.067 168.212,73.942 167.992,72.750 167.753 C 70.031 167.206,67.979 166.816,67.708 166.795 C 67.594 166.785,67.500 166.711,67.500 166.630 C 67.500 166.549,67.270 166.403,66.990 166.305 C 66.663 166.191,66.511 166.044,66.568 165.897 C 66.616 165.770,66.579 165.667,66.485 165.667 C 66.391 165.667,66.360 165.592,66.417 165.500 C 66.473 165.408,66.444 165.333,66.351 165.333 C 66.258 165.333,66.135 165.052,66.079 164.708 C 66.022 164.365,65.906 163.915,65.821 163.708 C 65.465 162.844,65.238 162.404,65.042 162.196 C 64.927 162.075,64.833 161.925,64.832 161.863 C 64.827 161.407,62.322 159.218,62.019 159.405 C 61.929 159.460,61.802 159.418,61.736 159.310 C 61.654 159.178,61.691 159.159,61.849 159.251 C 61.986 159.330,62.026 159.324,61.947 159.237 C 61.871 159.155,61.684 159.087,61.530 159.085 C 61.376 159.084,61.271 158.984,61.296 158.863 C 61.321 158.741,61.267 158.688,61.176 158.744 C 61.084 158.801,60.801 158.742,60.547 158.614 C 60.292 158.485,59.858 158.335,59.583 158.280 C 59.308 158.225,59.177 158.221,59.292 158.271 C 59.406 158.320,59.500 158.467,59.500 158.597 C 59.500 158.727,59.559 158.833,59.631 158.833 C 59.703 158.833,59.893 159.056,60.053 159.327 C 60.214 159.599,60.439 159.918,60.553 160.036 C 60.667 160.154,60.942 160.512,61.164 160.833 C 61.386 161.154,61.609 161.454,61.660 161.500 C 61.710 161.546,61.973 161.883,62.242 162.250 C 62.512 162.617,62.777 162.954,62.833 163.000 C 62.888 163.046,63.113 163.346,63.333 163.667 C 63.554 163.987,63.775 164.287,63.826 164.333 C 63.877 164.379,64.363 165.017,64.905 165.750 C 65.448 166.483,65.937 167.121,65.991 167.167 C 66.045 167.212,66.873 168.300,67.832 169.583 C 68.790 170.867,69.675 172.021,69.798 172.148 C 69.922 172.276,70.139 172.557,70.280 172.772 C 70.427 172.996,70.832 173.244,71.227 173.351 C 71.606 173.453,72.138 173.619,72.408 173.719 C 72.678 173.819,73.128 173.913,73.408 173.927 C 73.688 173.942,74.254 174.048,74.667 174.163 C 75.079 174.278,75.492 174.387,75.583 174.406 C 77.329 174.759,77.500 174.825,77.500 175.150 C 77.500 175.312,77.294 175.636,77.042 175.869 C 76.306 176.551,75.667 177.291,75.667 177.461 C 75.667 177.547,75.479 177.820,75.250 178.068 C 74.833 178.517,74.714 178.923,74.968 179.028 C 75.042 179.058,75.358 179.457,75.669 179.913 C 75.980 180.369,76.365 180.894,76.524 181.080 C 76.683 181.265,76.974 181.604,77.171 181.833 C 77.368 182.063,77.651 182.456,77.801 182.708 C 78.166 183.326,78.218 183.308,79.216 182.223 C 81.139 180.130,83.346 178.108,84.583 177.305 C 85.781 176.527,85.644 176.517,91.250 177.761 C 92.350 178.005,93.550 178.263,93.917 178.334 C 94.283 178.405,94.996 178.555,95.500 178.667 C 96.004 178.778,96.717 178.928,97.083 178.999 C 97.944 179.166,101.078 179.829,101.833 180.005 C 102.154 180.079,103.354 180.338,104.500 180.580 C 105.646 180.822,106.696 181.046,106.833 181.077 C 107.687 181.271,109.854 181.729,110.417 181.835 C 110.783 181.905,111.871 182.128,112.833 182.333 C 113.796 182.537,114.921 182.768,115.333 182.847 C 119.231 183.587,119.392 183.703,119.562 185.883 C 119.618 186.598,119.856 187.756,120.092 188.457 C 120.661 190.152,120.606 190.285,118.790 191.629 C 117.943 192.256,115.725 193.889,113.861 195.259 C 111.998 196.629,109.223 198.672,107.695 199.798 C 106.167 200.925,104.467 202.158,103.917 202.539 C 103.367 202.920,102.817 203.330,102.696 203.450 C 102.574 203.570,102.126 203.908,101.700 204.201 C 101.273 204.495,100.810 204.829,100.670 204.945 C 100.078 205.435,98.917 206.277,98.355 206.622 C 98.022 206.827,97.825 206.996,97.917 206.998 C 98.008 206.999,97.837 207.211,97.536 207.468 L 96.990 207.936 97.522 208.671 C 97.815 209.075,98.185 209.546,98.345 209.717 C 98.504 209.888,98.998 210.544,99.442 211.173 C 100.350 212.461,100.426 212.495,101.089 211.926 C 101.349 211.702,101.618 211.553,101.686 211.596 C 101.755 211.638,101.855 211.600,101.910 211.512 C 101.964 211.423,102.326 211.135,102.713 210.870 C 103.315 210.458,113.257 203.176,115.519 201.490 C 115.942 201.175,117.254 200.209,118.435 199.345 C 119.617 198.480,121.141 197.355,121.822 196.845 C 124.045 195.180,124.176 195.162,125.883 196.302 C 127.276 197.232,127.948 197.561,129.667 198.153 C 131.567 198.807,131.437 198.036,131.413 208.517 C 131.391 218.072,131.400 217.969,130.533 218.939 C 130.378 219.113,129.650 219.967,128.917 220.836 C 128.183 221.706,127.422 222.604,127.225 222.833 C 127.027 223.062,126.324 223.887,125.661 224.667 C 124.998 225.446,124.259 226.310,124.019 226.587 C 123.780 226.864,123.210 227.539,122.754 228.087 C 122.297 228.635,121.884 229.121,121.834 229.167 C 121.785 229.213,121.258 229.845,120.664 230.572 C 120.070 231.299,119.265 232.243,118.877 232.671 C 118.488 233.098,118.219 233.497,118.279 233.557 C 118.340 233.617,118.306 233.667,118.206 233.667 C 118.105 233.667,117.975 233.818,117.916 234.002 C 117.857 234.187,117.755 234.305,117.689 234.264 C 117.213 233.970,117.810 235.572,118.336 236.000 C 118.393 236.046,118.689 236.451,118.995 236.901 C 119.301 237.350,119.671 237.841,119.817 237.992 C 119.964 238.143,120.254 238.494,120.462 238.772 L 120.840 239.277 121.628 238.511 C 122.450 237.712,124.526 235.400,125.097 234.649 C 125.279 234.410,125.885 233.697,126.445 233.066 C 127.515 231.858,129.303 229.772,130.401 228.450 C 131.297 227.373,131.279 227.339,131.373 230.375 C 131.484 233.962,131.444 234.066,129.505 235.200 C 127.687 236.263,125.480 238.993,125.286 240.417 C 125.261 240.600,125.179 240.849,125.104 240.969 C 124.860 241.360,124.789 244.271,125.013 244.695 C 125.185 245.022,126.199 246.405,126.947 247.333 C 127.058 247.471,127.914 248.596,128.850 249.833 C 129.786 251.071,130.671 252.157,130.817 252.247 C 131.307 252.548,132.246 252.872,132.625 252.870 C 132.831 252.869,133.000 252.931,133.000 253.007 C 133.000 253.234,136.164 253.153,136.860 252.907 C 137.212 252.783,137.500 252.714,137.500 252.754 C 137.500 252.794,138.106 252.513,138.847 252.129 C 143.910 249.506,145.645 243.433,142.739 238.510 C 142.031 237.312,140.868 236.185,139.231 235.110 C 138.509 234.637,137.824 234.063,137.708 233.833 C 137.474 233.371,137.474 224.303,137.709 224.069 C 137.825 223.953,138.576 224.100,140.000 224.518 C 140.746 224.737,141.412 224.894,143.167 225.266 C 144.284 225.503,145.340 225.566,148.167 225.563 C 151.717 225.560,151.873 225.544,155.410 224.831 C 155.864 224.739,156.305 224.595,156.388 224.512 C 156.472 224.428,156.644 224.399,156.770 224.448 C 156.897 224.496,157.000 224.455,157.000 224.356 C 157.000 224.258,157.105 224.217,157.233 224.267 C 157.361 224.316,157.523 224.257,157.593 224.136 C 157.663 224.016,157.662 223.969,157.592 224.032 C 157.522 224.095,157.010 223.533,156.456 222.782 C 155.902 222.031,155.399 221.379,155.338 221.333 C 155.277 221.287,154.910 220.826,154.523 220.308 C 153.854 219.414,153.299 219.071,152.805 219.245 C 151.723 219.628,147.418 219.781,145.701 219.498 C 144.994 219.382,144.267 219.266,144.083 219.240 C 142.684 219.044,139.268 218.006,138.461 217.532 C 137.499 216.967,137.500 216.978,137.500 207.754 L 137.500 199.308 137.987 198.821 C 138.401 198.406,138.428 198.333,138.162 198.333 C 137.963 198.333,137.409 197.754,136.633 196.733 C 135.964 195.853,135.284 194.978,135.122 194.788 C 134.960 194.597,134.626 194.124,134.380 193.735 C 134.022 193.168,133.816 193.013,133.342 192.948 C 128.766 192.325,125.514 188.553,125.434 183.778 C 125.419 182.846,125.337 181.971,125.254 181.833 C 125.026 181.461,123.287 179.096,123.170 179.000 C 122.790 178.689,121.499 176.802,121.497 176.554 C 121.495 176.342,121.383 176.427,121.129 176.833 C 120.491 177.851,120.114 177.865,116.417 177.015 C 116.050 176.931,114.475 176.589,112.917 176.255 C 109.749 175.576,109.438 175.510,107.083 175.025 C 106.167 174.835,104.704 174.526,103.833 174.338 C 101.570 173.847,99.026 173.315,98.250 173.170 C 97.883 173.101,96.871 172.888,96.000 172.697 C 91.921 171.801,90.359 171.468,89.667 171.345 C 87.464 170.952,87.395 170.671,88.418 166.250 C 89.261 162.610,91.984 156.671,93.501 155.167 C 93.547 155.121,94.008 154.558,94.525 153.917 C 95.895 152.218,97.711 150.403,99.673 148.774 C 99.878 148.604,99.974 148.416,99.887 148.357 C 99.799 148.298,99.474 147.877,99.163 147.420 C 98.852 146.964,98.468 146.439,98.309 146.254 C 98.150 146.068,97.862 145.733,97.669 145.507 C 97.040 144.774,96.661 144.043,96.766 143.769 C 96.885 143.458,96.855 143.449,96.455 143.682 M123.824 173.125 L 123.250 173.750 123.875 173.176 C 124.457 172.641,124.577 172.500,124.449 172.500 C 124.422 172.500,124.140 172.781,123.824 173.125 M134.375 193.115 C 134.535 193.157,134.798 193.157,134.958 193.115 C 135.119 193.073,134.987 193.039,134.667 193.039 C 134.346 193.039,134.215 193.073,134.375 193.115 M108.125 222.599 C 108.240 222.651,108.333 222.769,108.333 222.859 C 108.333 222.950,108.427 223.121,108.542 223.240 C 108.959 223.672,109.463 224.296,109.909 224.933 L 110.366 225.583 110.241 224.917 C 110.172 224.550,110.111 224.124,110.105 223.971 C 110.100 223.817,110.055 223.715,110.006 223.745 C 109.957 223.774,109.820 223.694,109.702 223.566 C 109.529 223.379,109.528 223.333,109.699 223.333 C 109.980 223.333,108.867 222.743,108.333 222.608 C 108.104 222.550,108.010 222.546,108.125 222.599 M334.292 226.953 C 333.632 227.053,333.654 226.524,333.704 240.917 L 333.750 254.083 334.126 254.137 C 334.909 254.248,336.392 253.659,337.038 252.980 L 337.659 252.327 337.705 249.337 L 337.750 246.348 338.333 246.855 C 338.654 247.134,339.198 247.621,339.542 247.938 L 340.167 248.513 340.167 243.858 C 340.167 238.509,340.227 238.686,338.731 239.679 C 338.191 240.038,337.734 240.275,337.715 240.207 C 337.695 240.139,337.613 239.183,337.532 238.083 C 337.370 235.885,337.576 232.982,338.011 231.333 C 338.836 228.207,337.375 226.486,334.292 226.953 M274.667 227.198 C 273.716 227.598,273.410 227.758,273.294 227.916 C 272.990 228.331,273.151 253.813,273.458 253.973 C 273.629 254.062,274.441 254.068,275.417 253.987 C 276.333 253.911,277.257 253.846,277.469 253.841 L 277.854 253.833 277.802 250.863 C 277.757 248.300,277.710 247.852,277.458 247.601 C 277.017 247.160,277.252 240.147,277.803 237.333 C 277.865 237.012,277.894 234.641,277.865 232.064 L 277.814 227.378 277.399 227.189 C 276.887 226.956,275.230 226.961,274.667 227.198 M231.917 227.250 C 231.825 227.281,231.487 227.349,231.167 227.403 L 230.583 227.499 230.667 230.958 L 230.750 234.417 231.333 234.616 C 231.654 234.725,232.198 234.819,232.542 234.824 L 233.167 234.833 233.167 231.103 C 233.167 227.375,233.166 227.372,232.792 227.272 C 232.391 227.164,232.183 227.159,231.917 227.250 M171.375 227.444 C 171.211 227.510,171.167 230.345,171.167 240.836 C 171.167 256.072,170.966 254.496,172.859 254.155 C 173.441 254.050,174.967 253.869,176.250 253.754 C 177.533 253.638,178.486 253.533,178.367 253.522 C 178.197 253.505,178.161 252.962,178.200 251.022 L 178.250 248.545 177.244 248.626 C 175.972 248.728,175.833 248.496,175.833 246.260 C 175.833 244.502,175.783 244.568,177.264 244.394 L 178.167 244.287 178.167 241.823 C 178.167 239.610,178.197 239.351,178.458 239.295 C 178.619 239.261,178.084 239.221,177.270 239.206 C 175.510 239.173,175.682 239.299,175.556 237.945 C 175.272 234.907,176.155 232.896,177.708 233.043 C 178.144 233.084,178.500 233.054,178.500 232.976 C 178.500 232.897,178.425 232.833,178.333 232.833 C 178.229 232.833,178.167 231.870,178.167 230.278 C 178.167 228.359,178.115 227.715,177.958 227.694 C 177.844 227.679,177.300 227.598,176.750 227.514 C 175.693 227.353,171.729 227.301,171.375 227.444 M243.077 234.542 C 243.033 234.656,243.016 239.100,243.040 244.417 L 243.083 254.083 243.475 254.139 C 245.410 254.413,246.035 253.226,246.093 249.167 C 246.154 244.834,246.770 243.133,248.437 242.688 L 248.917 242.560 248.963 240.001 C 248.988 238.594,248.941 237.374,248.857 237.291 C 248.712 237.146,248.617 237.177,247.625 237.696 C 247.419 237.804,247.063 237.990,246.834 238.110 C 246.420 238.327,246.416 238.322,246.233 237.372 C 246.131 236.847,245.987 236.267,245.912 236.083 C 245.497 235.066,243.327 233.886,243.077 234.542 M214.417 235.076 C 212.107 235.657,212.333 235.295,212.333 238.407 C 212.333 241.647,212.137 241.406,214.211 240.709 C 215.888 240.146,216.437 240.099,217.583 240.423 C 217.908 240.515,217.917 240.437,217.917 237.592 L 217.917 234.667 216.917 234.683 C 216.367 234.691,215.242 234.868,214.417 235.076 M314.131 235.067 C 312.055 235.614,312.167 235.417,312.167 238.520 C 312.167 241.534,312.104 241.432,313.603 240.852 C 315.128 240.262,315.799 240.117,316.448 240.239 C 317.902 240.510,317.756 240.820,317.701 237.590 L 317.652 234.719 316.618 234.702 C 316.019 234.692,314.972 234.846,314.131 235.067 M196.431 234.999 C 195.663 235.242,195.672 235.122,195.669 244.788 L 195.667 253.994 196.087 254.099 C 196.573 254.221,197.913 253.922,198.455 253.571 C 199.259 253.050,199.402 252.452,199.409 249.583 C 199.416 247.141,199.448 246.856,199.795 246.196 C 200.004 245.800,200.116 245.512,200.045 245.555 C 199.887 245.653,199.940 239.573,200.100 239.288 C 200.188 239.132,200.162 239.133,199.991 239.292 C 199.614 239.642,199.458 239.526,199.543 238.958 C 199.934 236.343,198.391 234.380,196.431 234.999 M294.212 235.009 C 293.283 235.192,292.005 235.765,291.632 236.166 C 291.353 236.465,291.333 237.042,291.333 244.814 C 291.333 253.925,291.292 253.540,292.303 253.766 C 292.549 253.821,293.012 253.933,293.333 254.015 C 293.654 254.098,294.573 254.165,295.375 254.166 L 296.833 254.167 296.833 252.181 L 296.833 250.196 296.161 250.082 C 295.192 249.919,294.503 249.528,294.316 249.039 C 294.092 248.448,294.247 248.358,295.583 248.300 L 296.750 248.250 296.798 246.719 C 296.838 245.439,296.892 245.176,297.131 245.114 C 297.288 245.072,297.042 245.030,296.583 245.018 C 294.464 244.967,293.839 244.454,294.174 243.041 C 294.515 241.596,295.128 240.666,296.050 240.191 L 296.833 239.788 296.833 237.311 L 296.833 234.833 295.875 234.852 C 295.348 234.862,294.599 234.932,294.212 235.009 M231.711 236.889 L 230.673 237.401 230.628 245.448 L 230.583 253.494 231.017 253.674 C 231.256 253.773,231.818 253.830,232.267 253.802 L 233.083 253.750 233.126 245.143 C 233.175 235.408,233.295 236.108,231.711 236.889 M136.045 240.290 C 137.722 240.955,138.543 243.007,137.856 244.813 C 136.832 247.508,133.293 248.015,131.559 245.715 C 129.238 242.637,132.381 238.835,136.045 240.290 M215.083 241.904 C 213.728 242.182,212.880 242.477,212.582 242.775 C 212.173 243.184,212.214 253.418,212.625 253.576 C 213.558 253.934,215.372 253.802,217.083 253.250 L 217.750 253.035 217.833 251.182 C 217.905 249.578,217.883 249.343,217.667 249.435 C 217.124 249.664,215.800 249.705,215.424 249.504 C 213.757 248.612,215.112 245.833,217.213 245.833 L 217.814 245.833 217.865 243.776 L 217.917 241.718 217.000 241.708 C 216.496 241.703,215.633 241.791,215.083 241.904 M315.583 241.744 C 315.492 241.775,314.857 241.929,314.172 242.086 C 313.488 242.244,312.757 242.485,312.547 242.622 L 312.167 242.872 312.167 248.176 C 312.167 251.644,312.226 253.517,312.339 253.587 C 312.726 253.826,314.155 253.832,315.250 253.600 C 316.997 253.229,318.287 252.873,317.958 252.852 C 317.700 252.835,317.667 252.631,317.667 251.066 C 317.667 249.446,317.642 249.308,317.375 249.422 C 315.706 250.134,314.400 249.456,314.543 247.953 C 314.664 246.676,315.705 245.849,317.229 245.820 C 317.607 245.813,317.842 245.776,317.750 245.737 C 317.540 245.649,317.627 241.961,317.842 241.828 C 318.004 241.728,315.867 241.648,315.583 241.744 " stroke="none" fill="#2f83b3" fill-rule="evenodd"></path><path id="path2" d="M55.167 157.850 C 53.866 158.192,53.226 158.416,52.750 158.697 C 52.475 158.859,51.975 159.142,51.638 159.326 C 46.562 162.099,45.755 170.001,50.099 174.391 C 52.423 176.739,57.137 177.893,59.839 176.775 C 61.337 176.155,62.162 175.747,62.164 175.625 C 62.166 175.556,62.250 175.500,62.352 175.500 C 62.643 175.500,64.074 174.239,64.516 173.593 C 65.402 172.298,65.799 172.286,70.500 173.413 C 72.146 173.807,72.625 173.882,72.333 173.699 C 72.196 173.613,71.798 173.491,71.449 173.429 C 70.612 173.278,70.544 173.205,67.835 169.583 C 66.875 168.300,66.045 167.212,65.991 167.167 C 65.937 167.121,65.448 166.483,64.905 165.750 C 64.363 165.017,63.877 164.379,63.826 164.333 C 63.775 164.287,63.554 163.987,63.333 163.667 C 63.113 163.346,62.888 163.046,62.833 163.000 C 62.777 162.954,62.512 162.617,62.242 162.250 C 61.973 161.883,61.710 161.546,61.660 161.500 C 61.609 161.454,61.386 161.154,61.164 160.833 C 60.942 160.512,60.667 160.154,60.553 160.036 C 60.439 159.918,60.214 159.599,60.053 159.327 C 59.893 159.056,59.703 158.833,59.631 158.833 C 59.559 158.833,59.500 158.721,59.500 158.583 C 59.500 158.446,59.412 158.333,59.306 158.333 C 59.199 158.333,59.147 158.298,59.190 158.255 C 59.342 158.102,60.437 158.501,61.209 158.991 C 61.730 159.322,62.027 159.424,62.104 159.300 C 62.171 159.191,62.143 159.162,62.034 159.229 C 61.933 159.291,61.765 159.184,61.662 158.990 C 61.558 158.797,61.429 158.682,61.375 158.736 C 61.321 158.790,61.158 158.735,61.014 158.613 C 60.760 158.401,60.164 158.197,58.750 157.838 C 57.942 157.633,55.968 157.639,55.167 157.850 M64.333 161.250 C 64.549 161.479,64.753 161.667,64.787 161.667 C 64.925 161.667,64.238 160.843,64.096 160.839 C 64.011 160.836,64.118 161.021,64.333 161.250 M58.035 163.998 C 59.710 164.628,60.538 165.755,60.547 167.417 C 60.563 170.220,57.606 171.981,55.170 170.620 C 51.460 168.547,54.073 162.508,58.035 163.998 M66.080 164.655 C 66.168 165.212,66.281 165.459,66.385 165.319 C 66.413 165.281,66.336 164.987,66.213 164.667 L 65.989 164.083 66.080 164.655 M66.500 165.982 C 66.500 166.064,66.619 166.177,66.764 166.232 C 67.171 166.389,67.225 166.355,67.000 166.083 C 66.770 165.806,66.500 165.752,66.500 165.982 M73.652 174.013 C 73.481 174.121,73.541 174.162,73.875 174.164 C 74.373 174.167,74.462 174.085,74.110 173.950 C 73.987 173.903,73.781 173.931,73.652 174.013 M76.167 176.583 C 75.951 176.813,75.845 176.998,75.929 176.995 C 76.072 176.990,76.759 176.167,76.620 176.167 C 76.586 176.167,76.382 176.354,76.167 176.583 M74.980 178.018 C 74.205 178.962,72.394 181.493,72.132 182.000 C 72.014 182.229,71.872 182.454,71.816 182.500 C 71.676 182.616,70.000 186.135,70.000 186.314 C 70.000 186.393,69.813 186.880,69.585 187.396 C 69.357 187.912,69.207 188.333,69.251 188.333 C 69.295 188.333,69.226 188.615,69.099 188.958 C 68.971 189.302,68.789 189.921,68.695 190.333 C 68.262 192.227,68.171 192.657,67.973 193.750 C 67.711 195.195,67.698 201.580,67.954 202.750 C 68.055 203.208,68.227 204.033,68.337 204.583 C 68.880 207.283,71.567 214.068,72.188 214.306 C 72.268 214.336,72.333 214.442,72.333 214.540 C 72.333 214.638,72.521 214.964,72.750 215.265 C 72.979 215.565,73.167 215.861,73.167 215.921 C 73.167 215.982,73.323 216.252,73.515 216.521 C 73.809 216.934,73.847 217.160,73.760 217.964 C 73.043 224.586,74.236 227.573,78.563 229.991 C 81.615 231.695,86.780 231.232,88.966 229.057 C 89.435 228.591,90.455 228.432,91.548 228.655 C 95.049 229.370,97.189 229.546,100.815 229.416 C 103.277 229.328,103.908 229.350,104.021 229.528 C 104.098 229.650,104.167 234.250,104.173 239.750 C 104.187 252.262,104.236 252.614,106.079 253.480 C 107.603 254.197,108.994 253.777,110.263 252.217 C 111.097 251.193,111.587 250.615,112.422 249.674 C 112.791 249.258,113.466 248.467,113.922 247.917 C 114.377 247.368,114.911 246.730,115.109 246.501 C 115.306 246.271,116.008 245.446,116.669 244.667 C 117.330 243.887,118.190 242.875,118.580 242.417 C 119.799 240.986,120.412 240.259,120.546 240.085 C 120.617 239.992,120.969 239.581,121.328 239.171 C 121.686 238.760,121.941 238.385,121.893 238.337 C 121.845 238.289,121.594 238.488,121.334 238.778 L 120.862 239.306 120.473 238.786 C 120.259 238.501,119.964 238.143,119.817 237.992 C 119.671 237.841,119.301 237.350,118.995 236.901 C 118.689 236.451,118.393 236.046,118.336 236.000 C 117.468 235.293,117.422 234.185,118.237 233.628 C 118.353 233.549,118.356 233.504,118.245 233.503 C 118.051 233.500,117.437 234.164,117.627 234.172 C 117.694 234.175,117.617 234.254,117.455 234.349 C 117.292 234.443,117.210 234.602,117.272 234.703 C 117.336 234.805,117.309 234.838,117.211 234.777 C 117.115 234.718,116.925 234.838,116.789 235.043 C 116.652 235.249,116.288 235.679,115.979 236.000 C 115.670 236.321,115.436 236.640,115.458 236.708 C 115.481 236.777,115.444 236.833,115.375 236.833 C 115.306 236.834,114.612 237.590,113.833 238.515 C 113.054 239.440,111.987 240.659,111.462 241.223 L 110.507 242.250 110.504 233.329 C 110.500 225.141,110.476 224.374,110.211 223.995 C 110.053 223.769,109.944 223.546,109.970 223.500 C 109.996 223.454,109.888 223.390,109.729 223.357 C 109.461 223.302,109.460 223.317,109.714 223.571 C 109.980 223.837,110.331 224.834,110.332 225.330 C 110.333 225.466,110.135 225.286,109.893 224.930 C 109.469 224.306,108.980 223.694,108.542 223.240 C 108.427 223.121,108.333 222.950,108.333 222.859 C 108.333 222.769,108.240 222.651,108.125 222.599 C 108.010 222.546,108.104 222.548,108.333 222.602 C 108.563 222.657,108.925 222.812,109.139 222.947 C 109.354 223.083,109.566 223.156,109.612 223.110 C 109.760 222.962,108.861 222.471,108.151 222.311 C 107.462 222.156,107.083 222.202,104.613 222.740 C 102.058 223.296,97.714 223.501,95.702 223.161 C 93.081 222.717,92.667 222.292,92.667 220.043 C 92.667 218.332,92.654 218.351,94.917 216.758 C 95.558 216.306,96.121 215.891,96.167 215.835 C 96.212 215.780,96.513 215.554,96.833 215.333 C 97.154 215.113,97.454 214.887,97.500 214.830 C 97.546 214.774,97.958 214.475,98.417 214.167 C 98.875 213.858,99.287 213.558,99.333 213.500 C 99.379 213.442,99.754 213.164,100.167 212.882 C 101.121 212.229,101.742 211.686,101.645 211.589 C 101.603 211.547,101.354 211.698,101.092 211.923 C 100.426 212.496,100.351 212.462,99.442 211.173 C 98.998 210.544,98.504 209.888,98.345 209.717 C 98.185 209.546,97.815 209.075,97.522 208.671 L 96.990 207.936 97.536 207.468 C 97.921 207.139,98.001 207.001,97.806 207.000 C 97.653 207.000,97.503 207.056,97.472 207.125 C 97.442 207.194,97.098 207.466,96.708 207.731 C 96.319 207.996,96.000 208.281,96.000 208.366 C 96.000 208.450,95.930 208.476,95.844 208.423 C 95.758 208.370,95.626 208.430,95.552 208.558 C 95.478 208.685,94.817 209.188,94.083 209.675 C 93.350 210.162,92.712 210.607,92.667 210.664 C 92.621 210.720,92.321 210.946,92.000 211.167 C 91.679 211.387,91.379 211.611,91.333 211.664 C 90.175 213.011,88.914 213.308,87.430 212.584 C 85.102 211.450,83.111 211.233,80.750 211.858 C 79.104 212.294,78.474 212.382,78.223 212.212 C 77.992 212.057,76.167 209.180,76.167 208.973 C 76.167 208.894,76.023 208.512,75.847 208.123 C 73.117 202.083,73.127 194.186,75.873 188.000 C 76.498 186.591,76.676 186.249,77.338 185.192 C 77.702 184.609,78.000 184.072,78.000 183.997 C 78.000 183.922,78.059 183.836,78.131 183.806 C 78.479 183.658,79.000 182.687,78.795 182.568 C 78.678 182.501,78.639 182.508,78.707 182.583 C 78.775 182.659,78.677 182.828,78.488 182.960 C 78.299 183.093,78.126 183.174,78.102 183.142 C 78.078 183.110,77.878 182.821,77.657 182.500 C 77.279 181.952,76.809 181.363,76.409 180.936 C 76.313 180.834,75.980 180.375,75.668 179.917 C 75.357 179.458,75.042 179.058,74.968 179.028 C 74.714 178.923,74.833 178.517,75.250 178.068 C 75.619 177.669,75.782 177.333,75.605 177.333 C 75.571 177.333,75.290 177.642,74.980 178.018 M79.501 181.916 C 79.286 182.145,79.141 182.360,79.180 182.394 C 79.218 182.428,79.424 182.241,79.638 181.978 C 80.115 181.390,80.031 181.352,79.501 181.916 M84.957 218.223 C 87.987 220.136,86.656 224.833,83.083 224.833 C 82.196 224.833,81.449 224.610,81.043 224.223 C 80.928 224.114,80.663 223.889,80.454 223.721 C 77.283 221.190,81.500 216.040,84.957 218.223 M166.352 226.792 C 165.776 228.579,165.837 230.394,166.520 231.767 C 166.813 232.355,167.227 232.718,168.284 233.314 C 168.482 233.425,168.396 234.426,167.821 238.750 C 167.271 242.880,167.062 247.731,167.346 249.785 C 167.733 252.588,168.290 253.469,170.047 254.064 C 170.750 254.301,171.915 254.441,171.375 254.223 C 171.211 254.157,171.167 251.322,171.167 240.833 C 171.167 230.345,171.211 227.510,171.375 227.444 C 171.490 227.397,170.861 227.354,169.979 227.346 C 168.240 227.332,167.303 227.066,167.000 226.500 C 166.740 226.015,166.579 226.087,166.352 226.792 M333.333 227.204 C 333.104 227.304,332.317 227.681,331.583 228.042 C 330.537 228.557,330.118 228.681,329.637 228.617 L 329.025 228.535 328.827 229.361 C 328.573 230.420,328.827 231.408,329.559 232.204 C 331.037 233.812,331.101 233.998,331.290 237.250 C 331.435 239.728,331.283 242.735,330.904 244.917 C 330.761 245.742,330.575 246.904,330.492 247.500 C 330.408 248.096,330.274 248.977,330.195 249.459 C 329.676 252.592,330.585 254.113,333.000 254.154 L 333.750 254.167 333.750 240.583 C 333.750 233.112,333.750 227.005,333.750 227.011 C 333.750 227.017,333.563 227.104,333.333 227.204 M229.616 228.004 C 228.878 228.585,228.667 229.237,228.667 230.937 C 228.667 233.017,229.075 233.802,230.479 234.419 C 231.119 234.701,231.393 234.740,230.958 234.487 C 230.696 234.334,230.667 233.983,230.667 230.992 C 230.667 227.316,230.629 227.208,229.616 228.004 M272.333 228.180 C 271.676 228.520,271.169 228.656,270.542 228.660 C 270.042 228.664,269.667 228.742,269.667 228.843 C 269.667 229.209,270.043 230.606,270.291 231.161 C 270.572 231.789,270.498 237.742,270.175 240.583 C 269.044 250.514,269.522 252.765,273.000 253.878 C 273.221 253.948,273.250 252.421,273.250 240.812 C 273.250 233.582,273.250 227.675,273.250 227.686 C 273.250 227.697,272.837 227.919,272.333 228.180 M118.929 232.484 L 118.441 233.083 119.004 232.547 C 119.313 232.252,119.533 231.982,119.491 231.948 C 119.450 231.913,119.197 232.155,118.929 232.484 M241.157 234.583 C 239.147 235.135,238.109 236.094,238.823 236.740 C 239.762 237.590,240.353 240.680,240.031 243.060 C 239.931 243.806,239.769 245.017,239.673 245.750 C 238.932 251.390,239.804 254.167,242.317 254.167 L 243.083 254.167 243.083 244.250 L 243.083 234.333 242.500 234.354 C 242.179 234.365,241.575 234.469,241.157 234.583 M194.917 235.580 C 193.887 236.075,193.792 236.081,193.417 235.667 C 192.511 234.665,191.901 236.877,192.654 238.435 C 193.230 239.627,193.370 242.409,193.047 246.250 C 192.562 252.007,192.733 253.242,194.114 253.974 C 194.523 254.191,196.209 254.241,195.871 254.027 C 195.702 253.920,195.668 251.974,195.704 244.529 C 195.729 239.380,195.750 235.169,195.750 235.173 C 195.750 235.176,195.375 235.359,194.917 235.580 M312.167 235.609 C 309.474 236.505,307.982 238.323,308.228 240.408 C 308.356 241.491,308.743 241.876,309.690 241.863 C 310.590 241.851,313.063 241.274,312.542 241.198 C 312.101 241.134,311.941 236.125,312.367 235.700 C 312.579 235.487,312.560 235.479,312.167 235.609 M211.333 236.041 C 210.921 236.237,210.546 236.440,210.500 236.492 C 210.454 236.543,210.141 236.791,209.804 237.041 C 208.175 238.255,207.859 241.294,209.308 241.800 C 209.747 241.952,211.880 241.696,212.295 241.441 C 212.451 241.345,212.358 235.664,212.201 235.675 C 212.136 235.680,211.746 235.844,211.333 236.041 M290.846 236.506 C 288.978 237.982,287.920 240.078,287.271 243.583 C 286.779 246.241,287.343 250.175,288.333 251.000 C 288.388 251.046,288.609 251.336,288.826 251.645 C 289.159 252.122,291.010 253.500,291.318 253.500 C 291.372 253.500,291.396 249.638,291.371 244.917 C 291.343 239.775,291.386 236.333,291.478 236.333 C 291.562 236.333,291.674 236.221,291.727 236.083 C 291.865 235.723,291.791 235.759,290.846 236.506 M141.000 236.385 C 141.000 236.414,141.244 236.658,141.542 236.927 L 142.083 237.417 141.594 236.875 C 141.138 236.370,141.000 236.257,141.000 236.385 M229.124 237.591 C 229.043 238.017,229.293 239.336,229.487 239.500 C 230.009 239.942,230.318 244.485,229.966 246.560 C 229.322 250.354,229.560 253.333,230.506 253.333 C 230.607 253.333,230.667 250.346,230.667 245.351 L 230.667 237.369 230.292 237.384 C 230.085 237.393,229.757 237.345,229.562 237.278 C 229.270 237.178,229.193 237.233,229.124 237.591 M124.773 242.535 C 124.717 242.745,124.680 243.254,124.692 243.667 C 124.710 244.322,124.728 244.281,124.837 243.333 C 124.968 242.194,124.945 241.896,124.773 242.535 M311.683 242.859 C 306.569 245.339,306.615 252.569,311.750 253.547 L 312.250 253.642 312.204 248.283 L 312.157 242.925 312.537 242.633 C 313.070 242.223,312.906 242.266,311.683 242.859 M211.469 243.089 C 206.533 245.659,207.044 252.513,212.250 253.575 C 212.554 253.637,212.666 253.620,212.535 253.533 C 212.365 253.419,212.330 252.263,212.368 248.028 C 212.395 245.079,212.379 242.670,212.333 242.674 C 212.287 242.679,211.899 242.865,211.469 243.089 M124.840 245.000 C 124.823 248.108,128.562 252.323,131.833 252.883 L 132.417 252.983 131.833 252.719 C 131.512 252.573,131.100 252.385,130.917 252.300 C 130.733 252.216,129.758 251.045,128.750 249.698 C 127.742 248.352,126.876 247.213,126.826 247.167 C 126.647 247.004,125.218 245.078,125.032 244.750 C 124.864 244.453,124.843 244.480,124.840 245.000 M337.717 251.000 C 337.717 251.504,337.748 251.710,337.786 251.458 C 337.824 251.206,337.824 250.794,337.786 250.542 C 337.748 250.290,337.717 250.496,337.717 251.000 " stroke="none" fill="#2475ae" fill-rule="evenodd"></path><path id="path3" d="M142.417 119.155 C 141.775 119.207,141.157 119.311,141.042 119.384 C 140.928 119.458,140.683 119.548,140.497 119.584 C 139.897 119.700,138.176 120.651,137.559 121.208 C 137.228 121.506,136.893 121.731,136.812 121.708 C 136.732 121.685,136.667 121.779,136.667 121.917 C 136.667 122.054,136.587 122.167,136.490 122.167 C 136.393 122.167,136.355 122.233,136.405 122.314 C 136.455 122.395,136.346 122.650,136.164 122.882 C 135.775 123.377,135.770 123.409,136.042 123.698 C 136.156 123.820,136.623 124.407,137.079 125.002 C 137.536 125.597,137.967 126.108,138.038 126.139 C 138.109 126.169,138.167 126.294,138.167 126.417 C 138.167 126.539,138.223 126.664,138.292 126.694 C 138.360 126.725,138.714 127.144,139.076 127.626 C 139.743 128.510,139.901 128.527,140.057 127.726 C 140.090 127.556,140.174 127.267,140.244 127.083 C 140.418 126.632,141.674 125.500,142.002 125.500 C 142.148 125.500,142.349 125.418,142.450 125.317 C 142.720 125.047,143.969 125.032,144.875 125.289 C 146.473 125.741,147.750 127.727,147.397 129.211 C 147.327 129.507,147.264 129.787,147.258 129.833 C 147.084 131.188,145.205 132.536,143.477 132.547 L 142.871 132.551 143.472 133.401 C 143.803 133.868,144.116 134.287,144.168 134.333 C 144.220 134.379,144.635 134.904,145.090 135.500 C 145.545 136.096,145.973 136.608,146.042 136.639 C 146.110 136.669,146.167 136.769,146.167 136.859 C 146.167 136.950,146.272 137.130,146.402 137.259 C 146.531 137.388,146.675 137.589,146.722 137.705 C 146.790 137.873,146.840 137.871,146.964 137.694 C 147.050 137.572,147.150 137.489,147.185 137.510 C 147.704 137.821,150.983 135.309,151.733 134.026 C 153.201 131.516,153.600 129.571,153.170 127.023 C 152.527 123.209,148.923 119.593,145.417 119.244 C 145.050 119.207,144.487 119.151,144.167 119.118 C 143.846 119.086,143.058 119.102,142.417 119.155 M156.319 137.566 C 156.281 137.602,155.537 137.683,154.667 137.746 C 153.796 137.809,152.521 138.008,151.833 138.190 C 151.146 138.371,150.471 138.539,150.333 138.563 C 150.014 138.619,149.502 138.812,149.108 139.024 C 148.867 139.154,148.827 139.142,148.928 138.971 C 148.999 138.849,148.897 138.890,148.702 139.062 C 148.489 139.248,148.225 139.332,148.048 139.270 C 147.786 139.178,147.781 139.191,148.009 139.375 C 148.151 139.489,148.521 139.958,148.831 140.417 C 149.141 140.875,149.441 141.287,149.497 141.333 C 149.553 141.379,149.781 141.679,150.003 142.000 C 150.224 142.321,150.499 142.680,150.614 142.798 C 150.728 142.916,150.953 143.234,151.113 143.506 C 151.274 143.778,151.464 144.009,151.536 144.021 C 151.608 144.032,151.760 144.056,151.875 144.073 C 151.990 144.091,152.158 144.065,152.250 144.015 C 152.342 143.966,152.492 143.912,152.583 143.895 C 152.675 143.878,153.012 143.812,153.333 143.749 C 156.072 143.207,159.919 143.477,163.132 144.436 C 164.812 144.937,164.964 145.172,164.659 146.792 C 164.440 147.950,164.559 149.677,164.931 150.750 C 165.357 151.980,165.270 152.247,164.070 153.381 C 163.467 153.951,162.557 154.829,162.048 155.333 C 161.538 155.837,161.056 156.231,160.977 156.208 C 160.769 156.148,160.801 156.324,161.042 156.569 C 161.156 156.685,161.438 157.032,161.667 157.340 C 161.896 157.648,162.215 158.035,162.375 158.200 C 162.535 158.365,162.667 158.575,162.667 158.667 C 162.667 158.758,162.725 158.833,162.797 158.833 C 162.869 158.833,163.050 159.040,163.200 159.292 C 163.349 159.544,163.665 159.975,163.902 160.250 C 164.139 160.525,164.334 160.825,164.336 160.917 C 164.337 161.008,164.554 160.840,164.816 160.542 C 165.079 160.244,165.378 160.000,165.480 160.000 C 165.583 160.000,165.667 159.925,165.667 159.833 C 165.667 159.742,165.727 159.667,165.802 159.667 C 165.876 159.667,166.308 159.310,166.762 158.875 C 168.417 157.288,170.478 156.821,172.500 157.575 C 173.695 158.020,175.319 158.094,176.536 157.758 C 178.375 157.251,179.529 156.496,181.698 154.378 C 182.633 153.466,183.076 153.421,184.374 154.109 C 185.394 154.649,187.175 155.793,187.417 156.064 C 187.508 156.166,187.846 156.446,188.167 156.685 C 189.081 157.368,190.179 158.494,191.410 160.014 C 191.778 160.468,192.826 162.201,193.116 162.833 C 194.063 164.905,194.429 165.892,194.363 166.203 C 194.349 166.268,194.417 166.531,194.515 166.786 C 195.263 168.733,195.244 172.903,194.474 175.833 C 194.293 176.521,194.111 177.254,194.068 177.463 C 193.941 178.095,193.305 179.703,192.867 180.500 C 192.071 181.950,191.284 183.167,191.143 183.167 C 191.064 183.167,191.000 183.281,191.000 183.421 C 191.000 183.748,187.803 186.972,186.878 187.578 C 186.490 187.833,186.212 188.106,186.261 188.185 C 186.310 188.265,186.246 188.289,186.119 188.241 C 185.148 187.868,186.046 189.799,187.619 191.464 C 187.730 191.581,188.061 192.013,188.355 192.422 C 188.924 193.214,189.165 193.348,189.169 192.875 C 189.171 192.626,189.195 192.620,189.333 192.833 C 189.470 193.045,189.495 193.037,189.497 192.782 C 189.499 192.616,189.569 192.523,189.653 192.575 C 189.738 192.627,189.920 192.557,190.058 192.418 C 190.196 192.280,190.352 192.167,190.405 192.167 C 190.457 192.167,190.639 192.035,190.808 191.875 C 190.977 191.715,191.317 191.440,191.562 191.265 C 193.799 189.670,196.681 186.352,197.943 183.917 C 198.133 183.550,198.447 182.969,198.641 182.625 C 198.835 182.281,198.962 182.000,198.923 182.000 C 198.884 182.000,199.004 181.656,199.190 181.236 C 201.237 176.608,201.369 168.228,199.480 162.833 C 199.207 162.054,198.964 161.342,198.940 161.250 C 198.890 161.060,198.010 159.326,197.484 158.383 C 196.236 156.146,193.241 152.918,190.784 151.163 C 189.132 149.984,188.875 149.830,186.687 148.714 C 184.502 147.599,183.961 147.041,183.390 145.314 C 181.505 139.608,175.159 136.915,169.949 139.610 C 169.227 139.983,167.910 139.953,167.000 139.541 C 164.373 138.354,156.940 136.979,156.319 137.566 M175.561 144.871 C 176.430 145.132,177.537 146.244,177.800 147.120 C 178.895 150.777,174.332 153.547,171.643 150.857 C 168.816 148.030,171.650 143.699,175.561 144.871 M235.917 231.254 C 235.917 234.623,235.871 234.518,236.874 233.432 C 237.928 232.292,237.439 229.123,236.083 228.300 C 235.975 228.234,235.917 229.261,235.917 231.254 M186.000 241.155 L 186.000 252.477 186.485 252.338 C 191.183 250.990,191.872 244.767,187.586 242.378 C 187.269 242.201,187.277 242.173,187.784 241.689 C 188.501 241.004,189.382 239.577,189.651 238.667 C 189.773 238.254,189.938 237.699,190.019 237.433 C 190.893 234.568,188.505 229.833,186.186 229.833 C 186.051 229.833,186.000 232.947,186.000 241.155 M347.391 232.752 C 347.285 232.980,347.266 233.125,347.349 233.074 C 347.437 233.019,347.500 234.095,347.500 235.647 C 347.500 238.587,347.564 238.767,348.314 237.913 C 349.228 236.872,349.209 235.671,348.245 233.583 C 347.584 232.152,347.642 232.209,347.391 232.752 M204.958 236.513 C 204.676 236.678,204.481 241.500,204.757 241.500 C 204.806 241.500,205.141 241.350,205.500 241.167 C 205.859 240.983,206.256 240.833,206.381 240.833 C 207.788 240.833,207.520 237.803,206.021 236.765 C 205.317 236.276,205.351 236.285,204.958 236.513 M323.917 245.154 L 323.917 253.960 325.333 253.895 C 326.112 253.860,326.923 253.791,327.135 253.743 L 327.519 253.656 327.034 253.036 C 325.837 251.509,325.734 249.715,326.677 246.833 C 327.608 243.989,327.493 241.000,326.373 238.945 C 325.897 238.071,325.100 237.032,324.833 236.936 C 324.696 236.886,324.433 236.734,324.250 236.597 C 323.918 236.349,323.917 236.376,323.917 245.154 M224.128 245.236 L 224.083 253.971 225.750 253.888 C 227.633 253.793,227.887 253.675,227.380 253.127 C 226.614 252.300,226.258 251.319,226.276 250.086 C 226.291 249.020,226.438 248.360,227.280 245.583 C 227.950 243.373,227.587 240.456,226.409 238.577 C 225.874 237.723,225.000 236.686,225.000 236.904 C 225.000 236.970,224.882 236.906,224.738 236.762 C 224.594 236.618,224.408 236.500,224.324 236.500 C 224.235 236.500,224.154 240.124,224.128 245.236 M236.002 236.667 C 235.940 237.648,235.943 253.000,236.006 253.000 C 236.596 253.000,236.877 250.330,236.481 248.485 C 236.283 247.562,236.548 242.581,236.848 241.583 C 237.229 240.317,237.082 238.427,236.529 237.478 C 236.242 236.986,236.005 236.621,236.002 236.667 M303.129 242.132 L 303.083 247.597 303.583 247.533 C 306.548 247.156,307.547 244.712,306.306 240.871 C 305.723 239.065,304.010 236.667,303.303 236.667 C 303.233 236.667,303.155 239.126,303.129 242.132 M255.667 246.234 L 255.667 254.187 256.125 254.111 C 257.151 253.941,257.593 253.757,258.117 253.280 C 258.419 253.005,258.667 252.689,258.667 252.577 C 258.667 252.465,258.781 252.279,258.921 252.163 C 259.060 252.047,259.144 251.922,259.106 251.884 C 259.069 251.846,259.142 251.470,259.269 251.048 C 259.534 250.166,259.567 248.369,259.344 246.917 C 259.259 246.367,259.143 245.467,259.085 244.917 C 258.805 242.263,257.723 240.017,256.042 238.598 L 255.667 238.282 255.667 246.234 M347.586 246.863 C 347.542 246.984,347.486 248.486,347.461 250.200 L 347.417 253.316 348.167 253.217 C 350.311 252.935,352.189 250.871,351.490 249.565 C 350.908 248.478,347.784 246.316,347.586 246.863 M283.167 250.266 C 283.167 253.761,283.143 253.704,284.484 253.357 C 287.022 252.699,286.324 247.756,283.625 247.271 L 283.167 247.189 283.167 250.266 M305.417 248.973 C 305.142 249.121,304.542 249.360,304.083 249.502 L 303.250 249.761 303.203 251.444 C 303.148 253.378,303.221 253.480,304.304 252.994 C 306.047 252.214,306.709 251.066,306.329 249.480 C 306.113 248.583,306.125 248.589,305.417 248.973 " stroke="none" fill="#4eb4c3" fill-rule="evenodd"></path><path id="path4" d="M136.167 122.583 C 136.167 122.721,136.110 122.833,136.040 122.833 C 135.971 122.833,135.639 123.377,135.304 124.042 C 133.029 128.547,133.503 132.040,136.836 135.333 C 138.894 137.367,139.288 138.365,138.805 140.318 C 138.724 140.647,138.626 141.048,138.588 141.209 C 138.458 141.760,138.312 141.855,137.776 141.739 C 137.487 141.676,137.209 141.561,137.159 141.483 C 137.110 141.405,136.911 141.318,136.717 141.288 C 136.524 141.259,136.265 141.150,136.141 141.048 C 136.017 140.945,135.803 140.836,135.666 140.805 C 135.529 140.775,135.363 140.675,135.298 140.583 C 135.232 140.492,135.101 140.407,135.006 140.396 C 134.911 140.384,134.754 140.366,134.657 140.354 C 134.560 140.343,134.535 140.246,134.601 140.138 C 134.681 140.008,134.631 139.978,134.449 140.048 C 134.300 140.105,134.133 140.080,134.079 139.993 C 134.025 139.905,133.858 139.833,133.709 139.833 C 133.495 139.833,133.526 139.930,133.859 140.292 C 134.090 140.544,134.457 141.012,134.673 141.333 C 134.890 141.654,135.110 141.954,135.163 142.000 C 135.260 142.085,136.706 143.987,139.408 147.583 C 140.235 148.683,140.955 149.621,141.008 149.667 C 141.062 149.712,141.430 150.183,141.826 150.713 C 142.222 151.242,142.557 151.655,142.571 151.629 C 142.584 151.604,142.704 151.438,142.839 151.260 C 143.038 150.996,143.040 150.962,142.849 151.077 C 142.675 151.182,142.652 151.159,142.762 150.984 C 142.842 150.855,142.912 150.675,142.917 150.583 C 142.966 149.734,144.759 147.601,145.930 147.000 C 146.198 146.863,146.454 146.705,146.500 146.649 C 146.687 146.420,149.813 144.863,150.667 144.573 C 151.754 144.204,151.790 144.183,151.570 144.033 C 151.477 143.969,151.220 143.654,151.000 143.333 C 150.780 143.012,150.555 142.712,150.500 142.667 C 150.445 142.621,150.220 142.321,150.000 142.000 C 149.780 141.679,149.553 141.379,149.497 141.333 C 149.441 141.287,149.142 140.875,148.833 140.417 C 148.525 139.958,148.192 139.528,148.094 139.461 C 147.987 139.387,148.028 139.337,148.198 139.336 C 148.354 139.334,148.523 139.263,148.576 139.178 C 148.629 139.093,148.277 139.171,147.794 139.352 C 147.312 139.533,146.785 139.724,146.625 139.777 C 146.465 139.829,146.333 139.943,146.333 140.029 C 146.333 140.116,146.264 140.143,146.178 140.090 C 146.093 140.038,145.975 140.072,145.917 140.167 C 145.858 140.261,145.746 140.299,145.667 140.250 C 145.588 140.201,145.476 140.237,145.418 140.331 C 145.098 140.849,144.804 140.477,144.860 139.625 C 144.921 138.686,145.539 138.000,146.324 138.000 C 146.726 138.000,146.773 137.630,146.417 137.274 C 146.279 137.136,146.167 136.950,146.167 136.859 C 146.167 136.769,146.110 136.669,146.042 136.639 C 145.973 136.608,145.545 136.096,145.090 135.500 C 144.635 134.904,144.220 134.379,144.168 134.333 C 143.892 134.090,142.843 132.484,143.029 132.590 C 143.198 132.686,143.205 132.667,143.059 132.509 C 142.955 132.395,142.730 132.329,142.561 132.361 C 142.392 132.394,142.115 132.295,141.946 132.141 C 140.297 130.640,139.998 130.116,139.976 128.684 C 139.971 128.372,139.914 128.203,139.850 128.307 C 139.777 128.424,139.482 128.164,139.075 127.623 C 138.713 127.143,138.360 126.725,138.292 126.694 C 138.223 126.664,138.167 126.539,138.167 126.417 C 138.167 126.294,138.109 126.169,138.038 126.139 C 137.967 126.108,137.536 125.597,137.079 125.002 C 136.623 124.407,136.156 123.820,136.042 123.698 C 135.790 123.430,135.776 123.222,135.999 123.084 C 136.274 122.914,136.537 122.333,136.339 122.333 C 136.244 122.333,136.167 122.446,136.167 122.583 M146.240 131.375 L 145.750 131.917 146.292 131.427 C 146.590 131.158,146.833 130.914,146.833 130.885 C 146.833 130.757,146.696 130.870,146.240 131.375 M160.234 156.792 C 159.955 157.044,159.207 157.711,158.572 158.275 C 157.936 158.839,157.224 159.476,156.988 159.692 C 156.752 159.907,156.090 160.496,155.516 161.000 C 153.591 162.692,152.837 163.448,152.955 163.567 C 153.020 163.631,152.951 163.637,152.802 163.580 C 152.618 163.510,152.494 163.588,152.420 163.824 C 152.359 164.015,152.232 164.124,152.138 164.066 C 151.930 163.937,152.233 164.537,152.541 164.862 C 152.656 164.984,153.308 165.833,153.991 166.750 C 154.673 167.667,155.312 168.499,155.411 168.599 C 155.594 168.784,156.201 168.668,156.179 168.452 C 156.172 168.387,156.204 168.333,156.250 168.333 C 156.296 168.333,156.473 168.202,156.644 168.042 C 156.814 167.881,157.358 167.402,157.852 166.976 C 158.346 166.550,158.942 166.025,159.176 165.809 C 159.411 165.593,160.156 164.929,160.832 164.333 C 162.424 162.931,162.833 162.521,162.833 162.326 C 162.833 162.238,162.899 162.185,162.979 162.208 C 163.166 162.262,165.542 160.153,165.426 160.037 C 165.378 159.989,165.113 160.204,164.838 160.516 C 164.564 160.828,164.337 161.008,164.336 160.917 C 164.334 160.825,164.139 160.525,163.902 160.250 C 163.665 159.975,163.349 159.544,163.200 159.292 C 163.050 159.040,162.869 158.833,162.797 158.833 C 162.725 158.833,162.667 158.758,162.667 158.667 C 162.667 158.575,162.535 158.365,162.375 158.200 C 162.215 158.035,161.896 157.648,161.667 157.340 C 160.815 156.197,160.869 156.217,160.234 156.792 M174.122 185.068 C 172.549 185.533,171.705 185.948,171.209 186.500 C 171.002 186.729,170.834 186.861,170.834 186.793 C 170.833 186.725,170.606 186.907,170.329 187.197 C 170.052 187.488,169.886 187.768,169.962 187.821 C 170.037 187.874,170.467 188.404,170.917 189.000 C 171.366 189.596,171.780 190.121,171.837 190.167 C 171.893 190.213,172.193 190.625,172.503 191.083 C 173.318 192.287,173.459 192.408,173.753 192.164 C 173.887 192.053,173.955 191.896,173.905 191.814 C 173.854 191.733,174.005 191.593,174.240 191.504 C 174.475 191.415,174.667 191.275,174.667 191.193 C 174.667 190.944,176.051 190.500,176.828 190.500 C 180.075 190.500,181.773 194.925,179.314 196.980 C 179.053 197.198,178.888 197.453,178.946 197.547 C 179.007 197.645,178.970 197.668,178.859 197.599 C 178.753 197.534,178.667 197.568,178.667 197.675 C 178.667 197.782,178.554 197.826,178.417 197.773 C 178.279 197.720,178.167 197.754,178.167 197.848 C 178.167 197.943,178.092 197.973,178.000 197.917 C 177.651 197.701,178.096 198.668,178.498 199.000 C 178.554 199.046,178.780 199.346,179.000 199.667 C 179.220 199.987,179.446 200.287,179.501 200.333 C 179.556 200.379,179.822 200.717,180.092 201.083 C 180.362 201.450,180.715 201.895,180.875 202.073 C 181.035 202.251,181.167 202.457,181.167 202.531 C 181.167 202.800,181.690 202.659,182.057 202.292 C 182.263 202.085,182.515 201.917,182.616 201.917 C 183.101 201.917,184.892 199.894,185.344 198.836 C 185.442 198.608,185.618 198.196,185.735 197.919 C 186.080 197.109,186.333 196.251,186.333 195.897 C 186.333 195.715,186.423 195.477,186.533 195.367 C 186.643 195.257,186.666 195.167,186.584 195.167 C 186.502 195.167,186.689 194.904,187.000 194.583 C 187.311 194.262,187.630 194.000,187.708 194.000 C 187.787 194.000,188.104 193.828,188.413 193.618 L 188.975 193.236 188.286 192.326 C 187.907 191.826,187.518 191.333,187.423 191.231 C 187.328 191.129,186.838 190.472,186.333 189.773 C 185.640 188.810,185.331 188.510,185.067 188.539 C 184.832 188.566,184.289 188.183,183.417 187.377 C 182.146 186.201,181.255 185.616,180.250 185.299 C 177.894 184.555,176.084 184.487,174.122 185.068 M235.167 231.167 C 235.167 234.576,235.227 234.873,235.800 234.300 C 236.131 233.969,236.076 228.433,235.738 228.095 C 235.216 227.573,235.167 227.840,235.167 231.167 M183.833 240.903 C 183.833 250.459,183.877 253.004,184.042 253.020 C 184.345 253.049,184.671 252.999,185.375 252.816 L 186.000 252.654 186.000 241.224 C 186.000 229.877,186.002 229.795,186.333 229.882 C 186.517 229.930,186.667 229.936,186.667 229.897 C 186.667 229.836,185.927 229.487,185.667 229.425 C 185.621 229.414,185.433 229.323,185.250 229.222 C 185.067 229.122,184.673 228.987,184.375 228.923 L 183.833 228.807 183.833 240.903 M346.981 233.586 C 346.741 233.954,346.418 234.361,346.262 234.490 C 345.626 235.018,345.500 235.583,345.500 237.908 C 345.500 239.150,345.558 240.167,345.630 240.167 C 345.833 240.167,346.535 239.647,347.083 239.091 L 347.583 238.583 347.500 235.750 L 347.417 232.917 346.981 233.586 M222.500 244.573 C 222.500 253.164,222.537 254.266,222.821 254.091 C 222.887 254.050,223.235 254.000,223.595 253.978 L 224.250 253.940 224.250 245.178 L 224.250 236.417 223.833 236.162 C 223.604 236.022,223.210 235.818,222.958 235.708 L 222.500 235.507 222.500 244.573 M322.333 244.653 C 322.333 253.241,322.369 254.267,322.665 254.084 C 322.736 254.040,323.144 253.991,323.571 253.975 C 323.999 253.959,324.268 253.896,324.171 253.836 C 324.049 253.761,324.008 251.036,324.039 245.046 C 324.063 240.271,324.027 236.400,323.958 236.442 C 323.890 236.485,323.833 236.459,323.832 236.385 C 323.831 236.210,322.876 235.667,322.570 235.667 C 322.369 235.667,322.333 237.004,322.333 244.653 M301.576 236.043 C 301.532 236.158,301.515 238.875,301.539 242.081 L 301.583 247.910 302.316 247.857 C 302.720 247.828,303.207 247.734,303.400 247.647 C 303.725 247.502,303.726 247.495,303.417 247.552 C 303.087 247.613,303.084 247.546,303.167 242.066 L 303.250 236.517 302.565 236.175 C 301.763 235.775,301.683 235.764,301.576 236.043 M204.502 236.581 C 204.388 236.718,204.235 236.792,204.161 236.747 C 204.087 236.701,203.917 236.773,203.783 236.907 C 203.649 237.041,203.512 237.123,203.478 237.089 C 203.444 237.055,203.439 238.183,203.466 239.597 C 203.519 242.319,203.562 242.438,204.282 241.871 C 204.584 241.634,205.011 236.330,204.729 236.333 C 204.717 236.333,204.615 236.445,204.502 236.581 M235.167 244.918 L 235.167 253.493 235.581 253.304 L 235.996 253.115 235.956 244.868 L 235.917 236.621 235.542 236.483 L 235.167 236.344 235.167 244.918 M253.833 245.753 L 253.833 253.961 254.208 254.062 C 254.415 254.117,254.827 254.163,255.125 254.164 L 255.667 254.167 255.667 246.198 L 255.667 238.228 255.042 237.914 C 253.726 237.253,253.833 236.554,253.833 245.753 M345.500 249.328 L 345.500 252.990 346.292 253.227 C 347.474 253.581,347.475 253.579,347.533 249.800 C 347.576 247.001,347.546 246.503,347.333 246.427 C 347.196 246.378,346.858 246.192,346.583 246.014 C 345.486 245.305,345.500 245.262,345.500 249.328 M282.167 247.382 L 281.750 247.593 281.705 250.630 L 281.659 253.667 282.121 253.664 C 283.310 253.659,283.255 253.828,283.201 250.325 C 283.148 246.870,283.153 246.884,282.167 247.382 M302.583 249.891 C 301.496 250.204,301.500 250.197,301.500 252.031 L 301.500 253.710 302.375 253.595 C 303.159 253.491,303.904 253.167,303.356 253.167 C 303.196 253.167,303.158 252.744,303.198 251.416 C 303.226 250.454,303.250 249.673,303.250 249.683 C 303.250 249.692,302.950 249.786,302.583 249.891 " stroke="none" fill="#44acbc" fill-rule="evenodd"></path></g></svg>