<?xml version="1.0" standalone="no"?>
<!DOCTYPE svg PUBLIC "-//W3C//DTD SVG 20010904//EN"
 "http://www.w3.org/TR/2001/REC-SVG-20010904/DTD/svg10.dtd">
<svg version="1.0" xmlns="http://www.w3.org/2000/svg"
 width="300.000000pt" height="265.000000pt" viewBox="0 0 300.000000 265.000000"
 preserveAspectRatio="xMidYMid meet">
<metadata>
Created by potrace 1.10, written by Peter Selinger 2001-2011
</metadata>
<g transform="translate(0.000000,265.000000) scale(0.100000,-0.100000)"
fill="#000000" stroke="none">
<path d="M1795 2606 c-66 -29 -105 -94 -105 -172 0 -52 16 -88 59 -128 22 -21
31 -39 31 -62 0 -63 -6 -66 -68 -35 -182 92 -395 103 -585 31 -133 -50 -272
-170 -350 -302 -38 -64 -87 -200 -87 -242 0 -43 -14 -44 -149 -16 -71 15 -134
30 -140 34 -6 4 -19 26 -29 49 -24 53 -81 104 -127 113 -153 28 -271 -120
-206 -261 22 -48 44 -69 94 -90 69 -29 143 -12 204 47 l32 31 113 -23 c62 -13
115 -25 117 -26 2 -2 -18 -29 -44 -60 -85 -105 -130 -218 -141 -353 -8 -104
14 -203 71 -316 41 -82 45 -94 39 -141 -19 -152 136 -253 276 -180 28 15 56
23 62 20 7 -4 66 -10 132 -13 l121 -6 1 -190 c1 -242 1 -241 20 -259 39 -40
54 -27 275 231 116 137 215 250 220 251 5 2 9 -23 9 -57 0 -60 0 -60 -45 -91
-170 -117 -63 -374 140 -336 43 8 113 68 132 113 30 74 3 157 -71 218 l-46 37
0 94 c0 106 -5 101 85 79 186 -45 413 22 551 162 41 41 76 91 108 152 40 77
51 91 80 101 45 15 103 79 112 125 5 29 16 42 60 71 156 104 236 266 221 449
-16 181 -100 306 -267 397 -35 19 -52 38 -75 82 -51 98 -132 134 -228 101 -46
-16 -50 -15 -110 6 -48 17 -83 22 -157 22 -90 -1 -124 -8 -222 -48 -14 -5 -18
-2 -18 13 0 14 16 27 55 47 179 87 121 346 -78 345 -23 -1 -55 -7 -72 -14z
m156 -29 c97 -65 106 -187 19 -260 -16 -14 -40 -29 -52 -33 -44 -13 -62 -60
-33 -84 12 -10 23 -9 57 5 45 18 51 20 106 32 48 11 177 0 244 -21 52 -17 61
-17 117 -3 100 26 158 -3 205 -101 20 -41 36 -62 51 -66 28 -7 119 -69 162
-109 40 -37 101 -157 111 -217 19 -118 -2 -260 -52 -344 -27 -46 -104 -121
-165 -161 -27 -18 -44 -39 -52 -64 -17 -52 -55 -99 -95 -116 -46 -19 -54 -29
-92 -104 -81 -163 -222 -276 -392 -312 -66 -15 -191 -17 -240 -6 -105 26 -118
20 -121 -54 -5 -130 -3 -135 55 -192 69 -67 84 -113 60 -190 -17 -58 -98 -107
-166 -100 -84 9 -148 77 -148 158 0 49 19 82 79 137 l52 46 -3 63 c-4 75 -22
95 -58 59 -23 -23 -157 -180 -244 -285 -28 -33 -57 -67 -65 -76 -9 -9 -35 -39
-59 -66 -43 -51 -66 -60 -82 -32 -5 8 -9 106 -10 219 0 150 -3 207 -12 217 -8
7 -47 13 -101 14 -48 1 -110 6 -137 11 -43 8 -55 6 -101 -18 -42 -21 -61 -25
-101 -21 -27 3 -57 12 -66 19 -44 35 -51 42 -46 50 3 4 1 8 -5 8 -16 0 -30 68
-24 119 5 42 1 56 -35 122 -22 41 -47 100 -56 130 -51 174 -4 382 121 535 36
44 44 60 36 73 -11 17 -65 33 -180 53 l-73 12 -33 -31 c-44 -42 -69 -53 -120
-53 -93 0 -152 52 -163 143 -12 107 93 195 199 166 49 -13 90 -48 108 -93 23
-58 58 -80 149 -91 14 -2 56 -11 93 -19 38 -9 72 -16 77 -16 17 0 40 32 40 55
0 48 53 192 95 255 53 81 124 162 136 154 5 -3 9 2 9 10 0 9 4 16 9 16 5 0 16
6 23 13 21 21 169 100 175 93 3 -3 11 -2 17 3 52 41 332 43 431 2 40 -17 120
-52 137 -61 21 -11 56 16 59 45 4 47 -3 67 -35 102 -44 50 -53 70 -55 121 -3
123 140 206 240 139z"/>
<path d="M1819 2517 c-48 -37 -52 -103 -7 -147 26 -27 37 -31 64 -27 63 10
107 82 82 132 -25 49 -100 72 -139 42z m99 -24 c34 -29 37 -66 9 -98 -47 -55
-127 -26 -127 46 0 58 73 90 118 52z"/>
<path d="M1260 2188 c-25 -5 -52 -12 -60 -15 -8 -4 -17 -7 -20 -7 -40 -7 -176
-91 -219 -135 -104 -110 -168 -229 -186 -353 -7 -48 8 -70 55 -81 14 -3 28 -7
32 -8 4 -1 47 -10 95 -20 49 -11 99 -22 113 -25 43 -9 165 -35 180 -38 70 -14
97 -20 110 -23 52 -12 75 -5 100 27 57 76 136 130 190 130 10 0 27 8 39 18 20
16 31 61 56 232 4 25 8 50 9 55 16 69 17 107 2 129 -21 32 -166 102 -240 115
-71 13 -193 13 -256 -1z m229 -19 c74 -12 193 -58 234 -92 l28 -22 -31 -185
c-17 -102 -35 -189 -39 -193 -5 -5 -28 -13 -52 -18 -66 -15 -126 -55 -165
-110 -21 -29 -44 -49 -55 -49 -40 0 -595 122 -607 134 -17 17 17 147 60 229
42 81 164 203 245 245 120 63 247 83 382 61z"/>
<path d="M2014 2160 c-69 -22 -138 -64 -158 -95 -10 -15 -20 -43 -23 -63 -3
-20 -10 -42 -14 -48 -5 -6 -6 -13 -3 -16 3 -3 -4 -61 -16 -128 -25 -152 -25
-149 5 -184 14 -16 25 -26 25 -22 0 4 8 2 18 -3 25 -13 39 -4 192 134 74 67
146 130 159 141 13 10 43 38 66 60 l42 42 -4 73 c-3 42 -11 81 -19 90 -18 21
-109 41 -171 38 -27 -1 -72 -10 -99 -19z m233 -20 c28 -10 30 -14 31 -63 1
-29 3 -61 4 -73 2 -16 -44 -63 -206 -208 l-209 -186 -31 19 c-17 11 -32 28
-34 38 -5 33 56 363 71 386 17 27 118 83 173 96 45 12 156 6 201 -9z"/>
<path d="M2402 2135 c-38 -32 -47 -67 -27 -109 36 -75 138 -74 168 2 19 47 5
87 -37 113 -42 25 -69 24 -104 -6z m111 -22 c27 -25 22 -78 -9 -102 -44 -34
-86 -26 -110 21 -18 35 -11 61 24 88 29 23 64 20 95 -7z"/>
<path d="M2602 1974 c-13 -9 -34 -26 -48 -39 -34 -32 -67 -38 -130 -25 -71 15
-92 3 -224 -123 -19 -19 -60 -55 -90 -82 -203 -177 -193 -163 -165 -240 8 -22
14 -54 15 -71 0 -17 8 -38 18 -46 16 -14 92 -36 207 -59 28 -5 57 -13 65 -16
8 -3 34 -8 57 -10 37 -4 49 1 89 31 76 58 133 59 219 5 31 -20 56 -29 70 -25
24 6 100 76 132 121 53 76 80 238 54 323 -5 18 -9 33 -9 35 1 1 -8 20 -19 42
-31 60 -100 133 -157 165 -60 35 -55 34 -84 14z m89 -42 c58 -37 106 -93 138
-162 22 -47 26 -69 26 -150 0 -86 -3 -101 -32 -163 -32 -68 -121 -167 -150
-167 -8 0 -32 14 -54 32 -32 26 -51 33 -99 36 -50 4 -66 0 -103 -22 -25 -14
-47 -32 -51 -41 -3 -8 -15 -15 -27 -15 -32 0 -332 72 -346 83 -7 5 -13 22 -13
37 0 15 -8 51 -17 80 l-17 53 35 30 c19 16 105 93 192 171 87 78 170 146 184
152 17 8 38 8 57 3 65 -19 136 1 180 50 25 28 43 27 97 -7z"/>
<path d="M141 1764 c-25 -21 -31 -33 -31 -66 0 -48 43 -98 85 -98 95 0 140
117 65 170 -39 28 -82 25 -119 -6z m100 -7 c9 -7 21 -23 28 -35 23 -43 -20
-102 -75 -102 -24 0 -64 47 -64 75 0 53 71 93 111 62z"/>
<path d="M1615 1561 c-43 -19 -90 -68 -107 -110 -16 -39 -10 -118 11 -160 11
-20 41 -54 68 -75 46 -36 51 -38 109 -34 68 4 129 36 161 84 109 166 -64 376
-242 295z m142 -16 c50 -21 72 -42 94 -90 33 -71 17 -158 -38 -207 -26 -24
-87 -48 -120 -48 -44 1 -108 35 -138 74 -29 38 -43 111 -31 160 15 59 103 125
169 126 15 0 44 -7 64 -15z"/>
<path d="M668 1479 c-53 -47 -76 -78 -108 -142 -45 -92 -49 -103 -57 -202 -4
-49 -1 -90 11 -135 18 -69 59 -162 79 -178 18 -14 57 -22 57 -11 0 15 97 10
134 -8 42 -20 13 -37 361 217 86 63 178 130 203 148 86 61 124 108 100 123 -5
3 -12 24 -15 45 -6 49 -23 73 -54 79 -13 3 -49 10 -79 17 -30 6 -62 12 -70 13
-28 5 -305 66 -361 80 -105 27 -126 23 -201 -46z m408 -24 c169 -36 313 -70
320 -75 10 -9 21 -53 27 -112 1 -11 -96 -88 -301 -237 l-303 -221 -32 17 c-29
15 -84 19 -157 11 -22 -3 -29 5 -57 59 -92 183 -51 409 102 559 36 35 72 64
79 64 8 0 153 -29 322 -65z"/>
<path d="M2451 1252 c-80 -66 -9 -195 89 -161 78 28 80 139 3 178 -34 17 -56
13 -92 -17z m89 -7 c53 -27 53 -103 0 -130 -50 -26 -100 7 -100 65 0 41 22 67
68 79 2 1 16 -6 32 -14z"/>
<path d="M1886 1205 c-35 -36 -69 -65 -75 -65 -21 0 -26 -2 -53 -22 l-28 -19
0 -178 c0 -208 1 -210 110 -235 125 -30 271 -12 363 45 18 10 39 22 47 25 34
15 143 138 165 187 32 67 31 80 -5 110 -16 14 -30 30 -30 36 0 6 -4 11 -10 11
-5 0 -14 17 -20 38 -10 39 -39 62 -87 68 -11 1 -47 9 -80 18 -107 28 -189 46
-211 46 -13 0 -46 -25 -86 -65z m282 -1 c112 -26 155 -41 159 -53 18 -57 31
-80 62 -108 l35 -33 -25 -52 c-33 -71 -139 -178 -211 -211 -121 -57 -221 -69
-338 -41 -102 24 -100 20 -100 214 0 177 1 180 50 195 43 13 97 55 126 97 32
46 9 47 242 -8z"/>
<path d="M1420 1139 c-30 -22 -102 -75 -159 -117 -57 -42 -108 -76 -115 -74
-6 2 -8 1 -4 -3 4 -4 -16 -23 -45 -43 -29 -19 -54 -38 -57 -42 -3 -3 -39 -32
-81 -62 -89 -65 -91 -68 -92 -115 -1 -27 5 -41 27 -59 24 -21 37 -24 106 -24
43 0 103 5 131 11 77 17 80 10 77 -183 -1 -153 5 -188 33 -188 14 0 398 447
411 478 4 10 7 96 7 192 1 144 -2 180 -15 198 -8 12 -23 22 -32 22 -9 0 -35
12 -57 25 -53 33 -70 31 -135 -16z m132 -6 c29 -15 60 -30 68 -33 12 -6 15
-39 18 -188 l2 -180 -62 -75 c-35 -41 -124 -147 -198 -235 -74 -88 -138 -161
-142 -161 -5 -1 -8 77 -8 173 0 200 -4 212 -69 202 -85 -14 -217 -18 -244 -7
-26 10 -28 15 -25 53 l3 42 295 218 c162 120 298 217 302 218 5 0 32 -12 60
-27z"/>
<path d="M644 725 c-33 -31 -36 -39 -31 -72 8 -49 49 -83 99 -83 30 0 42 6 62
33 40 52 29 115 -25 143 -43 21 -64 17 -105 -21z m120 -29 c16 -21 18 -32 10
-53 -21 -62 -101 -68 -134 -10 -13 24 -13 30 0 54 32 57 86 61 124 9z"/>
<path d="M1660 323 c-22 -9 -50 -43 -56 -70 -13 -49 39 -113 91 -113 52 0 104
64 91 112 -15 54 -79 91 -126 71z m64 -24 c34 -16 51 -58 35 -91 -26 -58 -98
-61 -128 -6 -19 34 -6 77 29 95 31 16 33 16 64 2z"/>
</g>
</svg>
