<?xml version="1.0" standalone="no"?><!DOCTYPE svg PUBLIC "-//W3C//DTD SVG 1.1//EN" "http://www.w3.org/Graphics/SVG/1.1/DTD/svg11.dtd"><svg t="1670368149775" class="icon" viewBox="0 0 1024 1024" version="1.1" xmlns="http://www.w3.org/2000/svg" p-id="5048" xmlns:xlink="http://www.w3.org/1999/xlink" width="16" height="16"><path d="M533.302673 9.533814c2.468286 4.401393 3.261829 9.707055 1.513267 14.855855l-36.908956 109.139783 57.577972 21.568671a18.445251 18.445251 0 0 1 6.528271 30.385298l-52.825943 52.373809a18.459092 18.459092 0 0 1-6.269909 4.09228L347.26308 302.761629a18.468319 18.468319 0 0 1-23.917003-10.482144 18.463705 18.463705 0 0 1 10.472916-23.903162L485.916187 208.957517l29.647119-29.402597-47.34035-17.734753a18.454478 18.454478 0 0 1-11.012709-23.192666L499.849318 12.564962c0.43368-1.254905 1.259518-2.214537 1.910038-3.307965C262.270982 14.608795 69.075665 206.904456 69.075665 442.683481c0 161.522819 93.767203 311.571566 239.908214 385.546341v177.315239a18.454478 18.454478 0 0 0 18.454478 18.454478h387.544038a18.454478 18.454478 0 0 0 18.454478-18.454478v-187.202225c136.895318-77.48574 221.453736-220.406445 221.453737-375.659355 0-232.129652-187.229907-422.220003-421.587937-433.149667zM438.165225 950.181627a18.454478 18.454478 0 1 1-36.908956 0v-92.272391a18.454478 18.454478 0 1 1 36.908956 0v92.272391z m-65.079717-355.479383c-25.407203 4.9458-51.903219 9.333352-76.447675 9.333352-5.730115 0-11.372572-0.244522-16.848938-0.775088-50.606792-4.876596-66.519166-33.070425-70.9344-55.870932-5.96541-30.662115 5.079595-72.913643 29.554847-113.015224 12.055388-19.746291 44.858222-66.606825 88.904447-75.169702 30.980455-6.034614 65.291943 2.629763 94.020952 23.769368 27.843194 20.484471 47.2896 50.085453 53.324214 81.199703 6.108432 31.349545-2.002311 62.085478-22.814348 86.542274-18.869704 22.168442-46.842079 37.785544-78.754485 43.981635zM456.619703 617.996409h36.908956v73.817912h-36.908956v-73.817912z m73.817912 332.180604a18.454478 18.454478 0 1 1-36.908956 0v-92.27239a18.454478 18.454478 0 1 1 36.908956 0v92.27239z m36.908956-258.362692h-36.908956v-73.817912h36.908956v73.817912z m55.363434 258.362692a18.454478 18.454478 0 1 1-36.908956 0v-92.27239a18.454478 18.454478 0 1 1 36.908956 0v92.27239z m192.401775-402.782824c-4.415234 22.79128-20.327608 50.985109-70.9344 55.861705-5.476366 0.530566-11.118823 0.775088-16.848939 0.775088-24.544456 0-51.040473-4.387552-76.447675-9.337965-31.91702-6.196091-59.884781-21.813193-78.754485-43.981635-20.821265-24.452183-28.927394-55.19273-22.818962-86.551502 6.034614-31.105023 25.481021-60.696778 53.324214-81.185862 28.729009-21.139605 63.022042-29.845505 94.007111-23.769368 44.060066 8.558264 76.862901 55.414184 88.918289 75.165089 24.470638 40.101581 35.520257 82.353108 29.554847 113.02445z" fill="#b1102b" p-id="5049" data-spm-anchor-id="a313x.7781069.0.i0" class=""></path><path d="M474.658955 464.178334c-6.039228-31.118864-25.481021-60.715233-53.328827-81.199703-28.724395-21.144218-63.040497-29.808596-94.016339-23.773981-44.050839 8.562878-76.84906 55.418797-88.904447 75.169702-24.475251 40.101581-35.520257 82.353108-29.554847 113.015224 4.415234 22.800508 20.327608 50.994336 70.9344 55.870932 5.476366 0.530566 11.118823 0.775088 16.848938 0.775088 24.544456 0 51.040473-4.387552 76.447675-9.337966 31.91702-6.196091 59.889395-21.813193 78.754485-43.981635 20.816651-24.452183 28.927394-55.19273 22.818962-86.537661zM696.638644 359.209263c-30.985069-6.076137-65.278102 2.629763-94.007111 23.769368-27.843194 20.489084-47.2896 50.08084-53.324214 81.190476-6.113046 31.354158 1.997697 62.090091 22.814348 86.551502 18.869704 22.163828 46.842079 37.78093 78.754485 43.977021 25.411816 4.950414 51.903219 9.337966 76.447676 9.337966 5.734729 0 11.377186-0.244522 16.853552-0.775088 50.606792-4.876596 66.519166-33.070425 70.9344-55.861705 5.96541-30.671342-5.079595-72.92287-29.554847-113.024451-12.055388-19.746291-44.858222-66.606825-88.918289-75.165089zM419.710747 839.454758a18.454478 18.454478 0 0 0-18.454478 18.454478v92.272391a18.454478 18.454478 0 1 0 36.908956 0v-92.272391a18.454478 18.454478 0 0 0-18.454478-18.454478zM604.255527 839.454758a18.454478 18.454478 0 0 0-18.454478 18.454478v92.272391a18.454478 18.454478 0 1 0 36.908956 0v-92.272391a18.454478 18.454478 0 0 0-18.454478-18.454478zM511.983137 839.454758a18.454478 18.454478 0 0 0-18.454478 18.454478v92.272391a18.454478 18.454478 0 1 0 36.908956 0v-92.272391a18.454478 18.454478 0 0 0-18.454478-18.454478zM456.619703 618.001022h36.908956v73.817912h-36.908956zM530.437615 618.001022h36.908956v73.817912h-36.908956zM457.21486 138.627501a18.454478 18.454478 0 0 0 11.008096 23.192666l47.344964 17.734753-29.647119 29.402597-152.101808 59.418806a18.463705 18.463705 0 0 0 6.722043 35.654051c2.232992 0 4.502893-0.415226 6.722044-1.268745l155.654295-60.812119c2.343719-0.922724 4.489052-2.316037 6.274522-4.09228l52.82133-52.373809a18.445251 18.445251 0 0 0-6.523658-30.385298l-57.577971-21.568671 36.908956-109.144397c1.743948-5.144186 0.950406-10.449848-1.517881-14.851241-2.163788-3.847759-5.550184-7.017315-10.057691-8.53981-8.396787-2.860444-17.116528 0.936565-21.481012 8.258379-0.645907 1.102655-1.476358 2.057674-1.910038 3.312579L457.219474 138.627501z" fill="#ffffff" p-id="5050" data-spm-anchor-id="a313x.7781069.0.i1" class="selected"></path></svg>